M48
; DRILL file {KiCad 9.0.5} date 2025-10-26T23:45:56+0800
; FORMAT={-:-/ absolute / inch / decimal}
; #@! TF.CreationDate,2025-10-26T23:45:56+08:00
; #@! TF.GenerationSoftware,Kicad,Pcbnew,9.0.5
; #@! TF.FileFunction,Plated,1,2,PTH
FMAT,2
INCH
; #@! TA.AperFunction,Plated,PTH,ViaDrill
T1C0.0197
; #@! TA.AperFunction,Plated,PTH,ComponentDrill
T2C0.0295
; #@! TA.AperFunction,Plated,PTH,ComponentDrill
T3C0.0413
; #@! TA.AperFunction,Plated,PTH,ComponentDrill
T4C0.0709
; #@! TA.AperFunction,Plated,PTH,ComponentDrill
T5C0.0787
; #@! TA.AperFunction,Plated,PTH,ComponentDrill
T6C0.1181
; #@! TA.AperFunction,Plated,PTH,ComponentDrill
T7C0.1260
; #@! TA.AperFunction,Plated,PTH,ComponentDrill
T8C0.1791
%
G90
G05
T1
X2.1654Y-2.5591
X2.1654Y-2.7559
X2.1654Y-2.9528
X2.1654Y-4.9213
X2.1654Y-5.1181
X2.1654Y-5.315
X2.1969Y-4.6969
X2.3622Y-2.5591
X2.3622Y-2.7559
X2.3622Y-3.1496
X2.3622Y-3.3465
X2.3622Y-3.7402
X2.3622Y-5.315
X2.5591Y-2.1654
X2.5591Y-2.3622
X2.5591Y-2.5591
X2.5591Y-2.9528
X2.5591Y-3.1496
X2.5591Y-3.3465
X2.5591Y-3.5433
X2.5591Y-3.937
X2.5591Y-4.1339
X2.5591Y-4.3307
X2.5591Y-5.1181
X2.5591Y-5.5118
X2.5591Y-5.7087
X2.7559Y-2.1654
X2.7559Y-2.1654
X2.7559Y-2.1654
X2.7559Y-2.3622
X2.7559Y-3.1496
X2.7559Y-3.3465
X2.7559Y-3.7402
X2.7559Y-4.3307
X2.7559Y-4.5276
X2.7559Y-5.315
X2.9528Y-2.1654
X2.9528Y-4.5276
X2.9528Y-5.1181
X2.9528Y-5.7087
X3.1496Y-3.1496
X3.1496Y-3.3465
X3.3465Y-2.1654
X3.3465Y-2.5591
X3.3465Y-3.1496
X3.3465Y-3.5433
X3.3465Y-3.7402
X3.3465Y-4.1339
X3.3465Y-5.7087
X3.5433Y-2.1654
X3.5433Y-2.3622
X3.5433Y-2.5591
X3.5433Y-2.7559
X3.5433Y-3.1496
X3.5433Y-3.3465
X3.5433Y-3.5433
X3.5433Y-3.7402
X3.5433Y-3.937
X3.5433Y-5.1181
X3.5433Y-5.315
X3.5433Y-5.7087
X3.7402Y-2.1654
X3.7402Y-3.1496
X3.7402Y-3.5433
X3.937Y-2.3622
X3.937Y-2.5591
X3.937Y-2.7559
X3.937Y-3.1496
X3.937Y-4.3307
X3.937Y-4.9213
X3.937Y-5.1181
X3.937Y-5.315
X3.937Y-5.5118
X3.937Y-5.7087
X4.1339Y-2.3622
X4.1339Y-2.5591
X4.1339Y-2.7559
X4.1339Y-3.937
X4.1339Y-4.1339
X4.1339Y-4.7244
X4.1339Y-4.9213
X4.1339Y-5.1181
X4.1339Y-5.315
X4.3307Y-3.1496
X4.3307Y-3.7402
X4.3307Y-3.937
X4.3307Y-4.1339
X4.3307Y-5.7087
X4.5276Y-2.1654
X4.5276Y-2.3622
X4.5276Y-2.5591
X4.5276Y-3.1496
X4.5276Y-3.3465
X4.5276Y-3.5433
X4.5276Y-3.7402
X4.5276Y-3.937
X4.5276Y-4.1339
X4.5276Y-4.3307
X4.5276Y-4.7244
X4.5276Y-4.9213
X4.5276Y-5.1181
X4.5276Y-5.315
X4.5276Y-5.5118
X4.5276Y-5.7087
X4.7244Y-2.1654
X4.7244Y-3.3465
X4.7244Y-3.5433
X4.7244Y-3.7402
X4.7244Y-3.7402
X4.7244Y-3.937
X4.7244Y-4.1339
X4.7244Y-4.3307
X4.7244Y-4.7244
X4.7244Y-4.9213
X4.9213Y-2.1654
X4.9213Y-2.5591
X4.9213Y-2.9528
X4.9213Y-3.1496
X4.9213Y-3.3465
X4.9213Y-3.5433
X4.9213Y-3.7402
X4.9213Y-3.937
X4.9213Y-4.1339
X4.9213Y-4.3307
X4.9213Y-4.7244
X4.9213Y-5.7087
X5.1181Y-2.1654
X5.1181Y-2.5591
X5.1181Y-2.9528
X5.315Y-2.1654
X5.315Y-2.3622
X5.315Y-2.5591
X5.315Y-3.1496
X5.315Y-3.3465
X5.315Y-3.5433
X5.315Y-4.1339
X5.315Y-4.7244
X5.315Y-4.9213
X5.315Y-5.315
X5.315Y-5.5118
X5.315Y-5.7087
X5.5118Y-2.5591
X5.5118Y-3.1496
X5.5118Y-3.3465
X5.5118Y-3.5433
X5.5118Y-5.1181
X5.5118Y-5.315
X5.7087Y-2.5591
X5.7087Y-2.7559
X5.7087Y-2.9528
X5.7087Y-3.1496
X5.7087Y-3.3465
X5.7087Y-3.5433
X5.7087Y-3.937
X5.7087Y-5.1181
X5.7087Y-5.315
T2
X2.2441Y-3.3071
X2.2441Y-3.3858
X2.2441Y-3.4646
X2.2441Y-3.5433
X2.7362Y-2.7165
X2.7362Y-2.7953
X2.7362Y-2.874
X2.7362Y-2.9528
X3.0709Y-2.2815
X3.1102Y-2.7165
X3.1102Y-2.7953
X3.1102Y-2.874
X3.1102Y-2.9528
X3.1496Y-2.2815
X3.2283Y-2.2815
X3.3071Y-2.2815
X3.3858Y-2.2815
X3.4646Y-2.2815
X3.7795Y-2.2815
X3.8583Y-2.2815
X3.937Y-2.2815
X4.0157Y-2.2815
X4.0945Y-2.2815
X4.1732Y-2.2815
T3
X2.3228Y-3.8051
X2.3228Y-3.9051
X2.3228Y-4.0051
X2.3228Y-4.1051
X2.3228Y-4.2051
X2.3228Y-4.3051
X2.3909Y-4.6925
X2.3909Y-4.7925
X2.3909Y-4.8925
X2.3909Y-4.9925
X2.4909Y-4.6925
X2.4909Y-4.7925
X2.4909Y-4.8925
X2.4909Y-4.9925
X2.987Y-4.6213
X2.987Y-5.2213
X3.087Y-4.6213
X3.087Y-5.2213
X3.139Y-3.4689
X3.139Y-3.5689
X3.139Y-3.6689
X3.139Y-3.7689
X3.139Y-3.8689
X3.139Y-3.9689
X3.139Y-4.0689
X3.139Y-4.1689
X3.187Y-4.6213
X3.187Y-5.2213
X3.287Y-4.6213
X3.287Y-5.2213
X3.387Y-4.6213
X3.387Y-5.2213
X3.4439Y-2.7846
X3.4439Y-2.8846
X3.487Y-4.6213
X3.487Y-5.2213
X3.587Y-4.6213
X3.587Y-5.2213
X3.687Y-4.6213
X3.687Y-5.2213
X3.7083Y-3.2783
X3.787Y-4.6213
X3.787Y-5.2213
X3.8083Y-3.2783
X3.887Y-4.6213
X3.887Y-5.2213
X3.9083Y-3.2783
X3.987Y-4.6213
X3.987Y-5.2213
X4.0083Y-3.2783
X4.087Y-4.6213
X4.087Y-5.2213
X4.187Y-4.6213
X4.187Y-5.2213
X4.21Y-2.6846
X4.21Y-2.7846
X4.21Y-2.8846
X4.21Y-2.9846
X4.287Y-4.6213
X4.287Y-5.2213
X4.387Y-4.6213
X4.387Y-5.2213
X4.487Y-4.6213
X4.487Y-5.2213
X4.587Y-4.6213
X4.587Y-5.2213
X4.6102Y-3.1803
X4.6102Y-3.2803
X4.6102Y-4.0819
X4.6102Y-4.1819
X4.687Y-4.6213
X4.687Y-5.2213
X4.787Y-4.6213
X4.787Y-5.2213
X4.887Y-4.6213
X4.887Y-5.2213
X5.1535Y-3.1803
X5.1535Y-3.2803
X5.1535Y-4.0819
X5.1535Y-4.1819
X5.4709Y-3.7402
X5.5709Y-3.7402
X5.6709Y-3.7402
T4
X5.5906Y-2.7244
X5.5906Y-2.9134
X5.5906Y-3.1024
T5
X3.3996Y-3.3071
X3.3996Y-4.2441
X4.3169Y-3.3071
X4.3169Y-4.2441
T7
X2.3228Y-2.3228
X2.3228Y-5.5512
X2.6772Y-3.5126
X2.6772Y-4.1252
X5.5512Y-2.3228
X5.5512Y-5.5512
T8
X4.7402Y-2.3228
X5.0236Y-2.3228
T6
G00X4.6201Y-2.815
M15
G01X4.7776Y-2.815
M16
G05
G00X4.9862Y-2.815
M15
G01X5.1437Y-2.815
M16
G05
M30
