%TF.GenerationSoftware,KiCad,Pcbnew,9.0.5*%
%TF.CreationDate,2025-10-26T23:43:19+08:00*%
%TF.ProjectId,Self_Balancing_Car,53656c66-5f42-4616-9c61-6e63696e675f,rev?*%
%TF.SameCoordinates,Original*%
%TF.FileFunction,Soldermask,Top*%
%TF.FilePolarity,Negative*%
%FSLAX46Y46*%
G04 Gerber Fmt 4.6, Leading zero omitted, Abs format (unit mm)*
G04 Created by KiCad (PCBNEW 9.0.5) date 2025-10-26 23:43:19*
%MOMM*%
%LPD*%
G01*
G04 APERTURE LIST*
G04 Aperture macros list*
%AMRoundRect*
0 Rectangle with rounded corners*
0 $1 Rounding radius*
0 $2 $3 $4 $5 $6 $7 $8 $9 X,Y pos of 4 corners*
0 Add a 4 corners polygon primitive as box body*
4,1,4,$2,$3,$4,$5,$6,$7,$8,$9,$2,$3,0*
0 Add four circle primitives for the rounded corners*
1,1,$1+$1,$2,$3*
1,1,$1+$1,$4,$5*
1,1,$1+$1,$6,$7*
1,1,$1+$1,$8,$9*
0 Add four rect primitives between the rounded corners*
20,1,$1+$1,$2,$3,$4,$5,0*
20,1,$1+$1,$4,$5,$6,$7,0*
20,1,$1+$1,$6,$7,$8,$9,0*
20,1,$1+$1,$8,$9,$2,$3,0*%
G04 Aperture macros list end*
%ADD10RoundRect,0.250000X-0.262500X-0.450000X0.262500X-0.450000X0.262500X0.450000X-0.262500X0.450000X0*%
%ADD11RoundRect,0.243750X0.243750X0.456250X-0.243750X0.456250X-0.243750X-0.456250X0.243750X-0.456250X0*%
%ADD12RoundRect,0.375000X-0.625000X-0.375000X0.625000X-0.375000X0.625000X0.375000X-0.625000X0.375000X0*%
%ADD13RoundRect,0.250000X-0.350000X-0.625000X0.350000X-0.625000X0.350000X0.625000X-0.350000X0.625000X0*%
%ADD14O,1.200000X1.750000*%
%ADD15RoundRect,0.250000X0.625000X-0.350000X0.625000X0.350000X-0.625000X0.350000X-0.625000X-0.350000X0*%
%ADD16O,1.750000X1.200000*%
%ADD17C,5.000000*%
%ADD18R,1.800000X1.800000*%
%ADD19C,1.800000*%
%ADD20R,2.800000X2.800000*%
%ADD21C,2.800000*%
%ADD22O,8.500000X4.500000*%
%ADD23C,4.000000*%
%ADD24C,6.204000*%
%ADD25RoundRect,0.102000X-3.000000X-3.000000X3.000000X-3.000000X3.000000X3.000000X-3.000000X3.000000X0*%
%ADD26C,3.500000*%
G04 APERTURE END LIST*
D10*
%TO.C,R4*%
X143675000Y-115000000D03*
X145500000Y-115000000D03*
%TD*%
D11*
%TO.C,D5*%
X141025000Y-119000000D03*
X139150000Y-119000000D03*
%TD*%
D12*
%TO.C,SW2*%
X71500000Y-140750000D03*
X80500000Y-140750000D03*
X71500000Y-145250000D03*
X80500000Y-145250000D03*
%TD*%
D13*
%TO.C,J6*%
X78000000Y-57950000D03*
D14*
X80000000Y-57950000D03*
X82000000Y-57950000D03*
X84000000Y-57950000D03*
X86000000Y-57950000D03*
X88000000Y-57950000D03*
%TD*%
D15*
%TO.C,J10*%
X79000000Y-75000000D03*
D16*
X79000000Y-73000000D03*
X79000000Y-71000000D03*
X79000000Y-69000000D03*
%TD*%
D10*
%TO.C,R7*%
X143675000Y-127000000D03*
X145500000Y-127000000D03*
%TD*%
D17*
%TO.C,REF\u002A\u002A*%
X59000000Y-59000000D03*
%TD*%
D11*
%TO.C,D2*%
X141025000Y-107000000D03*
X139150000Y-107000000D03*
%TD*%
D18*
%TO.C,J4*%
X59000000Y-109350000D03*
D19*
X59000000Y-106810000D03*
X59000000Y-104270000D03*
X59000000Y-101730000D03*
X59000000Y-99190000D03*
X59000000Y-96650000D03*
%TD*%
D20*
%TO.C,S1*%
X142000000Y-69200000D03*
D21*
X142000000Y-74000000D03*
X142000000Y-78800000D03*
%TD*%
D10*
%TO.C,R3*%
X143675000Y-111000000D03*
X145500000Y-111000000D03*
%TD*%
D11*
%TO.C,D1*%
X141025000Y-103000000D03*
X139150000Y-103000000D03*
%TD*%
D12*
%TO.C,SW5*%
X119500000Y-140750000D03*
X128500000Y-140750000D03*
X119500000Y-145250000D03*
X128500000Y-145250000D03*
%TD*%
D11*
%TO.C,D7*%
X141025000Y-127000000D03*
X139150000Y-127000000D03*
%TD*%
D22*
%TO.C,F1*%
X119350000Y-71500000D03*
X128650000Y-71500000D03*
%TD*%
D11*
%TO.C,D4*%
X141025000Y-115000000D03*
X139150000Y-115000000D03*
%TD*%
D10*
%TO.C,R2*%
X143675000Y-107000000D03*
X145500000Y-107000000D03*
%TD*%
%TO.C,R5*%
X143675000Y-119000000D03*
X145500000Y-119000000D03*
%TD*%
%TO.C,R1*%
X143675000Y-103000000D03*
X145500000Y-103000000D03*
%TD*%
D17*
%TO.C,*%
X59000000Y-141000000D03*
%TD*%
D15*
%TO.C,J2*%
X57000000Y-90000000D03*
D16*
X57000000Y-88000000D03*
X57000000Y-86000000D03*
X57000000Y-84000000D03*
%TD*%
D17*
%TO.C,*%
X141000000Y-59000000D03*
%TD*%
D18*
%TO.C,J3*%
X63270000Y-126810000D03*
D19*
X60730000Y-126810000D03*
X63270000Y-124270000D03*
X60730000Y-124270000D03*
X63270000Y-121730000D03*
X60730000Y-121730000D03*
X63270000Y-119190000D03*
X60730000Y-119190000D03*
%TD*%
%TO.C,U6*%
X106935000Y-75810000D03*
X106935000Y-73270000D03*
X106935000Y-70730000D03*
D18*
X106935000Y-68190000D03*
X87475000Y-73270000D03*
D19*
X87475000Y-70730000D03*
%TD*%
D18*
%TO.C,U5*%
X144040000Y-95000000D03*
D19*
X141500000Y-95000000D03*
X138960000Y-95000000D03*
%TD*%
D23*
%TO.C,U4*%
X68000000Y-89220000D03*
X68000000Y-104780000D03*
D18*
X79730000Y-88110000D03*
D19*
X79730000Y-90650000D03*
X79730000Y-93190000D03*
X79730000Y-95730000D03*
X79730000Y-98270000D03*
X79730000Y-100810000D03*
X79730000Y-103350000D03*
X79730000Y-105890000D03*
%TD*%
D11*
%TO.C,D6*%
X141025000Y-123000000D03*
X139150000Y-123000000D03*
%TD*%
%TO.C,D3*%
X141025000Y-111000000D03*
X139150000Y-111000000D03*
%TD*%
D17*
%TO.C,*%
X141000000Y-141000000D03*
%TD*%
D13*
%TO.C,J7*%
X96000000Y-57950000D03*
D14*
X98000000Y-57950000D03*
X100000000Y-57950000D03*
X102000000Y-57950000D03*
X104000000Y-57950000D03*
X106000000Y-57950000D03*
%TD*%
D15*
%TO.C,J5*%
X69500000Y-75000000D03*
D16*
X69500000Y-73000000D03*
X69500000Y-71000000D03*
X69500000Y-69000000D03*
%TD*%
D19*
%TO.C,U1*%
X117100000Y-106220000D03*
X117100000Y-103680000D03*
X130900000Y-106220000D03*
X130900000Y-103680000D03*
X117100000Y-83320000D03*
X117100000Y-80780000D03*
X130900000Y-83320000D03*
X130900000Y-80780000D03*
%TD*%
D18*
%TO.C,U2*%
X124130000Y-117380000D03*
D19*
X121590000Y-117380000D03*
X119050000Y-117380000D03*
X116510000Y-117380000D03*
X113970000Y-117380000D03*
X111430000Y-117380000D03*
X108890000Y-117380000D03*
X106350000Y-117380000D03*
X103810000Y-117380000D03*
X101270000Y-117380000D03*
X98730000Y-117380000D03*
X96190000Y-117380000D03*
X93650000Y-117380000D03*
X91110000Y-117380000D03*
X88570000Y-117380000D03*
X86030000Y-117380000D03*
X83490000Y-117380000D03*
X80950000Y-117380000D03*
X78410000Y-117380000D03*
X75870000Y-117380000D03*
X124130000Y-132620000D03*
X121590000Y-132620000D03*
X119050000Y-132620000D03*
X116510000Y-132620000D03*
X113970000Y-132620000D03*
X111430000Y-132620000D03*
X108890000Y-132620000D03*
X106350000Y-132620000D03*
X103810000Y-132620000D03*
X101270000Y-132620000D03*
X98730000Y-132620000D03*
X96190000Y-132620000D03*
X93650000Y-132620000D03*
X91110000Y-132620000D03*
X88570000Y-132620000D03*
X86030000Y-132620000D03*
X83490000Y-132620000D03*
X80950000Y-132620000D03*
X78410000Y-132620000D03*
X75870000Y-132620000D03*
%TD*%
D12*
%TO.C,SW3*%
X87500000Y-140750000D03*
X96500000Y-140750000D03*
X87500000Y-145250000D03*
X96500000Y-145250000D03*
%TD*%
%TO.C,SW4*%
X103500000Y-140750000D03*
X112500000Y-140750000D03*
X103500000Y-145250000D03*
X112500000Y-145250000D03*
%TD*%
D24*
%TO.C,J1*%
X127600000Y-59000000D03*
D25*
X120400000Y-59000000D03*
%TD*%
D10*
%TO.C,R6*%
X143675000Y-123000000D03*
X145500000Y-123000000D03*
%TD*%
D26*
%TO.C,U3*%
X86350000Y-84000000D03*
X86350000Y-107800000D03*
X109650000Y-84000000D03*
X109650000Y-107800000D03*
D18*
X94190000Y-83270000D03*
D19*
X96730000Y-83270000D03*
X99270000Y-83270000D03*
X101810000Y-83270000D03*
%TD*%
M02*
