%TF.GenerationSoftware,KiCad,Pcbnew,9.0.5*%
%TF.CreationDate,2025-10-26T23:43:19+08:00*%
%TF.ProjectId,Self_Balancing_Car,53656c66-5f42-4616-9c61-6e63696e675f,rev?*%
%TF.SameCoordinates,Original*%
%TF.FileFunction,Legend,Top*%
%TF.FilePolarity,Positive*%
%FSLAX46Y46*%
G04 Gerber Fmt 4.6, Leading zero omitted, Abs format (unit mm)*
G04 Created by KiCad (PCBNEW 9.0.5) date 2025-10-26 23:43:19*
%MOMM*%
%LPD*%
G01*
G04 APERTURE LIST*
%ADD10C,0.300000*%
%ADD11C,0.100000*%
%ADD12C,0.150000*%
%ADD13C,0.120000*%
%ADD14C,0.127000*%
G04 APERTURE END LIST*
D10*
X53483082Y-71314484D02*
X53697368Y-71385912D01*
X53697368Y-71385912D02*
X54054510Y-71385912D01*
X54054510Y-71385912D02*
X54197368Y-71314484D01*
X54197368Y-71314484D02*
X54268796Y-71243055D01*
X54268796Y-71243055D02*
X54340225Y-71100198D01*
X54340225Y-71100198D02*
X54340225Y-70957341D01*
X54340225Y-70957341D02*
X54268796Y-70814484D01*
X54268796Y-70814484D02*
X54197368Y-70743055D01*
X54197368Y-70743055D02*
X54054510Y-70671626D01*
X54054510Y-70671626D02*
X53768796Y-70600198D01*
X53768796Y-70600198D02*
X53625939Y-70528769D01*
X53625939Y-70528769D02*
X53554510Y-70457341D01*
X53554510Y-70457341D02*
X53483082Y-70314484D01*
X53483082Y-70314484D02*
X53483082Y-70171626D01*
X53483082Y-70171626D02*
X53554510Y-70028769D01*
X53554510Y-70028769D02*
X53625939Y-69957341D01*
X53625939Y-69957341D02*
X53768796Y-69885912D01*
X53768796Y-69885912D02*
X54125939Y-69885912D01*
X54125939Y-69885912D02*
X54340225Y-69957341D01*
X55483081Y-70600198D02*
X55697367Y-70671626D01*
X55697367Y-70671626D02*
X55768796Y-70743055D01*
X55768796Y-70743055D02*
X55840224Y-70885912D01*
X55840224Y-70885912D02*
X55840224Y-71100198D01*
X55840224Y-71100198D02*
X55768796Y-71243055D01*
X55768796Y-71243055D02*
X55697367Y-71314484D01*
X55697367Y-71314484D02*
X55554510Y-71385912D01*
X55554510Y-71385912D02*
X54983081Y-71385912D01*
X54983081Y-71385912D02*
X54983081Y-69885912D01*
X54983081Y-69885912D02*
X55483081Y-69885912D01*
X55483081Y-69885912D02*
X55625939Y-69957341D01*
X55625939Y-69957341D02*
X55697367Y-70028769D01*
X55697367Y-70028769D02*
X55768796Y-70171626D01*
X55768796Y-70171626D02*
X55768796Y-70314484D01*
X55768796Y-70314484D02*
X55697367Y-70457341D01*
X55697367Y-70457341D02*
X55625939Y-70528769D01*
X55625939Y-70528769D02*
X55483081Y-70600198D01*
X55483081Y-70600198D02*
X54983081Y-70600198D01*
X57340224Y-71243055D02*
X57268796Y-71314484D01*
X57268796Y-71314484D02*
X57054510Y-71385912D01*
X57054510Y-71385912D02*
X56911653Y-71385912D01*
X56911653Y-71385912D02*
X56697367Y-71314484D01*
X56697367Y-71314484D02*
X56554510Y-71171626D01*
X56554510Y-71171626D02*
X56483081Y-71028769D01*
X56483081Y-71028769D02*
X56411653Y-70743055D01*
X56411653Y-70743055D02*
X56411653Y-70528769D01*
X56411653Y-70528769D02*
X56483081Y-70243055D01*
X56483081Y-70243055D02*
X56554510Y-70100198D01*
X56554510Y-70100198D02*
X56697367Y-69957341D01*
X56697367Y-69957341D02*
X56911653Y-69885912D01*
X56911653Y-69885912D02*
X57054510Y-69885912D01*
X57054510Y-69885912D02*
X57268796Y-69957341D01*
X57268796Y-69957341D02*
X57340224Y-70028769D01*
X53554510Y-73800828D02*
X53554510Y-72300828D01*
X53554510Y-72300828D02*
X54054510Y-73372257D01*
X54054510Y-73372257D02*
X54554510Y-72300828D01*
X54554510Y-72300828D02*
X54554510Y-73800828D01*
X55911654Y-73800828D02*
X55911654Y-73015114D01*
X55911654Y-73015114D02*
X55840225Y-72872257D01*
X55840225Y-72872257D02*
X55697368Y-72800828D01*
X55697368Y-72800828D02*
X55411654Y-72800828D01*
X55411654Y-72800828D02*
X55268796Y-72872257D01*
X55911654Y-73729400D02*
X55768796Y-73800828D01*
X55768796Y-73800828D02*
X55411654Y-73800828D01*
X55411654Y-73800828D02*
X55268796Y-73729400D01*
X55268796Y-73729400D02*
X55197368Y-73586542D01*
X55197368Y-73586542D02*
X55197368Y-73443685D01*
X55197368Y-73443685D02*
X55268796Y-73300828D01*
X55268796Y-73300828D02*
X55411654Y-73229400D01*
X55411654Y-73229400D02*
X55768796Y-73229400D01*
X55768796Y-73229400D02*
X55911654Y-73157971D01*
X56625939Y-73800828D02*
X56625939Y-72800828D01*
X56625939Y-72300828D02*
X56554511Y-72372257D01*
X56554511Y-72372257D02*
X56625939Y-72443685D01*
X56625939Y-72443685D02*
X56697368Y-72372257D01*
X56697368Y-72372257D02*
X56625939Y-72300828D01*
X56625939Y-72300828D02*
X56625939Y-72443685D01*
X57340225Y-72800828D02*
X57340225Y-73800828D01*
X57340225Y-72943685D02*
X57411654Y-72872257D01*
X57411654Y-72872257D02*
X57554511Y-72800828D01*
X57554511Y-72800828D02*
X57768797Y-72800828D01*
X57768797Y-72800828D02*
X57911654Y-72872257D01*
X57911654Y-72872257D02*
X57983083Y-73015114D01*
X57983083Y-73015114D02*
X57983083Y-73800828D01*
X59197368Y-73015114D02*
X59411654Y-73086542D01*
X59411654Y-73086542D02*
X59483083Y-73157971D01*
X59483083Y-73157971D02*
X59554511Y-73300828D01*
X59554511Y-73300828D02*
X59554511Y-73515114D01*
X59554511Y-73515114D02*
X59483083Y-73657971D01*
X59483083Y-73657971D02*
X59411654Y-73729400D01*
X59411654Y-73729400D02*
X59268797Y-73800828D01*
X59268797Y-73800828D02*
X58697368Y-73800828D01*
X58697368Y-73800828D02*
X58697368Y-72300828D01*
X58697368Y-72300828D02*
X59197368Y-72300828D01*
X59197368Y-72300828D02*
X59340226Y-72372257D01*
X59340226Y-72372257D02*
X59411654Y-72443685D01*
X59411654Y-72443685D02*
X59483083Y-72586542D01*
X59483083Y-72586542D02*
X59483083Y-72729400D01*
X59483083Y-72729400D02*
X59411654Y-72872257D01*
X59411654Y-72872257D02*
X59340226Y-72943685D01*
X59340226Y-72943685D02*
X59197368Y-73015114D01*
X59197368Y-73015114D02*
X58697368Y-73015114D01*
X60411654Y-73800828D02*
X60268797Y-73729400D01*
X60268797Y-73729400D02*
X60197368Y-73657971D01*
X60197368Y-73657971D02*
X60125940Y-73515114D01*
X60125940Y-73515114D02*
X60125940Y-73086542D01*
X60125940Y-73086542D02*
X60197368Y-72943685D01*
X60197368Y-72943685D02*
X60268797Y-72872257D01*
X60268797Y-72872257D02*
X60411654Y-72800828D01*
X60411654Y-72800828D02*
X60625940Y-72800828D01*
X60625940Y-72800828D02*
X60768797Y-72872257D01*
X60768797Y-72872257D02*
X60840226Y-72943685D01*
X60840226Y-72943685D02*
X60911654Y-73086542D01*
X60911654Y-73086542D02*
X60911654Y-73515114D01*
X60911654Y-73515114D02*
X60840226Y-73657971D01*
X60840226Y-73657971D02*
X60768797Y-73729400D01*
X60768797Y-73729400D02*
X60625940Y-73800828D01*
X60625940Y-73800828D02*
X60411654Y-73800828D01*
X62197369Y-73800828D02*
X62197369Y-73015114D01*
X62197369Y-73015114D02*
X62125940Y-72872257D01*
X62125940Y-72872257D02*
X61983083Y-72800828D01*
X61983083Y-72800828D02*
X61697369Y-72800828D01*
X61697369Y-72800828D02*
X61554511Y-72872257D01*
X62197369Y-73729400D02*
X62054511Y-73800828D01*
X62054511Y-73800828D02*
X61697369Y-73800828D01*
X61697369Y-73800828D02*
X61554511Y-73729400D01*
X61554511Y-73729400D02*
X61483083Y-73586542D01*
X61483083Y-73586542D02*
X61483083Y-73443685D01*
X61483083Y-73443685D02*
X61554511Y-73300828D01*
X61554511Y-73300828D02*
X61697369Y-73229400D01*
X61697369Y-73229400D02*
X62054511Y-73229400D01*
X62054511Y-73229400D02*
X62197369Y-73157971D01*
X62911654Y-73800828D02*
X62911654Y-72800828D01*
X62911654Y-73086542D02*
X62983083Y-72943685D01*
X62983083Y-72943685D02*
X63054512Y-72872257D01*
X63054512Y-72872257D02*
X63197369Y-72800828D01*
X63197369Y-72800828D02*
X63340226Y-72800828D01*
X64483083Y-73800828D02*
X64483083Y-72300828D01*
X64483083Y-73729400D02*
X64340225Y-73800828D01*
X64340225Y-73800828D02*
X64054511Y-73800828D01*
X64054511Y-73800828D02*
X63911654Y-73729400D01*
X63911654Y-73729400D02*
X63840225Y-73657971D01*
X63840225Y-73657971D02*
X63768797Y-73515114D01*
X63768797Y-73515114D02*
X63768797Y-73086542D01*
X63768797Y-73086542D02*
X63840225Y-72943685D01*
X63840225Y-72943685D02*
X63911654Y-72872257D01*
X63911654Y-72872257D02*
X64054511Y-72800828D01*
X64054511Y-72800828D02*
X64340225Y-72800828D01*
X64340225Y-72800828D02*
X64483083Y-72872257D01*
D11*
X79000000Y-80500000D02*
X69500000Y-80500000D01*
X79000000Y-78000000D02*
X79000000Y-80500000D01*
X69500000Y-78000000D02*
X69500000Y-80500000D01*
X135911027Y-110372419D02*
X136244360Y-111372419D01*
X136244360Y-111372419D02*
X136577693Y-110372419D01*
X136911027Y-111372419D02*
X136911027Y-110372419D01*
X137387217Y-111372419D02*
X137387217Y-110372419D01*
X137387217Y-110372419D02*
X137958645Y-111372419D01*
X137958645Y-111372419D02*
X137958645Y-110372419D01*
X135280074Y-127372419D02*
X134803884Y-127372419D01*
X134803884Y-127372419D02*
X134803884Y-126372419D01*
X135613408Y-126848609D02*
X135946741Y-126848609D01*
X136089598Y-127372419D02*
X135613408Y-127372419D01*
X135613408Y-127372419D02*
X135613408Y-126372419D01*
X135613408Y-126372419D02*
X136089598Y-126372419D01*
X136518170Y-127372419D02*
X136518170Y-126372419D01*
X136518170Y-126372419D02*
X136756265Y-126372419D01*
X136756265Y-126372419D02*
X136899122Y-126420038D01*
X136899122Y-126420038D02*
X136994360Y-126515276D01*
X136994360Y-126515276D02*
X137041979Y-126610514D01*
X137041979Y-126610514D02*
X137089598Y-126800990D01*
X137089598Y-126800990D02*
X137089598Y-126943847D01*
X137089598Y-126943847D02*
X137041979Y-127134323D01*
X137041979Y-127134323D02*
X136994360Y-127229561D01*
X136994360Y-127229561D02*
X136899122Y-127324800D01*
X136899122Y-127324800D02*
X136756265Y-127372419D01*
X136756265Y-127372419D02*
X136518170Y-127372419D01*
X137946741Y-126705752D02*
X137946741Y-127372419D01*
X137708646Y-126324800D02*
X137470551Y-127039085D01*
X137470551Y-127039085D02*
X138089598Y-127039085D01*
X90303884Y-147872419D02*
X90303884Y-146872419D01*
X90875312Y-147872419D02*
X90446741Y-147300990D01*
X90875312Y-146872419D02*
X90303884Y-147443847D01*
X91303884Y-147348609D02*
X91637217Y-147348609D01*
X91780074Y-147872419D02*
X91303884Y-147872419D01*
X91303884Y-147872419D02*
X91303884Y-146872419D01*
X91303884Y-146872419D02*
X91780074Y-146872419D01*
X92399122Y-147396228D02*
X92399122Y-147872419D01*
X92065789Y-146872419D02*
X92399122Y-147396228D01*
X92399122Y-147396228D02*
X92732455Y-146872419D01*
X93018170Y-146967657D02*
X93065789Y-146920038D01*
X93065789Y-146920038D02*
X93161027Y-146872419D01*
X93161027Y-146872419D02*
X93399122Y-146872419D01*
X93399122Y-146872419D02*
X93494360Y-146920038D01*
X93494360Y-146920038D02*
X93541979Y-146967657D01*
X93541979Y-146967657D02*
X93589598Y-147062895D01*
X93589598Y-147062895D02*
X93589598Y-147158133D01*
X93589598Y-147158133D02*
X93541979Y-147300990D01*
X93541979Y-147300990D02*
X92970551Y-147872419D01*
X92970551Y-147872419D02*
X93589598Y-147872419D01*
X132208646Y-92872419D02*
X132827693Y-92872419D01*
X132827693Y-92872419D02*
X132494360Y-93253371D01*
X132494360Y-93253371D02*
X132637217Y-93253371D01*
X132637217Y-93253371D02*
X132732455Y-93300990D01*
X132732455Y-93300990D02*
X132780074Y-93348609D01*
X132780074Y-93348609D02*
X132827693Y-93443847D01*
X132827693Y-93443847D02*
X132827693Y-93681942D01*
X132827693Y-93681942D02*
X132780074Y-93777180D01*
X132780074Y-93777180D02*
X132732455Y-93824800D01*
X132732455Y-93824800D02*
X132637217Y-93872419D01*
X132637217Y-93872419D02*
X132351503Y-93872419D01*
X132351503Y-93872419D02*
X132256265Y-93824800D01*
X132256265Y-93824800D02*
X132208646Y-93777180D01*
X133113408Y-92872419D02*
X133446741Y-93872419D01*
X133446741Y-93872419D02*
X133780074Y-92872419D01*
X134018170Y-92872419D02*
X134637217Y-92872419D01*
X134637217Y-92872419D02*
X134303884Y-93253371D01*
X134303884Y-93253371D02*
X134446741Y-93253371D01*
X134446741Y-93253371D02*
X134541979Y-93300990D01*
X134541979Y-93300990D02*
X134589598Y-93348609D01*
X134589598Y-93348609D02*
X134637217Y-93443847D01*
X134637217Y-93443847D02*
X134637217Y-93681942D01*
X134637217Y-93681942D02*
X134589598Y-93777180D01*
X134589598Y-93777180D02*
X134541979Y-93824800D01*
X134541979Y-93824800D02*
X134446741Y-93872419D01*
X134446741Y-93872419D02*
X134161027Y-93872419D01*
X134161027Y-93872419D02*
X134065789Y-93824800D01*
X134065789Y-93824800D02*
X134018170Y-93777180D01*
X137030074Y-106372419D02*
X136553884Y-106372419D01*
X136553884Y-106372419D02*
X136506265Y-106848609D01*
X136506265Y-106848609D02*
X136553884Y-106800990D01*
X136553884Y-106800990D02*
X136649122Y-106753371D01*
X136649122Y-106753371D02*
X136887217Y-106753371D01*
X136887217Y-106753371D02*
X136982455Y-106800990D01*
X136982455Y-106800990D02*
X137030074Y-106848609D01*
X137030074Y-106848609D02*
X137077693Y-106943847D01*
X137077693Y-106943847D02*
X137077693Y-107181942D01*
X137077693Y-107181942D02*
X137030074Y-107277180D01*
X137030074Y-107277180D02*
X136982455Y-107324800D01*
X136982455Y-107324800D02*
X136887217Y-107372419D01*
X136887217Y-107372419D02*
X136649122Y-107372419D01*
X136649122Y-107372419D02*
X136553884Y-107324800D01*
X136553884Y-107324800D02*
X136506265Y-107277180D01*
X137363408Y-106372419D02*
X137696741Y-107372419D01*
X137696741Y-107372419D02*
X138030074Y-106372419D01*
X79203884Y-62098609D02*
X79537217Y-62098609D01*
X79680074Y-62622419D02*
X79203884Y-62622419D01*
X79203884Y-62622419D02*
X79203884Y-61622419D01*
X79203884Y-61622419D02*
X79680074Y-61622419D01*
X80108646Y-62622419D02*
X80108646Y-61622419D01*
X80108646Y-61622419D02*
X80680074Y-62622419D01*
X80680074Y-62622419D02*
X80680074Y-61622419D01*
X81727693Y-62527180D02*
X81680074Y-62574800D01*
X81680074Y-62574800D02*
X81537217Y-62622419D01*
X81537217Y-62622419D02*
X81441979Y-62622419D01*
X81441979Y-62622419D02*
X81299122Y-62574800D01*
X81299122Y-62574800D02*
X81203884Y-62479561D01*
X81203884Y-62479561D02*
X81156265Y-62384323D01*
X81156265Y-62384323D02*
X81108646Y-62193847D01*
X81108646Y-62193847D02*
X81108646Y-62050990D01*
X81108646Y-62050990D02*
X81156265Y-61860514D01*
X81156265Y-61860514D02*
X81203884Y-61765276D01*
X81203884Y-61765276D02*
X81299122Y-61670038D01*
X81299122Y-61670038D02*
X81441979Y-61622419D01*
X81441979Y-61622419D02*
X81537217Y-61622419D01*
X81537217Y-61622419D02*
X81680074Y-61670038D01*
X81680074Y-61670038D02*
X81727693Y-61717657D01*
X82346741Y-61622419D02*
X82537217Y-61622419D01*
X82537217Y-61622419D02*
X82632455Y-61670038D01*
X82632455Y-61670038D02*
X82727693Y-61765276D01*
X82727693Y-61765276D02*
X82775312Y-61955752D01*
X82775312Y-61955752D02*
X82775312Y-62289085D01*
X82775312Y-62289085D02*
X82727693Y-62479561D01*
X82727693Y-62479561D02*
X82632455Y-62574800D01*
X82632455Y-62574800D02*
X82537217Y-62622419D01*
X82537217Y-62622419D02*
X82346741Y-62622419D01*
X82346741Y-62622419D02*
X82251503Y-62574800D01*
X82251503Y-62574800D02*
X82156265Y-62479561D01*
X82156265Y-62479561D02*
X82108646Y-62289085D01*
X82108646Y-62289085D02*
X82108646Y-61955752D01*
X82108646Y-61955752D02*
X82156265Y-61765276D01*
X82156265Y-61765276D02*
X82251503Y-61670038D01*
X82251503Y-61670038D02*
X82346741Y-61622419D01*
X83203884Y-62622419D02*
X83203884Y-61622419D01*
X83203884Y-61622419D02*
X83441979Y-61622419D01*
X83441979Y-61622419D02*
X83584836Y-61670038D01*
X83584836Y-61670038D02*
X83680074Y-61765276D01*
X83680074Y-61765276D02*
X83727693Y-61860514D01*
X83727693Y-61860514D02*
X83775312Y-62050990D01*
X83775312Y-62050990D02*
X83775312Y-62193847D01*
X83775312Y-62193847D02*
X83727693Y-62384323D01*
X83727693Y-62384323D02*
X83680074Y-62479561D01*
X83680074Y-62479561D02*
X83584836Y-62574800D01*
X83584836Y-62574800D02*
X83441979Y-62622419D01*
X83441979Y-62622419D02*
X83203884Y-62622419D01*
X84203884Y-62098609D02*
X84537217Y-62098609D01*
X84680074Y-62622419D02*
X84203884Y-62622419D01*
X84203884Y-62622419D02*
X84203884Y-61622419D01*
X84203884Y-61622419D02*
X84680074Y-61622419D01*
X85680074Y-62622419D02*
X85346741Y-62146228D01*
X85108646Y-62622419D02*
X85108646Y-61622419D01*
X85108646Y-61622419D02*
X85489598Y-61622419D01*
X85489598Y-61622419D02*
X85584836Y-61670038D01*
X85584836Y-61670038D02*
X85632455Y-61717657D01*
X85632455Y-61717657D02*
X85680074Y-61812895D01*
X85680074Y-61812895D02*
X85680074Y-61955752D01*
X85680074Y-61955752D02*
X85632455Y-62050990D01*
X85632455Y-62050990D02*
X85584836Y-62098609D01*
X85584836Y-62098609D02*
X85489598Y-62146228D01*
X85489598Y-62146228D02*
X85108646Y-62146228D01*
X86632455Y-62622419D02*
X86061027Y-62622419D01*
X86346741Y-62622419D02*
X86346741Y-61622419D01*
X86346741Y-61622419D02*
X86251503Y-61765276D01*
X86251503Y-61765276D02*
X86156265Y-61860514D01*
X86156265Y-61860514D02*
X86061027Y-61908133D01*
X122303884Y-147872419D02*
X122303884Y-146872419D01*
X122875312Y-147872419D02*
X122446741Y-147300990D01*
X122875312Y-146872419D02*
X122303884Y-147443847D01*
X123303884Y-147348609D02*
X123637217Y-147348609D01*
X123780074Y-147872419D02*
X123303884Y-147872419D01*
X123303884Y-147872419D02*
X123303884Y-146872419D01*
X123303884Y-146872419D02*
X123780074Y-146872419D01*
X124399122Y-147396228D02*
X124399122Y-147872419D01*
X124065789Y-146872419D02*
X124399122Y-147396228D01*
X124399122Y-147396228D02*
X124732455Y-146872419D01*
X125494360Y-147205752D02*
X125494360Y-147872419D01*
X125256265Y-146824800D02*
X125018170Y-147539085D01*
X125018170Y-147539085D02*
X125637217Y-147539085D01*
X74303884Y-147872419D02*
X74303884Y-146872419D01*
X74875312Y-147872419D02*
X74446741Y-147300990D01*
X74875312Y-146872419D02*
X74303884Y-147443847D01*
X75303884Y-147348609D02*
X75637217Y-147348609D01*
X75780074Y-147872419D02*
X75303884Y-147872419D01*
X75303884Y-147872419D02*
X75303884Y-146872419D01*
X75303884Y-146872419D02*
X75780074Y-146872419D01*
X76399122Y-147396228D02*
X76399122Y-147872419D01*
X76065789Y-146872419D02*
X76399122Y-147396228D01*
X76399122Y-147396228D02*
X76732455Y-146872419D01*
X77589598Y-147872419D02*
X77018170Y-147872419D01*
X77303884Y-147872419D02*
X77303884Y-146872419D01*
X77303884Y-146872419D02*
X77208646Y-147015276D01*
X77208646Y-147015276D02*
X77113408Y-147110514D01*
X77113408Y-147110514D02*
X77018170Y-147158133D01*
X135280074Y-115372419D02*
X134803884Y-115372419D01*
X134803884Y-115372419D02*
X134803884Y-114372419D01*
X135613408Y-114848609D02*
X135946741Y-114848609D01*
X136089598Y-115372419D02*
X135613408Y-115372419D01*
X135613408Y-115372419D02*
X135613408Y-114372419D01*
X135613408Y-114372419D02*
X136089598Y-114372419D01*
X136518170Y-115372419D02*
X136518170Y-114372419D01*
X136518170Y-114372419D02*
X136756265Y-114372419D01*
X136756265Y-114372419D02*
X136899122Y-114420038D01*
X136899122Y-114420038D02*
X136994360Y-114515276D01*
X136994360Y-114515276D02*
X137041979Y-114610514D01*
X137041979Y-114610514D02*
X137089598Y-114800990D01*
X137089598Y-114800990D02*
X137089598Y-114943847D01*
X137089598Y-114943847D02*
X137041979Y-115134323D01*
X137041979Y-115134323D02*
X136994360Y-115229561D01*
X136994360Y-115229561D02*
X136899122Y-115324800D01*
X136899122Y-115324800D02*
X136756265Y-115372419D01*
X136756265Y-115372419D02*
X136518170Y-115372419D01*
X138041979Y-115372419D02*
X137470551Y-115372419D01*
X137756265Y-115372419D02*
X137756265Y-114372419D01*
X137756265Y-114372419D02*
X137661027Y-114515276D01*
X137661027Y-114515276D02*
X137565789Y-114610514D01*
X137565789Y-114610514D02*
X137470551Y-114658133D01*
X97303884Y-62098609D02*
X97637217Y-62098609D01*
X97780074Y-62622419D02*
X97303884Y-62622419D01*
X97303884Y-62622419D02*
X97303884Y-61622419D01*
X97303884Y-61622419D02*
X97780074Y-61622419D01*
X98208646Y-62622419D02*
X98208646Y-61622419D01*
X98208646Y-61622419D02*
X98780074Y-62622419D01*
X98780074Y-62622419D02*
X98780074Y-61622419D01*
X99827693Y-62527180D02*
X99780074Y-62574800D01*
X99780074Y-62574800D02*
X99637217Y-62622419D01*
X99637217Y-62622419D02*
X99541979Y-62622419D01*
X99541979Y-62622419D02*
X99399122Y-62574800D01*
X99399122Y-62574800D02*
X99303884Y-62479561D01*
X99303884Y-62479561D02*
X99256265Y-62384323D01*
X99256265Y-62384323D02*
X99208646Y-62193847D01*
X99208646Y-62193847D02*
X99208646Y-62050990D01*
X99208646Y-62050990D02*
X99256265Y-61860514D01*
X99256265Y-61860514D02*
X99303884Y-61765276D01*
X99303884Y-61765276D02*
X99399122Y-61670038D01*
X99399122Y-61670038D02*
X99541979Y-61622419D01*
X99541979Y-61622419D02*
X99637217Y-61622419D01*
X99637217Y-61622419D02*
X99780074Y-61670038D01*
X99780074Y-61670038D02*
X99827693Y-61717657D01*
X100446741Y-61622419D02*
X100637217Y-61622419D01*
X100637217Y-61622419D02*
X100732455Y-61670038D01*
X100732455Y-61670038D02*
X100827693Y-61765276D01*
X100827693Y-61765276D02*
X100875312Y-61955752D01*
X100875312Y-61955752D02*
X100875312Y-62289085D01*
X100875312Y-62289085D02*
X100827693Y-62479561D01*
X100827693Y-62479561D02*
X100732455Y-62574800D01*
X100732455Y-62574800D02*
X100637217Y-62622419D01*
X100637217Y-62622419D02*
X100446741Y-62622419D01*
X100446741Y-62622419D02*
X100351503Y-62574800D01*
X100351503Y-62574800D02*
X100256265Y-62479561D01*
X100256265Y-62479561D02*
X100208646Y-62289085D01*
X100208646Y-62289085D02*
X100208646Y-61955752D01*
X100208646Y-61955752D02*
X100256265Y-61765276D01*
X100256265Y-61765276D02*
X100351503Y-61670038D01*
X100351503Y-61670038D02*
X100446741Y-61622419D01*
X101303884Y-62622419D02*
X101303884Y-61622419D01*
X101303884Y-61622419D02*
X101541979Y-61622419D01*
X101541979Y-61622419D02*
X101684836Y-61670038D01*
X101684836Y-61670038D02*
X101780074Y-61765276D01*
X101780074Y-61765276D02*
X101827693Y-61860514D01*
X101827693Y-61860514D02*
X101875312Y-62050990D01*
X101875312Y-62050990D02*
X101875312Y-62193847D01*
X101875312Y-62193847D02*
X101827693Y-62384323D01*
X101827693Y-62384323D02*
X101780074Y-62479561D01*
X101780074Y-62479561D02*
X101684836Y-62574800D01*
X101684836Y-62574800D02*
X101541979Y-62622419D01*
X101541979Y-62622419D02*
X101303884Y-62622419D01*
X102303884Y-62098609D02*
X102637217Y-62098609D01*
X102780074Y-62622419D02*
X102303884Y-62622419D01*
X102303884Y-62622419D02*
X102303884Y-61622419D01*
X102303884Y-61622419D02*
X102780074Y-61622419D01*
X103780074Y-62622419D02*
X103446741Y-62146228D01*
X103208646Y-62622419D02*
X103208646Y-61622419D01*
X103208646Y-61622419D02*
X103589598Y-61622419D01*
X103589598Y-61622419D02*
X103684836Y-61670038D01*
X103684836Y-61670038D02*
X103732455Y-61717657D01*
X103732455Y-61717657D02*
X103780074Y-61812895D01*
X103780074Y-61812895D02*
X103780074Y-61955752D01*
X103780074Y-61955752D02*
X103732455Y-62050990D01*
X103732455Y-62050990D02*
X103684836Y-62098609D01*
X103684836Y-62098609D02*
X103589598Y-62146228D01*
X103589598Y-62146228D02*
X103208646Y-62146228D01*
X104161027Y-61717657D02*
X104208646Y-61670038D01*
X104208646Y-61670038D02*
X104303884Y-61622419D01*
X104303884Y-61622419D02*
X104541979Y-61622419D01*
X104541979Y-61622419D02*
X104637217Y-61670038D01*
X104637217Y-61670038D02*
X104684836Y-61717657D01*
X104684836Y-61717657D02*
X104732455Y-61812895D01*
X104732455Y-61812895D02*
X104732455Y-61908133D01*
X104732455Y-61908133D02*
X104684836Y-62050990D01*
X104684836Y-62050990D02*
X104113408Y-62622419D01*
X104113408Y-62622419D02*
X104732455Y-62622419D01*
X135708646Y-102372419D02*
X136327693Y-102372419D01*
X136327693Y-102372419D02*
X135994360Y-102753371D01*
X135994360Y-102753371D02*
X136137217Y-102753371D01*
X136137217Y-102753371D02*
X136232455Y-102800990D01*
X136232455Y-102800990D02*
X136280074Y-102848609D01*
X136280074Y-102848609D02*
X136327693Y-102943847D01*
X136327693Y-102943847D02*
X136327693Y-103181942D01*
X136327693Y-103181942D02*
X136280074Y-103277180D01*
X136280074Y-103277180D02*
X136232455Y-103324800D01*
X136232455Y-103324800D02*
X136137217Y-103372419D01*
X136137217Y-103372419D02*
X135851503Y-103372419D01*
X135851503Y-103372419D02*
X135756265Y-103324800D01*
X135756265Y-103324800D02*
X135708646Y-103277180D01*
X136613408Y-102372419D02*
X136946741Y-103372419D01*
X136946741Y-103372419D02*
X137280074Y-102372419D01*
X137518170Y-102372419D02*
X138137217Y-102372419D01*
X138137217Y-102372419D02*
X137803884Y-102753371D01*
X137803884Y-102753371D02*
X137946741Y-102753371D01*
X137946741Y-102753371D02*
X138041979Y-102800990D01*
X138041979Y-102800990D02*
X138089598Y-102848609D01*
X138089598Y-102848609D02*
X138137217Y-102943847D01*
X138137217Y-102943847D02*
X138137217Y-103181942D01*
X138137217Y-103181942D02*
X138089598Y-103277180D01*
X138089598Y-103277180D02*
X138041979Y-103324800D01*
X138041979Y-103324800D02*
X137946741Y-103372419D01*
X137946741Y-103372419D02*
X137661027Y-103372419D01*
X137661027Y-103372419D02*
X137565789Y-103324800D01*
X137565789Y-103324800D02*
X137518170Y-103277180D01*
X73625312Y-81777180D02*
X73577693Y-81824800D01*
X73577693Y-81824800D02*
X73434836Y-81872419D01*
X73434836Y-81872419D02*
X73339598Y-81872419D01*
X73339598Y-81872419D02*
X73196741Y-81824800D01*
X73196741Y-81824800D02*
X73101503Y-81729561D01*
X73101503Y-81729561D02*
X73053884Y-81634323D01*
X73053884Y-81634323D02*
X73006265Y-81443847D01*
X73006265Y-81443847D02*
X73006265Y-81300990D01*
X73006265Y-81300990D02*
X73053884Y-81110514D01*
X73053884Y-81110514D02*
X73101503Y-81015276D01*
X73101503Y-81015276D02*
X73196741Y-80920038D01*
X73196741Y-80920038D02*
X73339598Y-80872419D01*
X73339598Y-80872419D02*
X73434836Y-80872419D01*
X73434836Y-80872419D02*
X73577693Y-80920038D01*
X73577693Y-80920038D02*
X73625312Y-80967657D01*
X74006265Y-81586704D02*
X74482455Y-81586704D01*
X73911027Y-81872419D02*
X74244360Y-80872419D01*
X74244360Y-80872419D02*
X74577693Y-81872419D01*
X74911027Y-81872419D02*
X74911027Y-80872419D01*
X74911027Y-80872419D02*
X75482455Y-81872419D01*
X75482455Y-81872419D02*
X75482455Y-80872419D01*
X135280074Y-119372419D02*
X134803884Y-119372419D01*
X134803884Y-119372419D02*
X134803884Y-118372419D01*
X135613408Y-118848609D02*
X135946741Y-118848609D01*
X136089598Y-119372419D02*
X135613408Y-119372419D01*
X135613408Y-119372419D02*
X135613408Y-118372419D01*
X135613408Y-118372419D02*
X136089598Y-118372419D01*
X136518170Y-119372419D02*
X136518170Y-118372419D01*
X136518170Y-118372419D02*
X136756265Y-118372419D01*
X136756265Y-118372419D02*
X136899122Y-118420038D01*
X136899122Y-118420038D02*
X136994360Y-118515276D01*
X136994360Y-118515276D02*
X137041979Y-118610514D01*
X137041979Y-118610514D02*
X137089598Y-118800990D01*
X137089598Y-118800990D02*
X137089598Y-118943847D01*
X137089598Y-118943847D02*
X137041979Y-119134323D01*
X137041979Y-119134323D02*
X136994360Y-119229561D01*
X136994360Y-119229561D02*
X136899122Y-119324800D01*
X136899122Y-119324800D02*
X136756265Y-119372419D01*
X136756265Y-119372419D02*
X136518170Y-119372419D01*
X137470551Y-118467657D02*
X137518170Y-118420038D01*
X137518170Y-118420038D02*
X137613408Y-118372419D01*
X137613408Y-118372419D02*
X137851503Y-118372419D01*
X137851503Y-118372419D02*
X137946741Y-118420038D01*
X137946741Y-118420038D02*
X137994360Y-118467657D01*
X137994360Y-118467657D02*
X138041979Y-118562895D01*
X138041979Y-118562895D02*
X138041979Y-118658133D01*
X138041979Y-118658133D02*
X137994360Y-118800990D01*
X137994360Y-118800990D02*
X137422932Y-119372419D01*
X137422932Y-119372419D02*
X138041979Y-119372419D01*
X106303884Y-147872419D02*
X106303884Y-146872419D01*
X106875312Y-147872419D02*
X106446741Y-147300990D01*
X106875312Y-146872419D02*
X106303884Y-147443847D01*
X107303884Y-147348609D02*
X107637217Y-147348609D01*
X107780074Y-147872419D02*
X107303884Y-147872419D01*
X107303884Y-147872419D02*
X107303884Y-146872419D01*
X107303884Y-146872419D02*
X107780074Y-146872419D01*
X108399122Y-147396228D02*
X108399122Y-147872419D01*
X108065789Y-146872419D02*
X108399122Y-147396228D01*
X108399122Y-147396228D02*
X108732455Y-146872419D01*
X108970551Y-146872419D02*
X109589598Y-146872419D01*
X109589598Y-146872419D02*
X109256265Y-147253371D01*
X109256265Y-147253371D02*
X109399122Y-147253371D01*
X109399122Y-147253371D02*
X109494360Y-147300990D01*
X109494360Y-147300990D02*
X109541979Y-147348609D01*
X109541979Y-147348609D02*
X109589598Y-147443847D01*
X109589598Y-147443847D02*
X109589598Y-147681942D01*
X109589598Y-147681942D02*
X109541979Y-147777180D01*
X109541979Y-147777180D02*
X109494360Y-147824800D01*
X109494360Y-147824800D02*
X109399122Y-147872419D01*
X109399122Y-147872419D02*
X109113408Y-147872419D01*
X109113408Y-147872419D02*
X109018170Y-147824800D01*
X109018170Y-147824800D02*
X108970551Y-147777180D01*
X60622419Y-89196115D02*
X61431942Y-89196115D01*
X61431942Y-89196115D02*
X61527180Y-89148496D01*
X61527180Y-89148496D02*
X61574800Y-89100877D01*
X61574800Y-89100877D02*
X61622419Y-89005639D01*
X61622419Y-89005639D02*
X61622419Y-88815163D01*
X61622419Y-88815163D02*
X61574800Y-88719925D01*
X61574800Y-88719925D02*
X61527180Y-88672306D01*
X61527180Y-88672306D02*
X61431942Y-88624687D01*
X61431942Y-88624687D02*
X60622419Y-88624687D01*
X61336704Y-88196115D02*
X61336704Y-87719925D01*
X61622419Y-88291353D02*
X60622419Y-87958020D01*
X60622419Y-87958020D02*
X61622419Y-87624687D01*
X61622419Y-86719925D02*
X61146228Y-87053258D01*
X61622419Y-87291353D02*
X60622419Y-87291353D01*
X60622419Y-87291353D02*
X60622419Y-86910401D01*
X60622419Y-86910401D02*
X60670038Y-86815163D01*
X60670038Y-86815163D02*
X60717657Y-86767544D01*
X60717657Y-86767544D02*
X60812895Y-86719925D01*
X60812895Y-86719925D02*
X60955752Y-86719925D01*
X60955752Y-86719925D02*
X61050990Y-86767544D01*
X61050990Y-86767544D02*
X61098609Y-86815163D01*
X61098609Y-86815163D02*
X61146228Y-86910401D01*
X61146228Y-86910401D02*
X61146228Y-87291353D01*
X60622419Y-86434210D02*
X60622419Y-85862782D01*
X61622419Y-86148496D02*
X60622419Y-86148496D01*
X60717657Y-85577067D02*
X60670038Y-85529448D01*
X60670038Y-85529448D02*
X60622419Y-85434210D01*
X60622419Y-85434210D02*
X60622419Y-85196115D01*
X60622419Y-85196115D02*
X60670038Y-85100877D01*
X60670038Y-85100877D02*
X60717657Y-85053258D01*
X60717657Y-85053258D02*
X60812895Y-85005639D01*
X60812895Y-85005639D02*
X60908133Y-85005639D01*
X60908133Y-85005639D02*
X61050990Y-85053258D01*
X61050990Y-85053258D02*
X61622419Y-85624686D01*
X61622419Y-85624686D02*
X61622419Y-85005639D01*
X135280074Y-123372419D02*
X134803884Y-123372419D01*
X134803884Y-123372419D02*
X134803884Y-122372419D01*
X135613408Y-122848609D02*
X135946741Y-122848609D01*
X136089598Y-123372419D02*
X135613408Y-123372419D01*
X135613408Y-123372419D02*
X135613408Y-122372419D01*
X135613408Y-122372419D02*
X136089598Y-122372419D01*
X136518170Y-123372419D02*
X136518170Y-122372419D01*
X136518170Y-122372419D02*
X136756265Y-122372419D01*
X136756265Y-122372419D02*
X136899122Y-122420038D01*
X136899122Y-122420038D02*
X136994360Y-122515276D01*
X136994360Y-122515276D02*
X137041979Y-122610514D01*
X137041979Y-122610514D02*
X137089598Y-122800990D01*
X137089598Y-122800990D02*
X137089598Y-122943847D01*
X137089598Y-122943847D02*
X137041979Y-123134323D01*
X137041979Y-123134323D02*
X136994360Y-123229561D01*
X136994360Y-123229561D02*
X136899122Y-123324800D01*
X136899122Y-123324800D02*
X136756265Y-123372419D01*
X136756265Y-123372419D02*
X136518170Y-123372419D01*
X137422932Y-122372419D02*
X138041979Y-122372419D01*
X138041979Y-122372419D02*
X137708646Y-122753371D01*
X137708646Y-122753371D02*
X137851503Y-122753371D01*
X137851503Y-122753371D02*
X137946741Y-122800990D01*
X137946741Y-122800990D02*
X137994360Y-122848609D01*
X137994360Y-122848609D02*
X138041979Y-122943847D01*
X138041979Y-122943847D02*
X138041979Y-123181942D01*
X138041979Y-123181942D02*
X137994360Y-123277180D01*
X137994360Y-123277180D02*
X137946741Y-123324800D01*
X137946741Y-123324800D02*
X137851503Y-123372419D01*
X137851503Y-123372419D02*
X137565789Y-123372419D01*
X137565789Y-123372419D02*
X137470551Y-123324800D01*
X137470551Y-123324800D02*
X137422932Y-123277180D01*
D12*
X144420833Y-113804819D02*
X144087500Y-113328628D01*
X143849405Y-113804819D02*
X143849405Y-112804819D01*
X143849405Y-112804819D02*
X144230357Y-112804819D01*
X144230357Y-112804819D02*
X144325595Y-112852438D01*
X144325595Y-112852438D02*
X144373214Y-112900057D01*
X144373214Y-112900057D02*
X144420833Y-112995295D01*
X144420833Y-112995295D02*
X144420833Y-113138152D01*
X144420833Y-113138152D02*
X144373214Y-113233390D01*
X144373214Y-113233390D02*
X144325595Y-113281009D01*
X144325595Y-113281009D02*
X144230357Y-113328628D01*
X144230357Y-113328628D02*
X143849405Y-113328628D01*
X145277976Y-113138152D02*
X145277976Y-113804819D01*
X145039881Y-112757200D02*
X144801786Y-113471485D01*
X144801786Y-113471485D02*
X145420833Y-113471485D01*
X139349405Y-121104819D02*
X139349405Y-120104819D01*
X139349405Y-120104819D02*
X139587500Y-120104819D01*
X139587500Y-120104819D02*
X139730357Y-120152438D01*
X139730357Y-120152438D02*
X139825595Y-120247676D01*
X139825595Y-120247676D02*
X139873214Y-120342914D01*
X139873214Y-120342914D02*
X139920833Y-120533390D01*
X139920833Y-120533390D02*
X139920833Y-120676247D01*
X139920833Y-120676247D02*
X139873214Y-120866723D01*
X139873214Y-120866723D02*
X139825595Y-120961961D01*
X139825595Y-120961961D02*
X139730357Y-121057200D01*
X139730357Y-121057200D02*
X139587500Y-121104819D01*
X139587500Y-121104819D02*
X139349405Y-121104819D01*
X140825595Y-120104819D02*
X140349405Y-120104819D01*
X140349405Y-120104819D02*
X140301786Y-120581009D01*
X140301786Y-120581009D02*
X140349405Y-120533390D01*
X140349405Y-120533390D02*
X140444643Y-120485771D01*
X140444643Y-120485771D02*
X140682738Y-120485771D01*
X140682738Y-120485771D02*
X140777976Y-120533390D01*
X140777976Y-120533390D02*
X140825595Y-120581009D01*
X140825595Y-120581009D02*
X140873214Y-120676247D01*
X140873214Y-120676247D02*
X140873214Y-120914342D01*
X140873214Y-120914342D02*
X140825595Y-121009580D01*
X140825595Y-121009580D02*
X140777976Y-121057200D01*
X140777976Y-121057200D02*
X140682738Y-121104819D01*
X140682738Y-121104819D02*
X140444643Y-121104819D01*
X140444643Y-121104819D02*
X140349405Y-121057200D01*
X140349405Y-121057200D02*
X140301786Y-121009580D01*
D11*
X74666667Y-139409800D02*
X74809524Y-139457419D01*
X74809524Y-139457419D02*
X75047619Y-139457419D01*
X75047619Y-139457419D02*
X75142857Y-139409800D01*
X75142857Y-139409800D02*
X75190476Y-139362180D01*
X75190476Y-139362180D02*
X75238095Y-139266942D01*
X75238095Y-139266942D02*
X75238095Y-139171704D01*
X75238095Y-139171704D02*
X75190476Y-139076466D01*
X75190476Y-139076466D02*
X75142857Y-139028847D01*
X75142857Y-139028847D02*
X75047619Y-138981228D01*
X75047619Y-138981228D02*
X74857143Y-138933609D01*
X74857143Y-138933609D02*
X74761905Y-138885990D01*
X74761905Y-138885990D02*
X74714286Y-138838371D01*
X74714286Y-138838371D02*
X74666667Y-138743133D01*
X74666667Y-138743133D02*
X74666667Y-138647895D01*
X74666667Y-138647895D02*
X74714286Y-138552657D01*
X74714286Y-138552657D02*
X74761905Y-138505038D01*
X74761905Y-138505038D02*
X74857143Y-138457419D01*
X74857143Y-138457419D02*
X75095238Y-138457419D01*
X75095238Y-138457419D02*
X75238095Y-138505038D01*
X75571429Y-138457419D02*
X75809524Y-139457419D01*
X75809524Y-139457419D02*
X76000000Y-138743133D01*
X76000000Y-138743133D02*
X76190476Y-139457419D01*
X76190476Y-139457419D02*
X76428572Y-138457419D01*
X76761905Y-138552657D02*
X76809524Y-138505038D01*
X76809524Y-138505038D02*
X76904762Y-138457419D01*
X76904762Y-138457419D02*
X77142857Y-138457419D01*
X77142857Y-138457419D02*
X77238095Y-138505038D01*
X77238095Y-138505038D02*
X77285714Y-138552657D01*
X77285714Y-138552657D02*
X77333333Y-138647895D01*
X77333333Y-138647895D02*
X77333333Y-138743133D01*
X77333333Y-138743133D02*
X77285714Y-138885990D01*
X77285714Y-138885990D02*
X76714286Y-139457419D01*
X76714286Y-139457419D02*
X77333333Y-139457419D01*
D12*
X82666666Y-54504819D02*
X82666666Y-55219104D01*
X82666666Y-55219104D02*
X82619047Y-55361961D01*
X82619047Y-55361961D02*
X82523809Y-55457200D01*
X82523809Y-55457200D02*
X82380952Y-55504819D01*
X82380952Y-55504819D02*
X82285714Y-55504819D01*
X83571428Y-54504819D02*
X83380952Y-54504819D01*
X83380952Y-54504819D02*
X83285714Y-54552438D01*
X83285714Y-54552438D02*
X83238095Y-54600057D01*
X83238095Y-54600057D02*
X83142857Y-54742914D01*
X83142857Y-54742914D02*
X83095238Y-54933390D01*
X83095238Y-54933390D02*
X83095238Y-55314342D01*
X83095238Y-55314342D02*
X83142857Y-55409580D01*
X83142857Y-55409580D02*
X83190476Y-55457200D01*
X83190476Y-55457200D02*
X83285714Y-55504819D01*
X83285714Y-55504819D02*
X83476190Y-55504819D01*
X83476190Y-55504819D02*
X83571428Y-55457200D01*
X83571428Y-55457200D02*
X83619047Y-55409580D01*
X83619047Y-55409580D02*
X83666666Y-55314342D01*
X83666666Y-55314342D02*
X83666666Y-55076247D01*
X83666666Y-55076247D02*
X83619047Y-54981009D01*
X83619047Y-54981009D02*
X83571428Y-54933390D01*
X83571428Y-54933390D02*
X83476190Y-54885771D01*
X83476190Y-54885771D02*
X83285714Y-54885771D01*
X83285714Y-54885771D02*
X83190476Y-54933390D01*
X83190476Y-54933390D02*
X83142857Y-54981009D01*
X83142857Y-54981009D02*
X83095238Y-55076247D01*
X75554819Y-72809523D02*
X76269104Y-72809523D01*
X76269104Y-72809523D02*
X76411961Y-72857142D01*
X76411961Y-72857142D02*
X76507200Y-72952380D01*
X76507200Y-72952380D02*
X76554819Y-73095237D01*
X76554819Y-73095237D02*
X76554819Y-73190475D01*
X76554819Y-71809523D02*
X76554819Y-72380951D01*
X76554819Y-72095237D02*
X75554819Y-72095237D01*
X75554819Y-72095237D02*
X75697676Y-72190475D01*
X75697676Y-72190475D02*
X75792914Y-72285713D01*
X75792914Y-72285713D02*
X75840533Y-72380951D01*
X75554819Y-71190475D02*
X75554819Y-71095237D01*
X75554819Y-71095237D02*
X75602438Y-70999999D01*
X75602438Y-70999999D02*
X75650057Y-70952380D01*
X75650057Y-70952380D02*
X75745295Y-70904761D01*
X75745295Y-70904761D02*
X75935771Y-70857142D01*
X75935771Y-70857142D02*
X76173866Y-70857142D01*
X76173866Y-70857142D02*
X76364342Y-70904761D01*
X76364342Y-70904761D02*
X76459580Y-70952380D01*
X76459580Y-70952380D02*
X76507200Y-70999999D01*
X76507200Y-70999999D02*
X76554819Y-71095237D01*
X76554819Y-71095237D02*
X76554819Y-71190475D01*
X76554819Y-71190475D02*
X76507200Y-71285713D01*
X76507200Y-71285713D02*
X76459580Y-71333332D01*
X76459580Y-71333332D02*
X76364342Y-71380951D01*
X76364342Y-71380951D02*
X76173866Y-71428570D01*
X76173866Y-71428570D02*
X75935771Y-71428570D01*
X75935771Y-71428570D02*
X75745295Y-71380951D01*
X75745295Y-71380951D02*
X75650057Y-71333332D01*
X75650057Y-71333332D02*
X75602438Y-71285713D01*
X75602438Y-71285713D02*
X75554819Y-71190475D01*
X144420833Y-125804819D02*
X144087500Y-125328628D01*
X143849405Y-125804819D02*
X143849405Y-124804819D01*
X143849405Y-124804819D02*
X144230357Y-124804819D01*
X144230357Y-124804819D02*
X144325595Y-124852438D01*
X144325595Y-124852438D02*
X144373214Y-124900057D01*
X144373214Y-124900057D02*
X144420833Y-124995295D01*
X144420833Y-124995295D02*
X144420833Y-125138152D01*
X144420833Y-125138152D02*
X144373214Y-125233390D01*
X144373214Y-125233390D02*
X144325595Y-125281009D01*
X144325595Y-125281009D02*
X144230357Y-125328628D01*
X144230357Y-125328628D02*
X143849405Y-125328628D01*
X144754167Y-124804819D02*
X145420833Y-124804819D01*
X145420833Y-124804819D02*
X144992262Y-125804819D01*
X139349405Y-109104819D02*
X139349405Y-108104819D01*
X139349405Y-108104819D02*
X139587500Y-108104819D01*
X139587500Y-108104819D02*
X139730357Y-108152438D01*
X139730357Y-108152438D02*
X139825595Y-108247676D01*
X139825595Y-108247676D02*
X139873214Y-108342914D01*
X139873214Y-108342914D02*
X139920833Y-108533390D01*
X139920833Y-108533390D02*
X139920833Y-108676247D01*
X139920833Y-108676247D02*
X139873214Y-108866723D01*
X139873214Y-108866723D02*
X139825595Y-108961961D01*
X139825595Y-108961961D02*
X139730357Y-109057200D01*
X139730357Y-109057200D02*
X139587500Y-109104819D01*
X139587500Y-109104819D02*
X139349405Y-109104819D01*
X140301786Y-108200057D02*
X140349405Y-108152438D01*
X140349405Y-108152438D02*
X140444643Y-108104819D01*
X140444643Y-108104819D02*
X140682738Y-108104819D01*
X140682738Y-108104819D02*
X140777976Y-108152438D01*
X140777976Y-108152438D02*
X140825595Y-108200057D01*
X140825595Y-108200057D02*
X140873214Y-108295295D01*
X140873214Y-108295295D02*
X140873214Y-108390533D01*
X140873214Y-108390533D02*
X140825595Y-108533390D01*
X140825595Y-108533390D02*
X140254167Y-109104819D01*
X140254167Y-109104819D02*
X140873214Y-109104819D01*
D11*
X60707419Y-103333333D02*
X61421704Y-103333333D01*
X61421704Y-103333333D02*
X61564561Y-103380952D01*
X61564561Y-103380952D02*
X61659800Y-103476190D01*
X61659800Y-103476190D02*
X61707419Y-103619047D01*
X61707419Y-103619047D02*
X61707419Y-103714285D01*
X61040752Y-102428571D02*
X61707419Y-102428571D01*
X60659800Y-102666666D02*
X61374085Y-102904761D01*
X61374085Y-102904761D02*
X61374085Y-102285714D01*
X54350884Y-97157419D02*
X54350884Y-96157419D01*
X54922312Y-97157419D02*
X54493741Y-96585990D01*
X54922312Y-96157419D02*
X54350884Y-96728847D01*
X55350884Y-96633609D02*
X55684217Y-96633609D01*
X55827074Y-97157419D02*
X55350884Y-97157419D01*
X55350884Y-97157419D02*
X55350884Y-96157419D01*
X55350884Y-96157419D02*
X55827074Y-96157419D01*
X56446122Y-96681228D02*
X56446122Y-97157419D01*
X56112789Y-96157419D02*
X56446122Y-96681228D01*
X56446122Y-96681228D02*
X56779455Y-96157419D01*
X54208027Y-98697419D02*
X54541360Y-99697419D01*
X54541360Y-99697419D02*
X54874693Y-98697419D01*
X55779455Y-99602180D02*
X55731836Y-99649800D01*
X55731836Y-99649800D02*
X55588979Y-99697419D01*
X55588979Y-99697419D02*
X55493741Y-99697419D01*
X55493741Y-99697419D02*
X55350884Y-99649800D01*
X55350884Y-99649800D02*
X55255646Y-99554561D01*
X55255646Y-99554561D02*
X55208027Y-99459323D01*
X55208027Y-99459323D02*
X55160408Y-99268847D01*
X55160408Y-99268847D02*
X55160408Y-99125990D01*
X55160408Y-99125990D02*
X55208027Y-98935514D01*
X55208027Y-98935514D02*
X55255646Y-98840276D01*
X55255646Y-98840276D02*
X55350884Y-98745038D01*
X55350884Y-98745038D02*
X55493741Y-98697419D01*
X55493741Y-98697419D02*
X55588979Y-98697419D01*
X55588979Y-98697419D02*
X55731836Y-98745038D01*
X55731836Y-98745038D02*
X55779455Y-98792657D01*
X56779455Y-99602180D02*
X56731836Y-99649800D01*
X56731836Y-99649800D02*
X56588979Y-99697419D01*
X56588979Y-99697419D02*
X56493741Y-99697419D01*
X56493741Y-99697419D02*
X56350884Y-99649800D01*
X56350884Y-99649800D02*
X56255646Y-99554561D01*
X56255646Y-99554561D02*
X56208027Y-99459323D01*
X56208027Y-99459323D02*
X56160408Y-99268847D01*
X56160408Y-99268847D02*
X56160408Y-99125990D01*
X56160408Y-99125990D02*
X56208027Y-98935514D01*
X56208027Y-98935514D02*
X56255646Y-98840276D01*
X56255646Y-98840276D02*
X56350884Y-98745038D01*
X56350884Y-98745038D02*
X56493741Y-98697419D01*
X56493741Y-98697419D02*
X56588979Y-98697419D01*
X56588979Y-98697419D02*
X56731836Y-98745038D01*
X56731836Y-98745038D02*
X56779455Y-98792657D01*
X54922312Y-107317419D02*
X54588979Y-106841228D01*
X54350884Y-107317419D02*
X54350884Y-106317419D01*
X54350884Y-106317419D02*
X54731836Y-106317419D01*
X54731836Y-106317419D02*
X54827074Y-106365038D01*
X54827074Y-106365038D02*
X54874693Y-106412657D01*
X54874693Y-106412657D02*
X54922312Y-106507895D01*
X54922312Y-106507895D02*
X54922312Y-106650752D01*
X54922312Y-106650752D02*
X54874693Y-106745990D01*
X54874693Y-106745990D02*
X54827074Y-106793609D01*
X54827074Y-106793609D02*
X54731836Y-106841228D01*
X54731836Y-106841228D02*
X54350884Y-106841228D01*
X55255646Y-106317419D02*
X55922312Y-107317419D01*
X55922312Y-106317419D02*
X55255646Y-107317419D01*
X56303265Y-107317419D02*
X56303265Y-106317419D01*
X56303265Y-106317419D02*
X56541360Y-106317419D01*
X56541360Y-106317419D02*
X56684217Y-106365038D01*
X56684217Y-106365038D02*
X56779455Y-106460276D01*
X56779455Y-106460276D02*
X56827074Y-106555514D01*
X56827074Y-106555514D02*
X56874693Y-106745990D01*
X56874693Y-106745990D02*
X56874693Y-106888847D01*
X56874693Y-106888847D02*
X56827074Y-107079323D01*
X56827074Y-107079323D02*
X56779455Y-107174561D01*
X56779455Y-107174561D02*
X56684217Y-107269800D01*
X56684217Y-107269800D02*
X56541360Y-107317419D01*
X56541360Y-107317419D02*
X56303265Y-107317419D01*
X54747693Y-101285038D02*
X54652455Y-101237419D01*
X54652455Y-101237419D02*
X54509598Y-101237419D01*
X54509598Y-101237419D02*
X54366741Y-101285038D01*
X54366741Y-101285038D02*
X54271503Y-101380276D01*
X54271503Y-101380276D02*
X54223884Y-101475514D01*
X54223884Y-101475514D02*
X54176265Y-101665990D01*
X54176265Y-101665990D02*
X54176265Y-101808847D01*
X54176265Y-101808847D02*
X54223884Y-101999323D01*
X54223884Y-101999323D02*
X54271503Y-102094561D01*
X54271503Y-102094561D02*
X54366741Y-102189800D01*
X54366741Y-102189800D02*
X54509598Y-102237419D01*
X54509598Y-102237419D02*
X54604836Y-102237419D01*
X54604836Y-102237419D02*
X54747693Y-102189800D01*
X54747693Y-102189800D02*
X54795312Y-102142180D01*
X54795312Y-102142180D02*
X54795312Y-101808847D01*
X54795312Y-101808847D02*
X54604836Y-101808847D01*
X55223884Y-102237419D02*
X55223884Y-101237419D01*
X55223884Y-101237419D02*
X55795312Y-102237419D01*
X55795312Y-102237419D02*
X55795312Y-101237419D01*
X56271503Y-102237419D02*
X56271503Y-101237419D01*
X56271503Y-101237419D02*
X56509598Y-101237419D01*
X56509598Y-101237419D02*
X56652455Y-101285038D01*
X56652455Y-101285038D02*
X56747693Y-101380276D01*
X56747693Y-101380276D02*
X56795312Y-101475514D01*
X56795312Y-101475514D02*
X56842931Y-101665990D01*
X56842931Y-101665990D02*
X56842931Y-101808847D01*
X56842931Y-101808847D02*
X56795312Y-101999323D01*
X56795312Y-101999323D02*
X56747693Y-102094561D01*
X56747693Y-102094561D02*
X56652455Y-102189800D01*
X56652455Y-102189800D02*
X56509598Y-102237419D01*
X56509598Y-102237419D02*
X56271503Y-102237419D01*
X54462027Y-103777419D02*
X55033455Y-103777419D01*
X54747741Y-104777419D02*
X54747741Y-103777419D01*
X55271551Y-103777419D02*
X55938217Y-104777419D01*
X55938217Y-103777419D02*
X55271551Y-104777419D01*
X56319170Y-104777419D02*
X56319170Y-103777419D01*
X56319170Y-103777419D02*
X56557265Y-103777419D01*
X56557265Y-103777419D02*
X56700122Y-103825038D01*
X56700122Y-103825038D02*
X56795360Y-103920276D01*
X56795360Y-103920276D02*
X56842979Y-104015514D01*
X56842979Y-104015514D02*
X56890598Y-104205990D01*
X56890598Y-104205990D02*
X56890598Y-104348847D01*
X56890598Y-104348847D02*
X56842979Y-104539323D01*
X56842979Y-104539323D02*
X56795360Y-104634561D01*
X56795360Y-104634561D02*
X56700122Y-104729800D01*
X56700122Y-104729800D02*
X56557265Y-104777419D01*
X56557265Y-104777419D02*
X56319170Y-104777419D01*
X53033265Y-109809800D02*
X53176122Y-109857419D01*
X53176122Y-109857419D02*
X53414217Y-109857419D01*
X53414217Y-109857419D02*
X53509455Y-109809800D01*
X53509455Y-109809800D02*
X53557074Y-109762180D01*
X53557074Y-109762180D02*
X53604693Y-109666942D01*
X53604693Y-109666942D02*
X53604693Y-109571704D01*
X53604693Y-109571704D02*
X53557074Y-109476466D01*
X53557074Y-109476466D02*
X53509455Y-109428847D01*
X53509455Y-109428847D02*
X53414217Y-109381228D01*
X53414217Y-109381228D02*
X53223741Y-109333609D01*
X53223741Y-109333609D02*
X53128503Y-109285990D01*
X53128503Y-109285990D02*
X53080884Y-109238371D01*
X53080884Y-109238371D02*
X53033265Y-109143133D01*
X53033265Y-109143133D02*
X53033265Y-109047895D01*
X53033265Y-109047895D02*
X53080884Y-108952657D01*
X53080884Y-108952657D02*
X53128503Y-108905038D01*
X53128503Y-108905038D02*
X53223741Y-108857419D01*
X53223741Y-108857419D02*
X53461836Y-108857419D01*
X53461836Y-108857419D02*
X53604693Y-108905038D01*
X53890408Y-108857419D02*
X54461836Y-108857419D01*
X54176122Y-109857419D02*
X54176122Y-108857419D01*
X54747551Y-109571704D02*
X55223741Y-109571704D01*
X54652313Y-109857419D02*
X54985646Y-108857419D01*
X54985646Y-108857419D02*
X55318979Y-109857419D01*
X55509456Y-108857419D02*
X56080884Y-108857419D01*
X55795170Y-109857419D02*
X55795170Y-108857419D01*
X56414218Y-109333609D02*
X56747551Y-109333609D01*
X56890408Y-109857419D02*
X56414218Y-109857419D01*
X56414218Y-109857419D02*
X56414218Y-108857419D01*
X56414218Y-108857419D02*
X56890408Y-108857419D01*
X137145200Y-73238095D02*
X137097580Y-73380952D01*
X137097580Y-73380952D02*
X137097580Y-73619047D01*
X137097580Y-73619047D02*
X137145200Y-73714285D01*
X137145200Y-73714285D02*
X137192819Y-73761904D01*
X137192819Y-73761904D02*
X137288057Y-73809523D01*
X137288057Y-73809523D02*
X137383295Y-73809523D01*
X137383295Y-73809523D02*
X137478533Y-73761904D01*
X137478533Y-73761904D02*
X137526152Y-73714285D01*
X137526152Y-73714285D02*
X137573771Y-73619047D01*
X137573771Y-73619047D02*
X137621390Y-73428571D01*
X137621390Y-73428571D02*
X137669009Y-73333333D01*
X137669009Y-73333333D02*
X137716628Y-73285714D01*
X137716628Y-73285714D02*
X137811866Y-73238095D01*
X137811866Y-73238095D02*
X137907104Y-73238095D01*
X137907104Y-73238095D02*
X138002342Y-73285714D01*
X138002342Y-73285714D02*
X138049961Y-73333333D01*
X138049961Y-73333333D02*
X138097580Y-73428571D01*
X138097580Y-73428571D02*
X138097580Y-73666666D01*
X138097580Y-73666666D02*
X138049961Y-73809523D01*
X137097580Y-74761904D02*
X137097580Y-74190476D01*
X137097580Y-74476190D02*
X138097580Y-74476190D01*
X138097580Y-74476190D02*
X137954723Y-74380952D01*
X137954723Y-74380952D02*
X137859485Y-74285714D01*
X137859485Y-74285714D02*
X137811866Y-74190476D01*
X146937580Y-77669360D02*
X146937580Y-77859836D01*
X146937580Y-77859836D02*
X146889961Y-77955074D01*
X146889961Y-77955074D02*
X146794723Y-78050312D01*
X146794723Y-78050312D02*
X146604247Y-78097931D01*
X146604247Y-78097931D02*
X146270914Y-78097931D01*
X146270914Y-78097931D02*
X146080438Y-78050312D01*
X146080438Y-78050312D02*
X145985200Y-77955074D01*
X145985200Y-77955074D02*
X145937580Y-77859836D01*
X145937580Y-77859836D02*
X145937580Y-77669360D01*
X145937580Y-77669360D02*
X145985200Y-77574122D01*
X145985200Y-77574122D02*
X146080438Y-77478884D01*
X146080438Y-77478884D02*
X146270914Y-77431265D01*
X146270914Y-77431265D02*
X146604247Y-77431265D01*
X146604247Y-77431265D02*
X146794723Y-77478884D01*
X146794723Y-77478884D02*
X146889961Y-77574122D01*
X146889961Y-77574122D02*
X146937580Y-77669360D01*
X146461390Y-78859836D02*
X146461390Y-78526503D01*
X145937580Y-78526503D02*
X146937580Y-78526503D01*
X146937580Y-78526503D02*
X146937580Y-79002693D01*
X146461390Y-79716979D02*
X146461390Y-79383646D01*
X145937580Y-79383646D02*
X146937580Y-79383646D01*
X146937580Y-79383646D02*
X146937580Y-79859836D01*
X146937580Y-68779360D02*
X146937580Y-68969836D01*
X146937580Y-68969836D02*
X146889961Y-69065074D01*
X146889961Y-69065074D02*
X146794723Y-69160312D01*
X146794723Y-69160312D02*
X146604247Y-69207931D01*
X146604247Y-69207931D02*
X146270914Y-69207931D01*
X146270914Y-69207931D02*
X146080438Y-69160312D01*
X146080438Y-69160312D02*
X145985200Y-69065074D01*
X145985200Y-69065074D02*
X145937580Y-68969836D01*
X145937580Y-68969836D02*
X145937580Y-68779360D01*
X145937580Y-68779360D02*
X145985200Y-68684122D01*
X145985200Y-68684122D02*
X146080438Y-68588884D01*
X146080438Y-68588884D02*
X146270914Y-68541265D01*
X146270914Y-68541265D02*
X146604247Y-68541265D01*
X146604247Y-68541265D02*
X146794723Y-68588884D01*
X146794723Y-68588884D02*
X146889961Y-68684122D01*
X146889961Y-68684122D02*
X146937580Y-68779360D01*
X145937580Y-69636503D02*
X146937580Y-69636503D01*
X146937580Y-69636503D02*
X145937580Y-70207931D01*
X145937580Y-70207931D02*
X146937580Y-70207931D01*
D12*
X144420833Y-109804819D02*
X144087500Y-109328628D01*
X143849405Y-109804819D02*
X143849405Y-108804819D01*
X143849405Y-108804819D02*
X144230357Y-108804819D01*
X144230357Y-108804819D02*
X144325595Y-108852438D01*
X144325595Y-108852438D02*
X144373214Y-108900057D01*
X144373214Y-108900057D02*
X144420833Y-108995295D01*
X144420833Y-108995295D02*
X144420833Y-109138152D01*
X144420833Y-109138152D02*
X144373214Y-109233390D01*
X144373214Y-109233390D02*
X144325595Y-109281009D01*
X144325595Y-109281009D02*
X144230357Y-109328628D01*
X144230357Y-109328628D02*
X143849405Y-109328628D01*
X144754167Y-108804819D02*
X145373214Y-108804819D01*
X145373214Y-108804819D02*
X145039881Y-109185771D01*
X145039881Y-109185771D02*
X145182738Y-109185771D01*
X145182738Y-109185771D02*
X145277976Y-109233390D01*
X145277976Y-109233390D02*
X145325595Y-109281009D01*
X145325595Y-109281009D02*
X145373214Y-109376247D01*
X145373214Y-109376247D02*
X145373214Y-109614342D01*
X145373214Y-109614342D02*
X145325595Y-109709580D01*
X145325595Y-109709580D02*
X145277976Y-109757200D01*
X145277976Y-109757200D02*
X145182738Y-109804819D01*
X145182738Y-109804819D02*
X144897024Y-109804819D01*
X144897024Y-109804819D02*
X144801786Y-109757200D01*
X144801786Y-109757200D02*
X144754167Y-109709580D01*
X139349405Y-105104819D02*
X139349405Y-104104819D01*
X139349405Y-104104819D02*
X139587500Y-104104819D01*
X139587500Y-104104819D02*
X139730357Y-104152438D01*
X139730357Y-104152438D02*
X139825595Y-104247676D01*
X139825595Y-104247676D02*
X139873214Y-104342914D01*
X139873214Y-104342914D02*
X139920833Y-104533390D01*
X139920833Y-104533390D02*
X139920833Y-104676247D01*
X139920833Y-104676247D02*
X139873214Y-104866723D01*
X139873214Y-104866723D02*
X139825595Y-104961961D01*
X139825595Y-104961961D02*
X139730357Y-105057200D01*
X139730357Y-105057200D02*
X139587500Y-105104819D01*
X139587500Y-105104819D02*
X139349405Y-105104819D01*
X140873214Y-105104819D02*
X140301786Y-105104819D01*
X140587500Y-105104819D02*
X140587500Y-104104819D01*
X140587500Y-104104819D02*
X140492262Y-104247676D01*
X140492262Y-104247676D02*
X140397024Y-104342914D01*
X140397024Y-104342914D02*
X140301786Y-104390533D01*
D11*
X122666667Y-139409800D02*
X122809524Y-139457419D01*
X122809524Y-139457419D02*
X123047619Y-139457419D01*
X123047619Y-139457419D02*
X123142857Y-139409800D01*
X123142857Y-139409800D02*
X123190476Y-139362180D01*
X123190476Y-139362180D02*
X123238095Y-139266942D01*
X123238095Y-139266942D02*
X123238095Y-139171704D01*
X123238095Y-139171704D02*
X123190476Y-139076466D01*
X123190476Y-139076466D02*
X123142857Y-139028847D01*
X123142857Y-139028847D02*
X123047619Y-138981228D01*
X123047619Y-138981228D02*
X122857143Y-138933609D01*
X122857143Y-138933609D02*
X122761905Y-138885990D01*
X122761905Y-138885990D02*
X122714286Y-138838371D01*
X122714286Y-138838371D02*
X122666667Y-138743133D01*
X122666667Y-138743133D02*
X122666667Y-138647895D01*
X122666667Y-138647895D02*
X122714286Y-138552657D01*
X122714286Y-138552657D02*
X122761905Y-138505038D01*
X122761905Y-138505038D02*
X122857143Y-138457419D01*
X122857143Y-138457419D02*
X123095238Y-138457419D01*
X123095238Y-138457419D02*
X123238095Y-138505038D01*
X123571429Y-138457419D02*
X123809524Y-139457419D01*
X123809524Y-139457419D02*
X124000000Y-138743133D01*
X124000000Y-138743133D02*
X124190476Y-139457419D01*
X124190476Y-139457419D02*
X124428572Y-138457419D01*
X125285714Y-138457419D02*
X124809524Y-138457419D01*
X124809524Y-138457419D02*
X124761905Y-138933609D01*
X124761905Y-138933609D02*
X124809524Y-138885990D01*
X124809524Y-138885990D02*
X124904762Y-138838371D01*
X124904762Y-138838371D02*
X125142857Y-138838371D01*
X125142857Y-138838371D02*
X125238095Y-138885990D01*
X125238095Y-138885990D02*
X125285714Y-138933609D01*
X125285714Y-138933609D02*
X125333333Y-139028847D01*
X125333333Y-139028847D02*
X125333333Y-139266942D01*
X125333333Y-139266942D02*
X125285714Y-139362180D01*
X125285714Y-139362180D02*
X125238095Y-139409800D01*
X125238095Y-139409800D02*
X125142857Y-139457419D01*
X125142857Y-139457419D02*
X124904762Y-139457419D01*
X124904762Y-139457419D02*
X124809524Y-139409800D01*
X124809524Y-139409800D02*
X124761905Y-139362180D01*
D12*
X139349405Y-129104819D02*
X139349405Y-128104819D01*
X139349405Y-128104819D02*
X139587500Y-128104819D01*
X139587500Y-128104819D02*
X139730357Y-128152438D01*
X139730357Y-128152438D02*
X139825595Y-128247676D01*
X139825595Y-128247676D02*
X139873214Y-128342914D01*
X139873214Y-128342914D02*
X139920833Y-128533390D01*
X139920833Y-128533390D02*
X139920833Y-128676247D01*
X139920833Y-128676247D02*
X139873214Y-128866723D01*
X139873214Y-128866723D02*
X139825595Y-128961961D01*
X139825595Y-128961961D02*
X139730357Y-129057200D01*
X139730357Y-129057200D02*
X139587500Y-129104819D01*
X139587500Y-129104819D02*
X139349405Y-129104819D01*
X140254167Y-128104819D02*
X140920833Y-128104819D01*
X140920833Y-128104819D02*
X140492262Y-129104819D01*
X123666666Y-67531009D02*
X123333333Y-67531009D01*
X123333333Y-68054819D02*
X123333333Y-67054819D01*
X123333333Y-67054819D02*
X123809523Y-67054819D01*
X124714285Y-68054819D02*
X124142857Y-68054819D01*
X124428571Y-68054819D02*
X124428571Y-67054819D01*
X124428571Y-67054819D02*
X124333333Y-67197676D01*
X124333333Y-67197676D02*
X124238095Y-67292914D01*
X124238095Y-67292914D02*
X124142857Y-67340533D01*
X139351905Y-117144819D02*
X139351905Y-116144819D01*
X139351905Y-116144819D02*
X139590000Y-116144819D01*
X139590000Y-116144819D02*
X139732857Y-116192438D01*
X139732857Y-116192438D02*
X139828095Y-116287676D01*
X139828095Y-116287676D02*
X139875714Y-116382914D01*
X139875714Y-116382914D02*
X139923333Y-116573390D01*
X139923333Y-116573390D02*
X139923333Y-116716247D01*
X139923333Y-116716247D02*
X139875714Y-116906723D01*
X139875714Y-116906723D02*
X139828095Y-117001961D01*
X139828095Y-117001961D02*
X139732857Y-117097200D01*
X139732857Y-117097200D02*
X139590000Y-117144819D01*
X139590000Y-117144819D02*
X139351905Y-117144819D01*
X140780476Y-116478152D02*
X140780476Y-117144819D01*
X140542381Y-116097200D02*
X140304286Y-116811485D01*
X140304286Y-116811485D02*
X140923333Y-116811485D01*
X144420833Y-105804819D02*
X144087500Y-105328628D01*
X143849405Y-105804819D02*
X143849405Y-104804819D01*
X143849405Y-104804819D02*
X144230357Y-104804819D01*
X144230357Y-104804819D02*
X144325595Y-104852438D01*
X144325595Y-104852438D02*
X144373214Y-104900057D01*
X144373214Y-104900057D02*
X144420833Y-104995295D01*
X144420833Y-104995295D02*
X144420833Y-105138152D01*
X144420833Y-105138152D02*
X144373214Y-105233390D01*
X144373214Y-105233390D02*
X144325595Y-105281009D01*
X144325595Y-105281009D02*
X144230357Y-105328628D01*
X144230357Y-105328628D02*
X143849405Y-105328628D01*
X144801786Y-104900057D02*
X144849405Y-104852438D01*
X144849405Y-104852438D02*
X144944643Y-104804819D01*
X144944643Y-104804819D02*
X145182738Y-104804819D01*
X145182738Y-104804819D02*
X145277976Y-104852438D01*
X145277976Y-104852438D02*
X145325595Y-104900057D01*
X145325595Y-104900057D02*
X145373214Y-104995295D01*
X145373214Y-104995295D02*
X145373214Y-105090533D01*
X145373214Y-105090533D02*
X145325595Y-105233390D01*
X145325595Y-105233390D02*
X144754167Y-105804819D01*
X144754167Y-105804819D02*
X145373214Y-105804819D01*
X144420833Y-117804819D02*
X144087500Y-117328628D01*
X143849405Y-117804819D02*
X143849405Y-116804819D01*
X143849405Y-116804819D02*
X144230357Y-116804819D01*
X144230357Y-116804819D02*
X144325595Y-116852438D01*
X144325595Y-116852438D02*
X144373214Y-116900057D01*
X144373214Y-116900057D02*
X144420833Y-116995295D01*
X144420833Y-116995295D02*
X144420833Y-117138152D01*
X144420833Y-117138152D02*
X144373214Y-117233390D01*
X144373214Y-117233390D02*
X144325595Y-117281009D01*
X144325595Y-117281009D02*
X144230357Y-117328628D01*
X144230357Y-117328628D02*
X143849405Y-117328628D01*
X145325595Y-116804819D02*
X144849405Y-116804819D01*
X144849405Y-116804819D02*
X144801786Y-117281009D01*
X144801786Y-117281009D02*
X144849405Y-117233390D01*
X144849405Y-117233390D02*
X144944643Y-117185771D01*
X144944643Y-117185771D02*
X145182738Y-117185771D01*
X145182738Y-117185771D02*
X145277976Y-117233390D01*
X145277976Y-117233390D02*
X145325595Y-117281009D01*
X145325595Y-117281009D02*
X145373214Y-117376247D01*
X145373214Y-117376247D02*
X145373214Y-117614342D01*
X145373214Y-117614342D02*
X145325595Y-117709580D01*
X145325595Y-117709580D02*
X145277976Y-117757200D01*
X145277976Y-117757200D02*
X145182738Y-117804819D01*
X145182738Y-117804819D02*
X144944643Y-117804819D01*
X144944643Y-117804819D02*
X144849405Y-117757200D01*
X144849405Y-117757200D02*
X144801786Y-117709580D01*
X144420833Y-101804819D02*
X144087500Y-101328628D01*
X143849405Y-101804819D02*
X143849405Y-100804819D01*
X143849405Y-100804819D02*
X144230357Y-100804819D01*
X144230357Y-100804819D02*
X144325595Y-100852438D01*
X144325595Y-100852438D02*
X144373214Y-100900057D01*
X144373214Y-100900057D02*
X144420833Y-100995295D01*
X144420833Y-100995295D02*
X144420833Y-101138152D01*
X144420833Y-101138152D02*
X144373214Y-101233390D01*
X144373214Y-101233390D02*
X144325595Y-101281009D01*
X144325595Y-101281009D02*
X144230357Y-101328628D01*
X144230357Y-101328628D02*
X143849405Y-101328628D01*
X145373214Y-101804819D02*
X144801786Y-101804819D01*
X145087500Y-101804819D02*
X145087500Y-100804819D01*
X145087500Y-100804819D02*
X144992262Y-100947676D01*
X144992262Y-100947676D02*
X144897024Y-101042914D01*
X144897024Y-101042914D02*
X144801786Y-101090533D01*
X53554819Y-87333333D02*
X54269104Y-87333333D01*
X54269104Y-87333333D02*
X54411961Y-87380952D01*
X54411961Y-87380952D02*
X54507200Y-87476190D01*
X54507200Y-87476190D02*
X54554819Y-87619047D01*
X54554819Y-87619047D02*
X54554819Y-87714285D01*
X53650057Y-86904761D02*
X53602438Y-86857142D01*
X53602438Y-86857142D02*
X53554819Y-86761904D01*
X53554819Y-86761904D02*
X53554819Y-86523809D01*
X53554819Y-86523809D02*
X53602438Y-86428571D01*
X53602438Y-86428571D02*
X53650057Y-86380952D01*
X53650057Y-86380952D02*
X53745295Y-86333333D01*
X53745295Y-86333333D02*
X53840533Y-86333333D01*
X53840533Y-86333333D02*
X53983390Y-86380952D01*
X53983390Y-86380952D02*
X54554819Y-86952380D01*
X54554819Y-86952380D02*
X54554819Y-86333333D01*
D11*
X65267419Y-123333333D02*
X65981704Y-123333333D01*
X65981704Y-123333333D02*
X66124561Y-123380952D01*
X66124561Y-123380952D02*
X66219800Y-123476190D01*
X66219800Y-123476190D02*
X66267419Y-123619047D01*
X66267419Y-123619047D02*
X66267419Y-123714285D01*
X65267419Y-122952380D02*
X65267419Y-122333333D01*
X65267419Y-122333333D02*
X65648371Y-122666666D01*
X65648371Y-122666666D02*
X65648371Y-122523809D01*
X65648371Y-122523809D02*
X65695990Y-122428571D01*
X65695990Y-122428571D02*
X65743609Y-122380952D01*
X65743609Y-122380952D02*
X65838847Y-122333333D01*
X65838847Y-122333333D02*
X66076942Y-122333333D01*
X66076942Y-122333333D02*
X66172180Y-122380952D01*
X66172180Y-122380952D02*
X66219800Y-122428571D01*
X66219800Y-122428571D02*
X66267419Y-122523809D01*
X66267419Y-122523809D02*
X66267419Y-122809523D01*
X66267419Y-122809523D02*
X66219800Y-122904761D01*
X66219800Y-122904761D02*
X66172180Y-122952380D01*
X60779884Y-116141419D02*
X60779884Y-115141419D01*
X60779884Y-115141419D02*
X61351312Y-116141419D01*
X61351312Y-116141419D02*
X61351312Y-115141419D01*
X62398931Y-116141419D02*
X62065598Y-115665228D01*
X61827503Y-116141419D02*
X61827503Y-115141419D01*
X61827503Y-115141419D02*
X62208455Y-115141419D01*
X62208455Y-115141419D02*
X62303693Y-115189038D01*
X62303693Y-115189038D02*
X62351312Y-115236657D01*
X62351312Y-115236657D02*
X62398931Y-115331895D01*
X62398931Y-115331895D02*
X62398931Y-115474752D01*
X62398931Y-115474752D02*
X62351312Y-115569990D01*
X62351312Y-115569990D02*
X62303693Y-115617609D01*
X62303693Y-115617609D02*
X62208455Y-115665228D01*
X62208455Y-115665228D02*
X61827503Y-115665228D01*
X63160836Y-115617609D02*
X62827503Y-115617609D01*
X62827503Y-116141419D02*
X62827503Y-115141419D01*
X62827503Y-115141419D02*
X63303693Y-115141419D01*
X96238095Y-71457419D02*
X96238095Y-72266942D01*
X96238095Y-72266942D02*
X96285714Y-72362180D01*
X96285714Y-72362180D02*
X96333333Y-72409800D01*
X96333333Y-72409800D02*
X96428571Y-72457419D01*
X96428571Y-72457419D02*
X96619047Y-72457419D01*
X96619047Y-72457419D02*
X96714285Y-72409800D01*
X96714285Y-72409800D02*
X96761904Y-72362180D01*
X96761904Y-72362180D02*
X96809523Y-72266942D01*
X96809523Y-72266942D02*
X96809523Y-71457419D01*
X97714285Y-71457419D02*
X97523809Y-71457419D01*
X97523809Y-71457419D02*
X97428571Y-71505038D01*
X97428571Y-71505038D02*
X97380952Y-71552657D01*
X97380952Y-71552657D02*
X97285714Y-71695514D01*
X97285714Y-71695514D02*
X97238095Y-71885990D01*
X97238095Y-71885990D02*
X97238095Y-72266942D01*
X97238095Y-72266942D02*
X97285714Y-72362180D01*
X97285714Y-72362180D02*
X97333333Y-72409800D01*
X97333333Y-72409800D02*
X97428571Y-72457419D01*
X97428571Y-72457419D02*
X97619047Y-72457419D01*
X97619047Y-72457419D02*
X97714285Y-72409800D01*
X97714285Y-72409800D02*
X97761904Y-72362180D01*
X97761904Y-72362180D02*
X97809523Y-72266942D01*
X97809523Y-72266942D02*
X97809523Y-72028847D01*
X97809523Y-72028847D02*
X97761904Y-71933609D01*
X97761904Y-71933609D02*
X97714285Y-71885990D01*
X97714285Y-71885990D02*
X97619047Y-71838371D01*
X97619047Y-71838371D02*
X97428571Y-71838371D01*
X97428571Y-71838371D02*
X97333333Y-71885990D01*
X97333333Y-71885990D02*
X97285714Y-71933609D01*
X97285714Y-71933609D02*
X97238095Y-72028847D01*
X142261904Y-86652580D02*
X142261904Y-85843057D01*
X142261904Y-85843057D02*
X142214285Y-85747819D01*
X142214285Y-85747819D02*
X142166666Y-85700200D01*
X142166666Y-85700200D02*
X142071428Y-85652580D01*
X142071428Y-85652580D02*
X141880952Y-85652580D01*
X141880952Y-85652580D02*
X141785714Y-85700200D01*
X141785714Y-85700200D02*
X141738095Y-85747819D01*
X141738095Y-85747819D02*
X141690476Y-85843057D01*
X141690476Y-85843057D02*
X141690476Y-86652580D01*
X140738095Y-86652580D02*
X141214285Y-86652580D01*
X141214285Y-86652580D02*
X141261904Y-86176390D01*
X141261904Y-86176390D02*
X141214285Y-86224009D01*
X141214285Y-86224009D02*
X141119047Y-86271628D01*
X141119047Y-86271628D02*
X140880952Y-86271628D01*
X140880952Y-86271628D02*
X140785714Y-86224009D01*
X140785714Y-86224009D02*
X140738095Y-86176390D01*
X140738095Y-86176390D02*
X140690476Y-86081152D01*
X140690476Y-86081152D02*
X140690476Y-85843057D01*
X140690476Y-85843057D02*
X140738095Y-85747819D01*
X140738095Y-85747819D02*
X140785714Y-85700200D01*
X140785714Y-85700200D02*
X140880952Y-85652580D01*
X140880952Y-85652580D02*
X141119047Y-85652580D01*
X141119047Y-85652580D02*
X141214285Y-85700200D01*
X141214285Y-85700200D02*
X141261904Y-85747819D01*
X141992580Y-89779360D02*
X141992580Y-89969836D01*
X141992580Y-89969836D02*
X141944961Y-90065074D01*
X141944961Y-90065074D02*
X141849723Y-90160312D01*
X141849723Y-90160312D02*
X141659247Y-90207931D01*
X141659247Y-90207931D02*
X141325914Y-90207931D01*
X141325914Y-90207931D02*
X141135438Y-90160312D01*
X141135438Y-90160312D02*
X141040200Y-90065074D01*
X141040200Y-90065074D02*
X140992580Y-89969836D01*
X140992580Y-89969836D02*
X140992580Y-89779360D01*
X140992580Y-89779360D02*
X141040200Y-89684122D01*
X141040200Y-89684122D02*
X141135438Y-89588884D01*
X141135438Y-89588884D02*
X141325914Y-89541265D01*
X141325914Y-89541265D02*
X141659247Y-89541265D01*
X141659247Y-89541265D02*
X141849723Y-89588884D01*
X141849723Y-89588884D02*
X141944961Y-89684122D01*
X141944961Y-89684122D02*
X141992580Y-89779360D01*
X141992580Y-90636503D02*
X141183057Y-90636503D01*
X141183057Y-90636503D02*
X141087819Y-90684122D01*
X141087819Y-90684122D02*
X141040200Y-90731741D01*
X141040200Y-90731741D02*
X140992580Y-90826979D01*
X140992580Y-90826979D02*
X140992580Y-91017455D01*
X140992580Y-91017455D02*
X141040200Y-91112693D01*
X141040200Y-91112693D02*
X141087819Y-91160312D01*
X141087819Y-91160312D02*
X141183057Y-91207931D01*
X141183057Y-91207931D02*
X141992580Y-91207931D01*
X141992580Y-91541265D02*
X141992580Y-92112693D01*
X140992580Y-91826979D02*
X141992580Y-91826979D01*
X139452580Y-89446027D02*
X138452580Y-89779360D01*
X138452580Y-89779360D02*
X139452580Y-90112693D01*
X138452580Y-90446027D02*
X139452580Y-90446027D01*
X138452580Y-90922217D02*
X139452580Y-90922217D01*
X139452580Y-90922217D02*
X138452580Y-91493645D01*
X138452580Y-91493645D02*
X139452580Y-91493645D01*
X144484961Y-90112693D02*
X144532580Y-90017455D01*
X144532580Y-90017455D02*
X144532580Y-89874598D01*
X144532580Y-89874598D02*
X144484961Y-89731741D01*
X144484961Y-89731741D02*
X144389723Y-89636503D01*
X144389723Y-89636503D02*
X144294485Y-89588884D01*
X144294485Y-89588884D02*
X144104009Y-89541265D01*
X144104009Y-89541265D02*
X143961152Y-89541265D01*
X143961152Y-89541265D02*
X143770676Y-89588884D01*
X143770676Y-89588884D02*
X143675438Y-89636503D01*
X143675438Y-89636503D02*
X143580200Y-89731741D01*
X143580200Y-89731741D02*
X143532580Y-89874598D01*
X143532580Y-89874598D02*
X143532580Y-89969836D01*
X143532580Y-89969836D02*
X143580200Y-90112693D01*
X143580200Y-90112693D02*
X143627819Y-90160312D01*
X143627819Y-90160312D02*
X143961152Y-90160312D01*
X143961152Y-90160312D02*
X143961152Y-89969836D01*
X143532580Y-90588884D02*
X144532580Y-90588884D01*
X144532580Y-90588884D02*
X143532580Y-91160312D01*
X143532580Y-91160312D02*
X144532580Y-91160312D01*
X143532580Y-91636503D02*
X144532580Y-91636503D01*
X144532580Y-91636503D02*
X144532580Y-91874598D01*
X144532580Y-91874598D02*
X144484961Y-92017455D01*
X144484961Y-92017455D02*
X144389723Y-92112693D01*
X144389723Y-92112693D02*
X144294485Y-92160312D01*
X144294485Y-92160312D02*
X144104009Y-92207931D01*
X144104009Y-92207931D02*
X143961152Y-92207931D01*
X143961152Y-92207931D02*
X143770676Y-92160312D01*
X143770676Y-92160312D02*
X143675438Y-92112693D01*
X143675438Y-92112693D02*
X143580200Y-92017455D01*
X143580200Y-92017455D02*
X143532580Y-91874598D01*
X143532580Y-91874598D02*
X143532580Y-91636503D01*
X74557580Y-96238095D02*
X73748057Y-96238095D01*
X73748057Y-96238095D02*
X73652819Y-96285714D01*
X73652819Y-96285714D02*
X73605200Y-96333333D01*
X73605200Y-96333333D02*
X73557580Y-96428571D01*
X73557580Y-96428571D02*
X73557580Y-96619047D01*
X73557580Y-96619047D02*
X73605200Y-96714285D01*
X73605200Y-96714285D02*
X73652819Y-96761904D01*
X73652819Y-96761904D02*
X73748057Y-96809523D01*
X73748057Y-96809523D02*
X74557580Y-96809523D01*
X74224247Y-97714285D02*
X73557580Y-97714285D01*
X74605200Y-97476190D02*
X73890914Y-97238095D01*
X73890914Y-97238095D02*
X73890914Y-97857142D01*
D12*
X139349405Y-125104819D02*
X139349405Y-124104819D01*
X139349405Y-124104819D02*
X139587500Y-124104819D01*
X139587500Y-124104819D02*
X139730357Y-124152438D01*
X139730357Y-124152438D02*
X139825595Y-124247676D01*
X139825595Y-124247676D02*
X139873214Y-124342914D01*
X139873214Y-124342914D02*
X139920833Y-124533390D01*
X139920833Y-124533390D02*
X139920833Y-124676247D01*
X139920833Y-124676247D02*
X139873214Y-124866723D01*
X139873214Y-124866723D02*
X139825595Y-124961961D01*
X139825595Y-124961961D02*
X139730357Y-125057200D01*
X139730357Y-125057200D02*
X139587500Y-125104819D01*
X139587500Y-125104819D02*
X139349405Y-125104819D01*
X140777976Y-124104819D02*
X140587500Y-124104819D01*
X140587500Y-124104819D02*
X140492262Y-124152438D01*
X140492262Y-124152438D02*
X140444643Y-124200057D01*
X140444643Y-124200057D02*
X140349405Y-124342914D01*
X140349405Y-124342914D02*
X140301786Y-124533390D01*
X140301786Y-124533390D02*
X140301786Y-124914342D01*
X140301786Y-124914342D02*
X140349405Y-125009580D01*
X140349405Y-125009580D02*
X140397024Y-125057200D01*
X140397024Y-125057200D02*
X140492262Y-125104819D01*
X140492262Y-125104819D02*
X140682738Y-125104819D01*
X140682738Y-125104819D02*
X140777976Y-125057200D01*
X140777976Y-125057200D02*
X140825595Y-125009580D01*
X140825595Y-125009580D02*
X140873214Y-124914342D01*
X140873214Y-124914342D02*
X140873214Y-124676247D01*
X140873214Y-124676247D02*
X140825595Y-124581009D01*
X140825595Y-124581009D02*
X140777976Y-124533390D01*
X140777976Y-124533390D02*
X140682738Y-124485771D01*
X140682738Y-124485771D02*
X140492262Y-124485771D01*
X140492262Y-124485771D02*
X140397024Y-124533390D01*
X140397024Y-124533390D02*
X140349405Y-124581009D01*
X140349405Y-124581009D02*
X140301786Y-124676247D01*
X139349405Y-113104819D02*
X139349405Y-112104819D01*
X139349405Y-112104819D02*
X139587500Y-112104819D01*
X139587500Y-112104819D02*
X139730357Y-112152438D01*
X139730357Y-112152438D02*
X139825595Y-112247676D01*
X139825595Y-112247676D02*
X139873214Y-112342914D01*
X139873214Y-112342914D02*
X139920833Y-112533390D01*
X139920833Y-112533390D02*
X139920833Y-112676247D01*
X139920833Y-112676247D02*
X139873214Y-112866723D01*
X139873214Y-112866723D02*
X139825595Y-112961961D01*
X139825595Y-112961961D02*
X139730357Y-113057200D01*
X139730357Y-113057200D02*
X139587500Y-113104819D01*
X139587500Y-113104819D02*
X139349405Y-113104819D01*
X140254167Y-112104819D02*
X140873214Y-112104819D01*
X140873214Y-112104819D02*
X140539881Y-112485771D01*
X140539881Y-112485771D02*
X140682738Y-112485771D01*
X140682738Y-112485771D02*
X140777976Y-112533390D01*
X140777976Y-112533390D02*
X140825595Y-112581009D01*
X140825595Y-112581009D02*
X140873214Y-112676247D01*
X140873214Y-112676247D02*
X140873214Y-112914342D01*
X140873214Y-112914342D02*
X140825595Y-113009580D01*
X140825595Y-113009580D02*
X140777976Y-113057200D01*
X140777976Y-113057200D02*
X140682738Y-113104819D01*
X140682738Y-113104819D02*
X140397024Y-113104819D01*
X140397024Y-113104819D02*
X140301786Y-113057200D01*
X140301786Y-113057200D02*
X140254167Y-113009580D01*
X100666666Y-54504819D02*
X100666666Y-55219104D01*
X100666666Y-55219104D02*
X100619047Y-55361961D01*
X100619047Y-55361961D02*
X100523809Y-55457200D01*
X100523809Y-55457200D02*
X100380952Y-55504819D01*
X100380952Y-55504819D02*
X100285714Y-55504819D01*
X101047619Y-54504819D02*
X101714285Y-54504819D01*
X101714285Y-54504819D02*
X101285714Y-55504819D01*
X66054819Y-72333333D02*
X66769104Y-72333333D01*
X66769104Y-72333333D02*
X66911961Y-72380952D01*
X66911961Y-72380952D02*
X67007200Y-72476190D01*
X67007200Y-72476190D02*
X67054819Y-72619047D01*
X67054819Y-72619047D02*
X67054819Y-72714285D01*
X66054819Y-71380952D02*
X66054819Y-71857142D01*
X66054819Y-71857142D02*
X66531009Y-71904761D01*
X66531009Y-71904761D02*
X66483390Y-71857142D01*
X66483390Y-71857142D02*
X66435771Y-71761904D01*
X66435771Y-71761904D02*
X66435771Y-71523809D01*
X66435771Y-71523809D02*
X66483390Y-71428571D01*
X66483390Y-71428571D02*
X66531009Y-71380952D01*
X66531009Y-71380952D02*
X66626247Y-71333333D01*
X66626247Y-71333333D02*
X66864342Y-71333333D01*
X66864342Y-71333333D02*
X66959580Y-71380952D01*
X66959580Y-71380952D02*
X67007200Y-71428571D01*
X67007200Y-71428571D02*
X67054819Y-71523809D01*
X67054819Y-71523809D02*
X67054819Y-71761904D01*
X67054819Y-71761904D02*
X67007200Y-71857142D01*
X67007200Y-71857142D02*
X66959580Y-71904761D01*
D11*
X123457419Y-94261904D02*
X124266942Y-94261904D01*
X124266942Y-94261904D02*
X124362180Y-94214285D01*
X124362180Y-94214285D02*
X124409800Y-94166666D01*
X124409800Y-94166666D02*
X124457419Y-94071428D01*
X124457419Y-94071428D02*
X124457419Y-93880952D01*
X124457419Y-93880952D02*
X124409800Y-93785714D01*
X124409800Y-93785714D02*
X124362180Y-93738095D01*
X124362180Y-93738095D02*
X124266942Y-93690476D01*
X124266942Y-93690476D02*
X123457419Y-93690476D01*
X124457419Y-92690476D02*
X124457419Y-93261904D01*
X124457419Y-92976190D02*
X123457419Y-92976190D01*
X123457419Y-92976190D02*
X123600276Y-93071428D01*
X123600276Y-93071428D02*
X123695514Y-93166666D01*
X123695514Y-93166666D02*
X123743133Y-93261904D01*
X116522419Y-112055639D02*
X116522419Y-111865163D01*
X116522419Y-111865163D02*
X116570038Y-111769925D01*
X116570038Y-111769925D02*
X116665276Y-111674687D01*
X116665276Y-111674687D02*
X116855752Y-111627068D01*
X116855752Y-111627068D02*
X117189085Y-111627068D01*
X117189085Y-111627068D02*
X117379561Y-111674687D01*
X117379561Y-111674687D02*
X117474800Y-111769925D01*
X117474800Y-111769925D02*
X117522419Y-111865163D01*
X117522419Y-111865163D02*
X117522419Y-112055639D01*
X117522419Y-112055639D02*
X117474800Y-112150877D01*
X117474800Y-112150877D02*
X117379561Y-112246115D01*
X117379561Y-112246115D02*
X117189085Y-112293734D01*
X117189085Y-112293734D02*
X116855752Y-112293734D01*
X116855752Y-112293734D02*
X116665276Y-112246115D01*
X116665276Y-112246115D02*
X116570038Y-112150877D01*
X116570038Y-112150877D02*
X116522419Y-112055639D01*
X116522419Y-111198496D02*
X117331942Y-111198496D01*
X117331942Y-111198496D02*
X117427180Y-111150877D01*
X117427180Y-111150877D02*
X117474800Y-111103258D01*
X117474800Y-111103258D02*
X117522419Y-111008020D01*
X117522419Y-111008020D02*
X117522419Y-110817544D01*
X117522419Y-110817544D02*
X117474800Y-110722306D01*
X117474800Y-110722306D02*
X117427180Y-110674687D01*
X117427180Y-110674687D02*
X117331942Y-110627068D01*
X117331942Y-110627068D02*
X116522419Y-110627068D01*
X116522419Y-110293734D02*
X116522419Y-109722306D01*
X117522419Y-110008020D02*
X116522419Y-110008020D01*
X117141466Y-109388972D02*
X117141466Y-108627068D01*
X131492419Y-78591115D02*
X130492419Y-78591115D01*
X131492419Y-78114925D02*
X130492419Y-78114925D01*
X130492419Y-78114925D02*
X131492419Y-77543497D01*
X131492419Y-77543497D02*
X130492419Y-77543497D01*
X131111466Y-77067306D02*
X131111466Y-76305402D01*
X131492419Y-76686354D02*
X130730514Y-76686354D01*
X117522419Y-78591115D02*
X116522419Y-78591115D01*
X117522419Y-78114925D02*
X116522419Y-78114925D01*
X116522419Y-78114925D02*
X117522419Y-77543497D01*
X117522419Y-77543497D02*
X116522419Y-77543497D01*
X117141466Y-77067306D02*
X117141466Y-76305402D01*
X130492419Y-112055639D02*
X130492419Y-111865163D01*
X130492419Y-111865163D02*
X130540038Y-111769925D01*
X130540038Y-111769925D02*
X130635276Y-111674687D01*
X130635276Y-111674687D02*
X130825752Y-111627068D01*
X130825752Y-111627068D02*
X131159085Y-111627068D01*
X131159085Y-111627068D02*
X131349561Y-111674687D01*
X131349561Y-111674687D02*
X131444800Y-111769925D01*
X131444800Y-111769925D02*
X131492419Y-111865163D01*
X131492419Y-111865163D02*
X131492419Y-112055639D01*
X131492419Y-112055639D02*
X131444800Y-112150877D01*
X131444800Y-112150877D02*
X131349561Y-112246115D01*
X131349561Y-112246115D02*
X131159085Y-112293734D01*
X131159085Y-112293734D02*
X130825752Y-112293734D01*
X130825752Y-112293734D02*
X130635276Y-112246115D01*
X130635276Y-112246115D02*
X130540038Y-112150877D01*
X130540038Y-112150877D02*
X130492419Y-112055639D01*
X130492419Y-111198496D02*
X131301942Y-111198496D01*
X131301942Y-111198496D02*
X131397180Y-111150877D01*
X131397180Y-111150877D02*
X131444800Y-111103258D01*
X131444800Y-111103258D02*
X131492419Y-111008020D01*
X131492419Y-111008020D02*
X131492419Y-110817544D01*
X131492419Y-110817544D02*
X131444800Y-110722306D01*
X131444800Y-110722306D02*
X131397180Y-110674687D01*
X131397180Y-110674687D02*
X131301942Y-110627068D01*
X131301942Y-110627068D02*
X130492419Y-110627068D01*
X130492419Y-110293734D02*
X130492419Y-109722306D01*
X131492419Y-110008020D02*
X130492419Y-110008020D01*
X131111466Y-109388972D02*
X131111466Y-108627068D01*
X131492419Y-109008020D02*
X130730514Y-109008020D01*
X72602580Y-124238095D02*
X71793057Y-124238095D01*
X71793057Y-124238095D02*
X71697819Y-124285714D01*
X71697819Y-124285714D02*
X71650200Y-124333333D01*
X71650200Y-124333333D02*
X71602580Y-124428571D01*
X71602580Y-124428571D02*
X71602580Y-124619047D01*
X71602580Y-124619047D02*
X71650200Y-124714285D01*
X71650200Y-124714285D02*
X71697819Y-124761904D01*
X71697819Y-124761904D02*
X71793057Y-124809523D01*
X71793057Y-124809523D02*
X72602580Y-124809523D01*
X72507342Y-125238095D02*
X72554961Y-125285714D01*
X72554961Y-125285714D02*
X72602580Y-125380952D01*
X72602580Y-125380952D02*
X72602580Y-125619047D01*
X72602580Y-125619047D02*
X72554961Y-125714285D01*
X72554961Y-125714285D02*
X72507342Y-125761904D01*
X72507342Y-125761904D02*
X72412104Y-125809523D01*
X72412104Y-125809523D02*
X72316866Y-125809523D01*
X72316866Y-125809523D02*
X72174009Y-125761904D01*
X72174009Y-125761904D02*
X71602580Y-125190476D01*
X71602580Y-125190476D02*
X71602580Y-125809523D01*
X81442580Y-119493646D02*
X81442580Y-120112693D01*
X81442580Y-120112693D02*
X81061628Y-119779360D01*
X81061628Y-119779360D02*
X81061628Y-119922217D01*
X81061628Y-119922217D02*
X81014009Y-120017455D01*
X81014009Y-120017455D02*
X80966390Y-120065074D01*
X80966390Y-120065074D02*
X80871152Y-120112693D01*
X80871152Y-120112693D02*
X80633057Y-120112693D01*
X80633057Y-120112693D02*
X80537819Y-120065074D01*
X80537819Y-120065074D02*
X80490200Y-120017455D01*
X80490200Y-120017455D02*
X80442580Y-119922217D01*
X80442580Y-119922217D02*
X80442580Y-119636503D01*
X80442580Y-119636503D02*
X80490200Y-119541265D01*
X80490200Y-119541265D02*
X80537819Y-119493646D01*
X81442580Y-120398408D02*
X80442580Y-120731741D01*
X80442580Y-120731741D02*
X81442580Y-121065074D01*
X81442580Y-121303170D02*
X81442580Y-121922217D01*
X81442580Y-121922217D02*
X81061628Y-121588884D01*
X81061628Y-121588884D02*
X81061628Y-121731741D01*
X81061628Y-121731741D02*
X81014009Y-121826979D01*
X81014009Y-121826979D02*
X80966390Y-121874598D01*
X80966390Y-121874598D02*
X80871152Y-121922217D01*
X80871152Y-121922217D02*
X80633057Y-121922217D01*
X80633057Y-121922217D02*
X80537819Y-121874598D01*
X80537819Y-121874598D02*
X80490200Y-121826979D01*
X80490200Y-121826979D02*
X80442580Y-121731741D01*
X80442580Y-121731741D02*
X80442580Y-121446027D01*
X80442580Y-121446027D02*
X80490200Y-121350789D01*
X80490200Y-121350789D02*
X80537819Y-121303170D01*
X103302580Y-119588884D02*
X104302580Y-119588884D01*
X104302580Y-119588884D02*
X104302580Y-119969836D01*
X104302580Y-119969836D02*
X104254961Y-120065074D01*
X104254961Y-120065074D02*
X104207342Y-120112693D01*
X104207342Y-120112693D02*
X104112104Y-120160312D01*
X104112104Y-120160312D02*
X103969247Y-120160312D01*
X103969247Y-120160312D02*
X103874009Y-120112693D01*
X103874009Y-120112693D02*
X103826390Y-120065074D01*
X103826390Y-120065074D02*
X103778771Y-119969836D01*
X103778771Y-119969836D02*
X103778771Y-119588884D01*
X103588295Y-120541265D02*
X103588295Y-121017455D01*
X103302580Y-120446027D02*
X104302580Y-120779360D01*
X104302580Y-120779360D02*
X103302580Y-121112693D01*
X103969247Y-121874598D02*
X103302580Y-121874598D01*
X104350200Y-121636503D02*
X103635914Y-121398408D01*
X103635914Y-121398408D02*
X103635914Y-122017455D01*
X76314961Y-120112693D02*
X76362580Y-120017455D01*
X76362580Y-120017455D02*
X76362580Y-119874598D01*
X76362580Y-119874598D02*
X76314961Y-119731741D01*
X76314961Y-119731741D02*
X76219723Y-119636503D01*
X76219723Y-119636503D02*
X76124485Y-119588884D01*
X76124485Y-119588884D02*
X75934009Y-119541265D01*
X75934009Y-119541265D02*
X75791152Y-119541265D01*
X75791152Y-119541265D02*
X75600676Y-119588884D01*
X75600676Y-119588884D02*
X75505438Y-119636503D01*
X75505438Y-119636503D02*
X75410200Y-119731741D01*
X75410200Y-119731741D02*
X75362580Y-119874598D01*
X75362580Y-119874598D02*
X75362580Y-119969836D01*
X75362580Y-119969836D02*
X75410200Y-120112693D01*
X75410200Y-120112693D02*
X75457819Y-120160312D01*
X75457819Y-120160312D02*
X75791152Y-120160312D01*
X75791152Y-120160312D02*
X75791152Y-119969836D01*
X75362580Y-120588884D02*
X76362580Y-120588884D01*
X76362580Y-120588884D02*
X75362580Y-121160312D01*
X75362580Y-121160312D02*
X76362580Y-121160312D01*
X75362580Y-121636503D02*
X76362580Y-121636503D01*
X76362580Y-121636503D02*
X76362580Y-121874598D01*
X76362580Y-121874598D02*
X76314961Y-122017455D01*
X76314961Y-122017455D02*
X76219723Y-122112693D01*
X76219723Y-122112693D02*
X76124485Y-122160312D01*
X76124485Y-122160312D02*
X75934009Y-122207931D01*
X75934009Y-122207931D02*
X75791152Y-122207931D01*
X75791152Y-122207931D02*
X75600676Y-122160312D01*
X75600676Y-122160312D02*
X75505438Y-122112693D01*
X75505438Y-122112693D02*
X75410200Y-122017455D01*
X75410200Y-122017455D02*
X75362580Y-121874598D01*
X75362580Y-121874598D02*
X75362580Y-121636503D01*
X88062580Y-128077782D02*
X89062580Y-128077782D01*
X89062580Y-128077782D02*
X89062580Y-128458734D01*
X89062580Y-128458734D02*
X89014961Y-128553972D01*
X89014961Y-128553972D02*
X88967342Y-128601591D01*
X88967342Y-128601591D02*
X88872104Y-128649210D01*
X88872104Y-128649210D02*
X88729247Y-128649210D01*
X88729247Y-128649210D02*
X88634009Y-128601591D01*
X88634009Y-128601591D02*
X88586390Y-128553972D01*
X88586390Y-128553972D02*
X88538771Y-128458734D01*
X88538771Y-128458734D02*
X88538771Y-128077782D01*
X88348295Y-129030163D02*
X88348295Y-129506353D01*
X88062580Y-128934925D02*
X89062580Y-129268258D01*
X89062580Y-129268258D02*
X88062580Y-129601591D01*
X88062580Y-129982544D02*
X88062580Y-130173020D01*
X88062580Y-130173020D02*
X88110200Y-130268258D01*
X88110200Y-130268258D02*
X88157819Y-130315877D01*
X88157819Y-130315877D02*
X88300676Y-130411115D01*
X88300676Y-130411115D02*
X88491152Y-130458734D01*
X88491152Y-130458734D02*
X88872104Y-130458734D01*
X88872104Y-130458734D02*
X88967342Y-130411115D01*
X88967342Y-130411115D02*
X89014961Y-130363496D01*
X89014961Y-130363496D02*
X89062580Y-130268258D01*
X89062580Y-130268258D02*
X89062580Y-130077782D01*
X89062580Y-130077782D02*
X89014961Y-129982544D01*
X89014961Y-129982544D02*
X88967342Y-129934925D01*
X88967342Y-129934925D02*
X88872104Y-129887306D01*
X88872104Y-129887306D02*
X88634009Y-129887306D01*
X88634009Y-129887306D02*
X88538771Y-129934925D01*
X88538771Y-129934925D02*
X88491152Y-129982544D01*
X88491152Y-129982544D02*
X88443533Y-130077782D01*
X88443533Y-130077782D02*
X88443533Y-130268258D01*
X88443533Y-130268258D02*
X88491152Y-130363496D01*
X88491152Y-130363496D02*
X88538771Y-130411115D01*
X88538771Y-130411115D02*
X88634009Y-130458734D01*
X124622580Y-128030163D02*
X124622580Y-128649210D01*
X124622580Y-128649210D02*
X124241628Y-128315877D01*
X124241628Y-128315877D02*
X124241628Y-128458734D01*
X124241628Y-128458734D02*
X124194009Y-128553972D01*
X124194009Y-128553972D02*
X124146390Y-128601591D01*
X124146390Y-128601591D02*
X124051152Y-128649210D01*
X124051152Y-128649210D02*
X123813057Y-128649210D01*
X123813057Y-128649210D02*
X123717819Y-128601591D01*
X123717819Y-128601591D02*
X123670200Y-128553972D01*
X123670200Y-128553972D02*
X123622580Y-128458734D01*
X123622580Y-128458734D02*
X123622580Y-128173020D01*
X123622580Y-128173020D02*
X123670200Y-128077782D01*
X123670200Y-128077782D02*
X123717819Y-128030163D01*
X124622580Y-128934925D02*
X123622580Y-129268258D01*
X123622580Y-129268258D02*
X124622580Y-129601591D01*
X124622580Y-129839687D02*
X124622580Y-130458734D01*
X124622580Y-130458734D02*
X124241628Y-130125401D01*
X124241628Y-130125401D02*
X124241628Y-130268258D01*
X124241628Y-130268258D02*
X124194009Y-130363496D01*
X124194009Y-130363496D02*
X124146390Y-130411115D01*
X124146390Y-130411115D02*
X124051152Y-130458734D01*
X124051152Y-130458734D02*
X123813057Y-130458734D01*
X123813057Y-130458734D02*
X123717819Y-130411115D01*
X123717819Y-130411115D02*
X123670200Y-130363496D01*
X123670200Y-130363496D02*
X123622580Y-130268258D01*
X123622580Y-130268258D02*
X123622580Y-129982544D01*
X123622580Y-129982544D02*
X123670200Y-129887306D01*
X123670200Y-129887306D02*
X123717819Y-129839687D01*
X100762580Y-127934925D02*
X101762580Y-127934925D01*
X101762580Y-127934925D02*
X101762580Y-128315877D01*
X101762580Y-128315877D02*
X101714961Y-128411115D01*
X101714961Y-128411115D02*
X101667342Y-128458734D01*
X101667342Y-128458734D02*
X101572104Y-128506353D01*
X101572104Y-128506353D02*
X101429247Y-128506353D01*
X101429247Y-128506353D02*
X101334009Y-128458734D01*
X101334009Y-128458734D02*
X101286390Y-128411115D01*
X101286390Y-128411115D02*
X101238771Y-128315877D01*
X101238771Y-128315877D02*
X101238771Y-127934925D01*
X101286390Y-129268258D02*
X101238771Y-129411115D01*
X101238771Y-129411115D02*
X101191152Y-129458734D01*
X101191152Y-129458734D02*
X101095914Y-129506353D01*
X101095914Y-129506353D02*
X100953057Y-129506353D01*
X100953057Y-129506353D02*
X100857819Y-129458734D01*
X100857819Y-129458734D02*
X100810200Y-129411115D01*
X100810200Y-129411115D02*
X100762580Y-129315877D01*
X100762580Y-129315877D02*
X100762580Y-128934925D01*
X100762580Y-128934925D02*
X101762580Y-128934925D01*
X101762580Y-128934925D02*
X101762580Y-129268258D01*
X101762580Y-129268258D02*
X101714961Y-129363496D01*
X101714961Y-129363496D02*
X101667342Y-129411115D01*
X101667342Y-129411115D02*
X101572104Y-129458734D01*
X101572104Y-129458734D02*
X101476866Y-129458734D01*
X101476866Y-129458734D02*
X101381628Y-129411115D01*
X101381628Y-129411115D02*
X101334009Y-129363496D01*
X101334009Y-129363496D02*
X101286390Y-129268258D01*
X101286390Y-129268258D02*
X101286390Y-128934925D01*
X101762580Y-129839687D02*
X101762580Y-130458734D01*
X101762580Y-130458734D02*
X101381628Y-130125401D01*
X101381628Y-130125401D02*
X101381628Y-130268258D01*
X101381628Y-130268258D02*
X101334009Y-130363496D01*
X101334009Y-130363496D02*
X101286390Y-130411115D01*
X101286390Y-130411115D02*
X101191152Y-130458734D01*
X101191152Y-130458734D02*
X100953057Y-130458734D01*
X100953057Y-130458734D02*
X100857819Y-130411115D01*
X100857819Y-130411115D02*
X100810200Y-130363496D01*
X100810200Y-130363496D02*
X100762580Y-130268258D01*
X100762580Y-130268258D02*
X100762580Y-129982544D01*
X100762580Y-129982544D02*
X100810200Y-129887306D01*
X100810200Y-129887306D02*
X100857819Y-129839687D01*
X93142580Y-119588884D02*
X94142580Y-119588884D01*
X94142580Y-119588884D02*
X94142580Y-119969836D01*
X94142580Y-119969836D02*
X94094961Y-120065074D01*
X94094961Y-120065074D02*
X94047342Y-120112693D01*
X94047342Y-120112693D02*
X93952104Y-120160312D01*
X93952104Y-120160312D02*
X93809247Y-120160312D01*
X93809247Y-120160312D02*
X93714009Y-120112693D01*
X93714009Y-120112693D02*
X93666390Y-120065074D01*
X93666390Y-120065074D02*
X93618771Y-119969836D01*
X93618771Y-119969836D02*
X93618771Y-119588884D01*
X93666390Y-120922217D02*
X93618771Y-121065074D01*
X93618771Y-121065074D02*
X93571152Y-121112693D01*
X93571152Y-121112693D02*
X93475914Y-121160312D01*
X93475914Y-121160312D02*
X93333057Y-121160312D01*
X93333057Y-121160312D02*
X93237819Y-121112693D01*
X93237819Y-121112693D02*
X93190200Y-121065074D01*
X93190200Y-121065074D02*
X93142580Y-120969836D01*
X93142580Y-120969836D02*
X93142580Y-120588884D01*
X93142580Y-120588884D02*
X94142580Y-120588884D01*
X94142580Y-120588884D02*
X94142580Y-120922217D01*
X94142580Y-120922217D02*
X94094961Y-121017455D01*
X94094961Y-121017455D02*
X94047342Y-121065074D01*
X94047342Y-121065074D02*
X93952104Y-121112693D01*
X93952104Y-121112693D02*
X93856866Y-121112693D01*
X93856866Y-121112693D02*
X93761628Y-121065074D01*
X93761628Y-121065074D02*
X93714009Y-121017455D01*
X93714009Y-121017455D02*
X93666390Y-120922217D01*
X93666390Y-120922217D02*
X93666390Y-120588884D01*
X94142580Y-121779360D02*
X94142580Y-121874598D01*
X94142580Y-121874598D02*
X94094961Y-121969836D01*
X94094961Y-121969836D02*
X94047342Y-122017455D01*
X94047342Y-122017455D02*
X93952104Y-122065074D01*
X93952104Y-122065074D02*
X93761628Y-122112693D01*
X93761628Y-122112693D02*
X93523533Y-122112693D01*
X93523533Y-122112693D02*
X93333057Y-122065074D01*
X93333057Y-122065074D02*
X93237819Y-122017455D01*
X93237819Y-122017455D02*
X93190200Y-121969836D01*
X93190200Y-121969836D02*
X93142580Y-121874598D01*
X93142580Y-121874598D02*
X93142580Y-121779360D01*
X93142580Y-121779360D02*
X93190200Y-121684122D01*
X93190200Y-121684122D02*
X93237819Y-121636503D01*
X93237819Y-121636503D02*
X93333057Y-121588884D01*
X93333057Y-121588884D02*
X93523533Y-121541265D01*
X93523533Y-121541265D02*
X93761628Y-121541265D01*
X93761628Y-121541265D02*
X93952104Y-121588884D01*
X93952104Y-121588884D02*
X94047342Y-121636503D01*
X94047342Y-121636503D02*
X94094961Y-121684122D01*
X94094961Y-121684122D02*
X94142580Y-121779360D01*
X124622580Y-119446027D02*
X123622580Y-119779360D01*
X123622580Y-119779360D02*
X124622580Y-120112693D01*
X124146390Y-120779360D02*
X124098771Y-120922217D01*
X124098771Y-120922217D02*
X124051152Y-120969836D01*
X124051152Y-120969836D02*
X123955914Y-121017455D01*
X123955914Y-121017455D02*
X123813057Y-121017455D01*
X123813057Y-121017455D02*
X123717819Y-120969836D01*
X123717819Y-120969836D02*
X123670200Y-120922217D01*
X123670200Y-120922217D02*
X123622580Y-120826979D01*
X123622580Y-120826979D02*
X123622580Y-120446027D01*
X123622580Y-120446027D02*
X124622580Y-120446027D01*
X124622580Y-120446027D02*
X124622580Y-120779360D01*
X124622580Y-120779360D02*
X124574961Y-120874598D01*
X124574961Y-120874598D02*
X124527342Y-120922217D01*
X124527342Y-120922217D02*
X124432104Y-120969836D01*
X124432104Y-120969836D02*
X124336866Y-120969836D01*
X124336866Y-120969836D02*
X124241628Y-120922217D01*
X124241628Y-120922217D02*
X124194009Y-120874598D01*
X124194009Y-120874598D02*
X124146390Y-120779360D01*
X124146390Y-120779360D02*
X124146390Y-120446027D01*
X123908295Y-121398408D02*
X123908295Y-121874598D01*
X123622580Y-121303170D02*
X124622580Y-121636503D01*
X124622580Y-121636503D02*
X123622580Y-121969836D01*
X124622580Y-122160313D02*
X124622580Y-122731741D01*
X123622580Y-122446027D02*
X124622580Y-122446027D01*
X113462580Y-119588884D02*
X114462580Y-119588884D01*
X114462580Y-119588884D02*
X114462580Y-119969836D01*
X114462580Y-119969836D02*
X114414961Y-120065074D01*
X114414961Y-120065074D02*
X114367342Y-120112693D01*
X114367342Y-120112693D02*
X114272104Y-120160312D01*
X114272104Y-120160312D02*
X114129247Y-120160312D01*
X114129247Y-120160312D02*
X114034009Y-120112693D01*
X114034009Y-120112693D02*
X113986390Y-120065074D01*
X113986390Y-120065074D02*
X113938771Y-119969836D01*
X113938771Y-119969836D02*
X113938771Y-119588884D01*
X113748295Y-120541265D02*
X113748295Y-121017455D01*
X113462580Y-120446027D02*
X114462580Y-120779360D01*
X114462580Y-120779360D02*
X113462580Y-121112693D01*
X114462580Y-121636503D02*
X114462580Y-121731741D01*
X114462580Y-121731741D02*
X114414961Y-121826979D01*
X114414961Y-121826979D02*
X114367342Y-121874598D01*
X114367342Y-121874598D02*
X114272104Y-121922217D01*
X114272104Y-121922217D02*
X114081628Y-121969836D01*
X114081628Y-121969836D02*
X113843533Y-121969836D01*
X113843533Y-121969836D02*
X113653057Y-121922217D01*
X113653057Y-121922217D02*
X113557819Y-121874598D01*
X113557819Y-121874598D02*
X113510200Y-121826979D01*
X113510200Y-121826979D02*
X113462580Y-121731741D01*
X113462580Y-121731741D02*
X113462580Y-121636503D01*
X113462580Y-121636503D02*
X113510200Y-121541265D01*
X113510200Y-121541265D02*
X113557819Y-121493646D01*
X113557819Y-121493646D02*
X113653057Y-121446027D01*
X113653057Y-121446027D02*
X113843533Y-121398408D01*
X113843533Y-121398408D02*
X114081628Y-121398408D01*
X114081628Y-121398408D02*
X114272104Y-121446027D01*
X114272104Y-121446027D02*
X114367342Y-121493646D01*
X114367342Y-121493646D02*
X114414961Y-121541265D01*
X114414961Y-121541265D02*
X114462580Y-121636503D01*
X105842580Y-127934925D02*
X106842580Y-127934925D01*
X106842580Y-127934925D02*
X106842580Y-128315877D01*
X106842580Y-128315877D02*
X106794961Y-128411115D01*
X106794961Y-128411115D02*
X106747342Y-128458734D01*
X106747342Y-128458734D02*
X106652104Y-128506353D01*
X106652104Y-128506353D02*
X106509247Y-128506353D01*
X106509247Y-128506353D02*
X106414009Y-128458734D01*
X106414009Y-128458734D02*
X106366390Y-128411115D01*
X106366390Y-128411115D02*
X106318771Y-128315877D01*
X106318771Y-128315877D02*
X106318771Y-127934925D01*
X106366390Y-129268258D02*
X106318771Y-129411115D01*
X106318771Y-129411115D02*
X106271152Y-129458734D01*
X106271152Y-129458734D02*
X106175914Y-129506353D01*
X106175914Y-129506353D02*
X106033057Y-129506353D01*
X106033057Y-129506353D02*
X105937819Y-129458734D01*
X105937819Y-129458734D02*
X105890200Y-129411115D01*
X105890200Y-129411115D02*
X105842580Y-129315877D01*
X105842580Y-129315877D02*
X105842580Y-128934925D01*
X105842580Y-128934925D02*
X106842580Y-128934925D01*
X106842580Y-128934925D02*
X106842580Y-129268258D01*
X106842580Y-129268258D02*
X106794961Y-129363496D01*
X106794961Y-129363496D02*
X106747342Y-129411115D01*
X106747342Y-129411115D02*
X106652104Y-129458734D01*
X106652104Y-129458734D02*
X106556866Y-129458734D01*
X106556866Y-129458734D02*
X106461628Y-129411115D01*
X106461628Y-129411115D02*
X106414009Y-129363496D01*
X106414009Y-129363496D02*
X106366390Y-129268258D01*
X106366390Y-129268258D02*
X106366390Y-128934925D01*
X106842580Y-130411115D02*
X106842580Y-129934925D01*
X106842580Y-129934925D02*
X106366390Y-129887306D01*
X106366390Y-129887306D02*
X106414009Y-129934925D01*
X106414009Y-129934925D02*
X106461628Y-130030163D01*
X106461628Y-130030163D02*
X106461628Y-130268258D01*
X106461628Y-130268258D02*
X106414009Y-130363496D01*
X106414009Y-130363496D02*
X106366390Y-130411115D01*
X106366390Y-130411115D02*
X106271152Y-130458734D01*
X106271152Y-130458734D02*
X106033057Y-130458734D01*
X106033057Y-130458734D02*
X105937819Y-130411115D01*
X105937819Y-130411115D02*
X105890200Y-130363496D01*
X105890200Y-130363496D02*
X105842580Y-130268258D01*
X105842580Y-130268258D02*
X105842580Y-130030163D01*
X105842580Y-130030163D02*
X105890200Y-129934925D01*
X105890200Y-129934925D02*
X105937819Y-129887306D01*
X80442580Y-126982544D02*
X81442580Y-126982544D01*
X81442580Y-126982544D02*
X81442580Y-127363496D01*
X81442580Y-127363496D02*
X81394961Y-127458734D01*
X81394961Y-127458734D02*
X81347342Y-127506353D01*
X81347342Y-127506353D02*
X81252104Y-127553972D01*
X81252104Y-127553972D02*
X81109247Y-127553972D01*
X81109247Y-127553972D02*
X81014009Y-127506353D01*
X81014009Y-127506353D02*
X80966390Y-127458734D01*
X80966390Y-127458734D02*
X80918771Y-127363496D01*
X80918771Y-127363496D02*
X80918771Y-126982544D01*
X80966390Y-128315877D02*
X80918771Y-128458734D01*
X80918771Y-128458734D02*
X80871152Y-128506353D01*
X80871152Y-128506353D02*
X80775914Y-128553972D01*
X80775914Y-128553972D02*
X80633057Y-128553972D01*
X80633057Y-128553972D02*
X80537819Y-128506353D01*
X80537819Y-128506353D02*
X80490200Y-128458734D01*
X80490200Y-128458734D02*
X80442580Y-128363496D01*
X80442580Y-128363496D02*
X80442580Y-127982544D01*
X80442580Y-127982544D02*
X81442580Y-127982544D01*
X81442580Y-127982544D02*
X81442580Y-128315877D01*
X81442580Y-128315877D02*
X81394961Y-128411115D01*
X81394961Y-128411115D02*
X81347342Y-128458734D01*
X81347342Y-128458734D02*
X81252104Y-128506353D01*
X81252104Y-128506353D02*
X81156866Y-128506353D01*
X81156866Y-128506353D02*
X81061628Y-128458734D01*
X81061628Y-128458734D02*
X81014009Y-128411115D01*
X81014009Y-128411115D02*
X80966390Y-128315877D01*
X80966390Y-128315877D02*
X80966390Y-127982544D01*
X80442580Y-129506353D02*
X80442580Y-128934925D01*
X80442580Y-129220639D02*
X81442580Y-129220639D01*
X81442580Y-129220639D02*
X81299723Y-129125401D01*
X81299723Y-129125401D02*
X81204485Y-129030163D01*
X81204485Y-129030163D02*
X81156866Y-128934925D01*
X81109247Y-130363496D02*
X80442580Y-130363496D01*
X81490200Y-130125401D02*
X80775914Y-129887306D01*
X80775914Y-129887306D02*
X80775914Y-130506353D01*
X77902580Y-126982544D02*
X78902580Y-126982544D01*
X78902580Y-126982544D02*
X78902580Y-127363496D01*
X78902580Y-127363496D02*
X78854961Y-127458734D01*
X78854961Y-127458734D02*
X78807342Y-127506353D01*
X78807342Y-127506353D02*
X78712104Y-127553972D01*
X78712104Y-127553972D02*
X78569247Y-127553972D01*
X78569247Y-127553972D02*
X78474009Y-127506353D01*
X78474009Y-127506353D02*
X78426390Y-127458734D01*
X78426390Y-127458734D02*
X78378771Y-127363496D01*
X78378771Y-127363496D02*
X78378771Y-126982544D01*
X78426390Y-128315877D02*
X78378771Y-128458734D01*
X78378771Y-128458734D02*
X78331152Y-128506353D01*
X78331152Y-128506353D02*
X78235914Y-128553972D01*
X78235914Y-128553972D02*
X78093057Y-128553972D01*
X78093057Y-128553972D02*
X77997819Y-128506353D01*
X77997819Y-128506353D02*
X77950200Y-128458734D01*
X77950200Y-128458734D02*
X77902580Y-128363496D01*
X77902580Y-128363496D02*
X77902580Y-127982544D01*
X77902580Y-127982544D02*
X78902580Y-127982544D01*
X78902580Y-127982544D02*
X78902580Y-128315877D01*
X78902580Y-128315877D02*
X78854961Y-128411115D01*
X78854961Y-128411115D02*
X78807342Y-128458734D01*
X78807342Y-128458734D02*
X78712104Y-128506353D01*
X78712104Y-128506353D02*
X78616866Y-128506353D01*
X78616866Y-128506353D02*
X78521628Y-128458734D01*
X78521628Y-128458734D02*
X78474009Y-128411115D01*
X78474009Y-128411115D02*
X78426390Y-128315877D01*
X78426390Y-128315877D02*
X78426390Y-127982544D01*
X77902580Y-129506353D02*
X77902580Y-128934925D01*
X77902580Y-129220639D02*
X78902580Y-129220639D01*
X78902580Y-129220639D02*
X78759723Y-129125401D01*
X78759723Y-129125401D02*
X78664485Y-129030163D01*
X78664485Y-129030163D02*
X78616866Y-128934925D01*
X78902580Y-129839687D02*
X78902580Y-130458734D01*
X78902580Y-130458734D02*
X78521628Y-130125401D01*
X78521628Y-130125401D02*
X78521628Y-130268258D01*
X78521628Y-130268258D02*
X78474009Y-130363496D01*
X78474009Y-130363496D02*
X78426390Y-130411115D01*
X78426390Y-130411115D02*
X78331152Y-130458734D01*
X78331152Y-130458734D02*
X78093057Y-130458734D01*
X78093057Y-130458734D02*
X77997819Y-130411115D01*
X77997819Y-130411115D02*
X77950200Y-130363496D01*
X77950200Y-130363496D02*
X77902580Y-130268258D01*
X77902580Y-130268258D02*
X77902580Y-129982544D01*
X77902580Y-129982544D02*
X77950200Y-129887306D01*
X77950200Y-129887306D02*
X77997819Y-129839687D01*
X78854961Y-120112693D02*
X78902580Y-120017455D01*
X78902580Y-120017455D02*
X78902580Y-119874598D01*
X78902580Y-119874598D02*
X78854961Y-119731741D01*
X78854961Y-119731741D02*
X78759723Y-119636503D01*
X78759723Y-119636503D02*
X78664485Y-119588884D01*
X78664485Y-119588884D02*
X78474009Y-119541265D01*
X78474009Y-119541265D02*
X78331152Y-119541265D01*
X78331152Y-119541265D02*
X78140676Y-119588884D01*
X78140676Y-119588884D02*
X78045438Y-119636503D01*
X78045438Y-119636503D02*
X77950200Y-119731741D01*
X77950200Y-119731741D02*
X77902580Y-119874598D01*
X77902580Y-119874598D02*
X77902580Y-119969836D01*
X77902580Y-119969836D02*
X77950200Y-120112693D01*
X77950200Y-120112693D02*
X77997819Y-120160312D01*
X77997819Y-120160312D02*
X78331152Y-120160312D01*
X78331152Y-120160312D02*
X78331152Y-119969836D01*
X77902580Y-120588884D02*
X78902580Y-120588884D01*
X78902580Y-120588884D02*
X77902580Y-121160312D01*
X77902580Y-121160312D02*
X78902580Y-121160312D01*
X77902580Y-121636503D02*
X78902580Y-121636503D01*
X78902580Y-121636503D02*
X78902580Y-121874598D01*
X78902580Y-121874598D02*
X78854961Y-122017455D01*
X78854961Y-122017455D02*
X78759723Y-122112693D01*
X78759723Y-122112693D02*
X78664485Y-122160312D01*
X78664485Y-122160312D02*
X78474009Y-122207931D01*
X78474009Y-122207931D02*
X78331152Y-122207931D01*
X78331152Y-122207931D02*
X78140676Y-122160312D01*
X78140676Y-122160312D02*
X78045438Y-122112693D01*
X78045438Y-122112693D02*
X77950200Y-122017455D01*
X77950200Y-122017455D02*
X77902580Y-121874598D01*
X77902580Y-121874598D02*
X77902580Y-121636503D01*
X118542580Y-119588884D02*
X119542580Y-119588884D01*
X119542580Y-119588884D02*
X119542580Y-119969836D01*
X119542580Y-119969836D02*
X119494961Y-120065074D01*
X119494961Y-120065074D02*
X119447342Y-120112693D01*
X119447342Y-120112693D02*
X119352104Y-120160312D01*
X119352104Y-120160312D02*
X119209247Y-120160312D01*
X119209247Y-120160312D02*
X119114009Y-120112693D01*
X119114009Y-120112693D02*
X119066390Y-120065074D01*
X119066390Y-120065074D02*
X119018771Y-119969836D01*
X119018771Y-119969836D02*
X119018771Y-119588884D01*
X118637819Y-121160312D02*
X118590200Y-121112693D01*
X118590200Y-121112693D02*
X118542580Y-120969836D01*
X118542580Y-120969836D02*
X118542580Y-120874598D01*
X118542580Y-120874598D02*
X118590200Y-120731741D01*
X118590200Y-120731741D02*
X118685438Y-120636503D01*
X118685438Y-120636503D02*
X118780676Y-120588884D01*
X118780676Y-120588884D02*
X118971152Y-120541265D01*
X118971152Y-120541265D02*
X119114009Y-120541265D01*
X119114009Y-120541265D02*
X119304485Y-120588884D01*
X119304485Y-120588884D02*
X119399723Y-120636503D01*
X119399723Y-120636503D02*
X119494961Y-120731741D01*
X119494961Y-120731741D02*
X119542580Y-120874598D01*
X119542580Y-120874598D02*
X119542580Y-120969836D01*
X119542580Y-120969836D02*
X119494961Y-121112693D01*
X119494961Y-121112693D02*
X119447342Y-121160312D01*
X118542580Y-122112693D02*
X118542580Y-121541265D01*
X118542580Y-121826979D02*
X119542580Y-121826979D01*
X119542580Y-121826979D02*
X119399723Y-121731741D01*
X119399723Y-121731741D02*
X119304485Y-121636503D01*
X119304485Y-121636503D02*
X119256866Y-121541265D01*
X119209247Y-122969836D02*
X118542580Y-122969836D01*
X119590200Y-122731741D02*
X118875914Y-122493646D01*
X118875914Y-122493646D02*
X118875914Y-123112693D01*
X75362580Y-126982544D02*
X76362580Y-126982544D01*
X76362580Y-126982544D02*
X76362580Y-127363496D01*
X76362580Y-127363496D02*
X76314961Y-127458734D01*
X76314961Y-127458734D02*
X76267342Y-127506353D01*
X76267342Y-127506353D02*
X76172104Y-127553972D01*
X76172104Y-127553972D02*
X76029247Y-127553972D01*
X76029247Y-127553972D02*
X75934009Y-127506353D01*
X75934009Y-127506353D02*
X75886390Y-127458734D01*
X75886390Y-127458734D02*
X75838771Y-127363496D01*
X75838771Y-127363496D02*
X75838771Y-126982544D01*
X75886390Y-128315877D02*
X75838771Y-128458734D01*
X75838771Y-128458734D02*
X75791152Y-128506353D01*
X75791152Y-128506353D02*
X75695914Y-128553972D01*
X75695914Y-128553972D02*
X75553057Y-128553972D01*
X75553057Y-128553972D02*
X75457819Y-128506353D01*
X75457819Y-128506353D02*
X75410200Y-128458734D01*
X75410200Y-128458734D02*
X75362580Y-128363496D01*
X75362580Y-128363496D02*
X75362580Y-127982544D01*
X75362580Y-127982544D02*
X76362580Y-127982544D01*
X76362580Y-127982544D02*
X76362580Y-128315877D01*
X76362580Y-128315877D02*
X76314961Y-128411115D01*
X76314961Y-128411115D02*
X76267342Y-128458734D01*
X76267342Y-128458734D02*
X76172104Y-128506353D01*
X76172104Y-128506353D02*
X76076866Y-128506353D01*
X76076866Y-128506353D02*
X75981628Y-128458734D01*
X75981628Y-128458734D02*
X75934009Y-128411115D01*
X75934009Y-128411115D02*
X75886390Y-128315877D01*
X75886390Y-128315877D02*
X75886390Y-127982544D01*
X75362580Y-129506353D02*
X75362580Y-128934925D01*
X75362580Y-129220639D02*
X76362580Y-129220639D01*
X76362580Y-129220639D02*
X76219723Y-129125401D01*
X76219723Y-129125401D02*
X76124485Y-129030163D01*
X76124485Y-129030163D02*
X76076866Y-128934925D01*
X76267342Y-129887306D02*
X76314961Y-129934925D01*
X76314961Y-129934925D02*
X76362580Y-130030163D01*
X76362580Y-130030163D02*
X76362580Y-130268258D01*
X76362580Y-130268258D02*
X76314961Y-130363496D01*
X76314961Y-130363496D02*
X76267342Y-130411115D01*
X76267342Y-130411115D02*
X76172104Y-130458734D01*
X76172104Y-130458734D02*
X76076866Y-130458734D01*
X76076866Y-130458734D02*
X75934009Y-130411115D01*
X75934009Y-130411115D02*
X75362580Y-129839687D01*
X75362580Y-129839687D02*
X75362580Y-130458734D01*
X110922580Y-127934925D02*
X111922580Y-127934925D01*
X111922580Y-127934925D02*
X111922580Y-128315877D01*
X111922580Y-128315877D02*
X111874961Y-128411115D01*
X111874961Y-128411115D02*
X111827342Y-128458734D01*
X111827342Y-128458734D02*
X111732104Y-128506353D01*
X111732104Y-128506353D02*
X111589247Y-128506353D01*
X111589247Y-128506353D02*
X111494009Y-128458734D01*
X111494009Y-128458734D02*
X111446390Y-128411115D01*
X111446390Y-128411115D02*
X111398771Y-128315877D01*
X111398771Y-128315877D02*
X111398771Y-127934925D01*
X111446390Y-129268258D02*
X111398771Y-129411115D01*
X111398771Y-129411115D02*
X111351152Y-129458734D01*
X111351152Y-129458734D02*
X111255914Y-129506353D01*
X111255914Y-129506353D02*
X111113057Y-129506353D01*
X111113057Y-129506353D02*
X111017819Y-129458734D01*
X111017819Y-129458734D02*
X110970200Y-129411115D01*
X110970200Y-129411115D02*
X110922580Y-129315877D01*
X110922580Y-129315877D02*
X110922580Y-128934925D01*
X110922580Y-128934925D02*
X111922580Y-128934925D01*
X111922580Y-128934925D02*
X111922580Y-129268258D01*
X111922580Y-129268258D02*
X111874961Y-129363496D01*
X111874961Y-129363496D02*
X111827342Y-129411115D01*
X111827342Y-129411115D02*
X111732104Y-129458734D01*
X111732104Y-129458734D02*
X111636866Y-129458734D01*
X111636866Y-129458734D02*
X111541628Y-129411115D01*
X111541628Y-129411115D02*
X111494009Y-129363496D01*
X111494009Y-129363496D02*
X111446390Y-129268258D01*
X111446390Y-129268258D02*
X111446390Y-128934925D01*
X111922580Y-129839687D02*
X111922580Y-130506353D01*
X111922580Y-130506353D02*
X110922580Y-130077782D01*
X98222580Y-119588884D02*
X99222580Y-119588884D01*
X99222580Y-119588884D02*
X99222580Y-119969836D01*
X99222580Y-119969836D02*
X99174961Y-120065074D01*
X99174961Y-120065074D02*
X99127342Y-120112693D01*
X99127342Y-120112693D02*
X99032104Y-120160312D01*
X99032104Y-120160312D02*
X98889247Y-120160312D01*
X98889247Y-120160312D02*
X98794009Y-120112693D01*
X98794009Y-120112693D02*
X98746390Y-120065074D01*
X98746390Y-120065074D02*
X98698771Y-119969836D01*
X98698771Y-119969836D02*
X98698771Y-119588884D01*
X98508295Y-120541265D02*
X98508295Y-121017455D01*
X98222580Y-120446027D02*
X99222580Y-120779360D01*
X99222580Y-120779360D02*
X98222580Y-121112693D01*
X99222580Y-121874598D02*
X99222580Y-121684122D01*
X99222580Y-121684122D02*
X99174961Y-121588884D01*
X99174961Y-121588884D02*
X99127342Y-121541265D01*
X99127342Y-121541265D02*
X98984485Y-121446027D01*
X98984485Y-121446027D02*
X98794009Y-121398408D01*
X98794009Y-121398408D02*
X98413057Y-121398408D01*
X98413057Y-121398408D02*
X98317819Y-121446027D01*
X98317819Y-121446027D02*
X98270200Y-121493646D01*
X98270200Y-121493646D02*
X98222580Y-121588884D01*
X98222580Y-121588884D02*
X98222580Y-121779360D01*
X98222580Y-121779360D02*
X98270200Y-121874598D01*
X98270200Y-121874598D02*
X98317819Y-121922217D01*
X98317819Y-121922217D02*
X98413057Y-121969836D01*
X98413057Y-121969836D02*
X98651152Y-121969836D01*
X98651152Y-121969836D02*
X98746390Y-121922217D01*
X98746390Y-121922217D02*
X98794009Y-121874598D01*
X98794009Y-121874598D02*
X98841628Y-121779360D01*
X98841628Y-121779360D02*
X98841628Y-121588884D01*
X98841628Y-121588884D02*
X98794009Y-121493646D01*
X98794009Y-121493646D02*
X98746390Y-121446027D01*
X98746390Y-121446027D02*
X98651152Y-121398408D01*
X90602580Y-119588884D02*
X91602580Y-119588884D01*
X91602580Y-119588884D02*
X91602580Y-119969836D01*
X91602580Y-119969836D02*
X91554961Y-120065074D01*
X91554961Y-120065074D02*
X91507342Y-120112693D01*
X91507342Y-120112693D02*
X91412104Y-120160312D01*
X91412104Y-120160312D02*
X91269247Y-120160312D01*
X91269247Y-120160312D02*
X91174009Y-120112693D01*
X91174009Y-120112693D02*
X91126390Y-120065074D01*
X91126390Y-120065074D02*
X91078771Y-119969836D01*
X91078771Y-119969836D02*
X91078771Y-119588884D01*
X91126390Y-120922217D02*
X91078771Y-121065074D01*
X91078771Y-121065074D02*
X91031152Y-121112693D01*
X91031152Y-121112693D02*
X90935914Y-121160312D01*
X90935914Y-121160312D02*
X90793057Y-121160312D01*
X90793057Y-121160312D02*
X90697819Y-121112693D01*
X90697819Y-121112693D02*
X90650200Y-121065074D01*
X90650200Y-121065074D02*
X90602580Y-120969836D01*
X90602580Y-120969836D02*
X90602580Y-120588884D01*
X90602580Y-120588884D02*
X91602580Y-120588884D01*
X91602580Y-120588884D02*
X91602580Y-120922217D01*
X91602580Y-120922217D02*
X91554961Y-121017455D01*
X91554961Y-121017455D02*
X91507342Y-121065074D01*
X91507342Y-121065074D02*
X91412104Y-121112693D01*
X91412104Y-121112693D02*
X91316866Y-121112693D01*
X91316866Y-121112693D02*
X91221628Y-121065074D01*
X91221628Y-121065074D02*
X91174009Y-121017455D01*
X91174009Y-121017455D02*
X91126390Y-120922217D01*
X91126390Y-120922217D02*
X91126390Y-120588884D01*
X90602580Y-122112693D02*
X90602580Y-121541265D01*
X90602580Y-121826979D02*
X91602580Y-121826979D01*
X91602580Y-121826979D02*
X91459723Y-121731741D01*
X91459723Y-121731741D02*
X91364485Y-121636503D01*
X91364485Y-121636503D02*
X91316866Y-121541265D01*
X113462580Y-127934925D02*
X114462580Y-127934925D01*
X114462580Y-127934925D02*
X114462580Y-128315877D01*
X114462580Y-128315877D02*
X114414961Y-128411115D01*
X114414961Y-128411115D02*
X114367342Y-128458734D01*
X114367342Y-128458734D02*
X114272104Y-128506353D01*
X114272104Y-128506353D02*
X114129247Y-128506353D01*
X114129247Y-128506353D02*
X114034009Y-128458734D01*
X114034009Y-128458734D02*
X113986390Y-128411115D01*
X113986390Y-128411115D02*
X113938771Y-128315877D01*
X113938771Y-128315877D02*
X113938771Y-127934925D01*
X113986390Y-129268258D02*
X113938771Y-129411115D01*
X113938771Y-129411115D02*
X113891152Y-129458734D01*
X113891152Y-129458734D02*
X113795914Y-129506353D01*
X113795914Y-129506353D02*
X113653057Y-129506353D01*
X113653057Y-129506353D02*
X113557819Y-129458734D01*
X113557819Y-129458734D02*
X113510200Y-129411115D01*
X113510200Y-129411115D02*
X113462580Y-129315877D01*
X113462580Y-129315877D02*
X113462580Y-128934925D01*
X113462580Y-128934925D02*
X114462580Y-128934925D01*
X114462580Y-128934925D02*
X114462580Y-129268258D01*
X114462580Y-129268258D02*
X114414961Y-129363496D01*
X114414961Y-129363496D02*
X114367342Y-129411115D01*
X114367342Y-129411115D02*
X114272104Y-129458734D01*
X114272104Y-129458734D02*
X114176866Y-129458734D01*
X114176866Y-129458734D02*
X114081628Y-129411115D01*
X114081628Y-129411115D02*
X114034009Y-129363496D01*
X114034009Y-129363496D02*
X113986390Y-129268258D01*
X113986390Y-129268258D02*
X113986390Y-128934925D01*
X114034009Y-130077782D02*
X114081628Y-129982544D01*
X114081628Y-129982544D02*
X114129247Y-129934925D01*
X114129247Y-129934925D02*
X114224485Y-129887306D01*
X114224485Y-129887306D02*
X114272104Y-129887306D01*
X114272104Y-129887306D02*
X114367342Y-129934925D01*
X114367342Y-129934925D02*
X114414961Y-129982544D01*
X114414961Y-129982544D02*
X114462580Y-130077782D01*
X114462580Y-130077782D02*
X114462580Y-130268258D01*
X114462580Y-130268258D02*
X114414961Y-130363496D01*
X114414961Y-130363496D02*
X114367342Y-130411115D01*
X114367342Y-130411115D02*
X114272104Y-130458734D01*
X114272104Y-130458734D02*
X114224485Y-130458734D01*
X114224485Y-130458734D02*
X114129247Y-130411115D01*
X114129247Y-130411115D02*
X114081628Y-130363496D01*
X114081628Y-130363496D02*
X114034009Y-130268258D01*
X114034009Y-130268258D02*
X114034009Y-130077782D01*
X114034009Y-130077782D02*
X113986390Y-129982544D01*
X113986390Y-129982544D02*
X113938771Y-129934925D01*
X113938771Y-129934925D02*
X113843533Y-129887306D01*
X113843533Y-129887306D02*
X113653057Y-129887306D01*
X113653057Y-129887306D02*
X113557819Y-129934925D01*
X113557819Y-129934925D02*
X113510200Y-129982544D01*
X113510200Y-129982544D02*
X113462580Y-130077782D01*
X113462580Y-130077782D02*
X113462580Y-130268258D01*
X113462580Y-130268258D02*
X113510200Y-130363496D01*
X113510200Y-130363496D02*
X113557819Y-130411115D01*
X113557819Y-130411115D02*
X113653057Y-130458734D01*
X113653057Y-130458734D02*
X113843533Y-130458734D01*
X113843533Y-130458734D02*
X113938771Y-130411115D01*
X113938771Y-130411115D02*
X113986390Y-130363496D01*
X113986390Y-130363496D02*
X114034009Y-130268258D01*
X98222580Y-127125401D02*
X99222580Y-127125401D01*
X99222580Y-127125401D02*
X99222580Y-127506353D01*
X99222580Y-127506353D02*
X99174961Y-127601591D01*
X99174961Y-127601591D02*
X99127342Y-127649210D01*
X99127342Y-127649210D02*
X99032104Y-127696829D01*
X99032104Y-127696829D02*
X98889247Y-127696829D01*
X98889247Y-127696829D02*
X98794009Y-127649210D01*
X98794009Y-127649210D02*
X98746390Y-127601591D01*
X98746390Y-127601591D02*
X98698771Y-127506353D01*
X98698771Y-127506353D02*
X98698771Y-127125401D01*
X98508295Y-128077782D02*
X98508295Y-128553972D01*
X98222580Y-127982544D02*
X99222580Y-128315877D01*
X99222580Y-128315877D02*
X98222580Y-128649210D01*
X98222580Y-129506353D02*
X98222580Y-128934925D01*
X98222580Y-129220639D02*
X99222580Y-129220639D01*
X99222580Y-129220639D02*
X99079723Y-129125401D01*
X99079723Y-129125401D02*
X98984485Y-129030163D01*
X98984485Y-129030163D02*
X98936866Y-128934925D01*
X99222580Y-130411115D02*
X99222580Y-129934925D01*
X99222580Y-129934925D02*
X98746390Y-129887306D01*
X98746390Y-129887306D02*
X98794009Y-129934925D01*
X98794009Y-129934925D02*
X98841628Y-130030163D01*
X98841628Y-130030163D02*
X98841628Y-130268258D01*
X98841628Y-130268258D02*
X98794009Y-130363496D01*
X98794009Y-130363496D02*
X98746390Y-130411115D01*
X98746390Y-130411115D02*
X98651152Y-130458734D01*
X98651152Y-130458734D02*
X98413057Y-130458734D01*
X98413057Y-130458734D02*
X98317819Y-130411115D01*
X98317819Y-130411115D02*
X98270200Y-130363496D01*
X98270200Y-130363496D02*
X98222580Y-130268258D01*
X98222580Y-130268258D02*
X98222580Y-130030163D01*
X98222580Y-130030163D02*
X98270200Y-129934925D01*
X98270200Y-129934925D02*
X98317819Y-129887306D01*
X82982580Y-126982544D02*
X83982580Y-126982544D01*
X83982580Y-126982544D02*
X83982580Y-127363496D01*
X83982580Y-127363496D02*
X83934961Y-127458734D01*
X83934961Y-127458734D02*
X83887342Y-127506353D01*
X83887342Y-127506353D02*
X83792104Y-127553972D01*
X83792104Y-127553972D02*
X83649247Y-127553972D01*
X83649247Y-127553972D02*
X83554009Y-127506353D01*
X83554009Y-127506353D02*
X83506390Y-127458734D01*
X83506390Y-127458734D02*
X83458771Y-127363496D01*
X83458771Y-127363496D02*
X83458771Y-126982544D01*
X83506390Y-128315877D02*
X83458771Y-128458734D01*
X83458771Y-128458734D02*
X83411152Y-128506353D01*
X83411152Y-128506353D02*
X83315914Y-128553972D01*
X83315914Y-128553972D02*
X83173057Y-128553972D01*
X83173057Y-128553972D02*
X83077819Y-128506353D01*
X83077819Y-128506353D02*
X83030200Y-128458734D01*
X83030200Y-128458734D02*
X82982580Y-128363496D01*
X82982580Y-128363496D02*
X82982580Y-127982544D01*
X82982580Y-127982544D02*
X83982580Y-127982544D01*
X83982580Y-127982544D02*
X83982580Y-128315877D01*
X83982580Y-128315877D02*
X83934961Y-128411115D01*
X83934961Y-128411115D02*
X83887342Y-128458734D01*
X83887342Y-128458734D02*
X83792104Y-128506353D01*
X83792104Y-128506353D02*
X83696866Y-128506353D01*
X83696866Y-128506353D02*
X83601628Y-128458734D01*
X83601628Y-128458734D02*
X83554009Y-128411115D01*
X83554009Y-128411115D02*
X83506390Y-128315877D01*
X83506390Y-128315877D02*
X83506390Y-127982544D01*
X82982580Y-129506353D02*
X82982580Y-128934925D01*
X82982580Y-129220639D02*
X83982580Y-129220639D01*
X83982580Y-129220639D02*
X83839723Y-129125401D01*
X83839723Y-129125401D02*
X83744485Y-129030163D01*
X83744485Y-129030163D02*
X83696866Y-128934925D01*
X83982580Y-130411115D02*
X83982580Y-129934925D01*
X83982580Y-129934925D02*
X83506390Y-129887306D01*
X83506390Y-129887306D02*
X83554009Y-129934925D01*
X83554009Y-129934925D02*
X83601628Y-130030163D01*
X83601628Y-130030163D02*
X83601628Y-130268258D01*
X83601628Y-130268258D02*
X83554009Y-130363496D01*
X83554009Y-130363496D02*
X83506390Y-130411115D01*
X83506390Y-130411115D02*
X83411152Y-130458734D01*
X83411152Y-130458734D02*
X83173057Y-130458734D01*
X83173057Y-130458734D02*
X83077819Y-130411115D01*
X83077819Y-130411115D02*
X83030200Y-130363496D01*
X83030200Y-130363496D02*
X82982580Y-130268258D01*
X82982580Y-130268258D02*
X82982580Y-130030163D01*
X82982580Y-130030163D02*
X83030200Y-129934925D01*
X83030200Y-129934925D02*
X83077819Y-129887306D01*
X93142580Y-127125401D02*
X94142580Y-127125401D01*
X94142580Y-127125401D02*
X94142580Y-127506353D01*
X94142580Y-127506353D02*
X94094961Y-127601591D01*
X94094961Y-127601591D02*
X94047342Y-127649210D01*
X94047342Y-127649210D02*
X93952104Y-127696829D01*
X93952104Y-127696829D02*
X93809247Y-127696829D01*
X93809247Y-127696829D02*
X93714009Y-127649210D01*
X93714009Y-127649210D02*
X93666390Y-127601591D01*
X93666390Y-127601591D02*
X93618771Y-127506353D01*
X93618771Y-127506353D02*
X93618771Y-127125401D01*
X93428295Y-128077782D02*
X93428295Y-128553972D01*
X93142580Y-127982544D02*
X94142580Y-128315877D01*
X94142580Y-128315877D02*
X93142580Y-128649210D01*
X93142580Y-129506353D02*
X93142580Y-128934925D01*
X93142580Y-129220639D02*
X94142580Y-129220639D01*
X94142580Y-129220639D02*
X93999723Y-129125401D01*
X93999723Y-129125401D02*
X93904485Y-129030163D01*
X93904485Y-129030163D02*
X93856866Y-128934925D01*
X93142580Y-130458734D02*
X93142580Y-129887306D01*
X93142580Y-130173020D02*
X94142580Y-130173020D01*
X94142580Y-130173020D02*
X93999723Y-130077782D01*
X93999723Y-130077782D02*
X93904485Y-129982544D01*
X93904485Y-129982544D02*
X93856866Y-129887306D01*
X85522580Y-128077782D02*
X86522580Y-128077782D01*
X86522580Y-128077782D02*
X86522580Y-128458734D01*
X86522580Y-128458734D02*
X86474961Y-128553972D01*
X86474961Y-128553972D02*
X86427342Y-128601591D01*
X86427342Y-128601591D02*
X86332104Y-128649210D01*
X86332104Y-128649210D02*
X86189247Y-128649210D01*
X86189247Y-128649210D02*
X86094009Y-128601591D01*
X86094009Y-128601591D02*
X86046390Y-128553972D01*
X86046390Y-128553972D02*
X85998771Y-128458734D01*
X85998771Y-128458734D02*
X85998771Y-128077782D01*
X85808295Y-129030163D02*
X85808295Y-129506353D01*
X85522580Y-128934925D02*
X86522580Y-129268258D01*
X86522580Y-129268258D02*
X85522580Y-129601591D01*
X86094009Y-130077782D02*
X86141628Y-129982544D01*
X86141628Y-129982544D02*
X86189247Y-129934925D01*
X86189247Y-129934925D02*
X86284485Y-129887306D01*
X86284485Y-129887306D02*
X86332104Y-129887306D01*
X86332104Y-129887306D02*
X86427342Y-129934925D01*
X86427342Y-129934925D02*
X86474961Y-129982544D01*
X86474961Y-129982544D02*
X86522580Y-130077782D01*
X86522580Y-130077782D02*
X86522580Y-130268258D01*
X86522580Y-130268258D02*
X86474961Y-130363496D01*
X86474961Y-130363496D02*
X86427342Y-130411115D01*
X86427342Y-130411115D02*
X86332104Y-130458734D01*
X86332104Y-130458734D02*
X86284485Y-130458734D01*
X86284485Y-130458734D02*
X86189247Y-130411115D01*
X86189247Y-130411115D02*
X86141628Y-130363496D01*
X86141628Y-130363496D02*
X86094009Y-130268258D01*
X86094009Y-130268258D02*
X86094009Y-130077782D01*
X86094009Y-130077782D02*
X86046390Y-129982544D01*
X86046390Y-129982544D02*
X85998771Y-129934925D01*
X85998771Y-129934925D02*
X85903533Y-129887306D01*
X85903533Y-129887306D02*
X85713057Y-129887306D01*
X85713057Y-129887306D02*
X85617819Y-129934925D01*
X85617819Y-129934925D02*
X85570200Y-129982544D01*
X85570200Y-129982544D02*
X85522580Y-130077782D01*
X85522580Y-130077782D02*
X85522580Y-130268258D01*
X85522580Y-130268258D02*
X85570200Y-130363496D01*
X85570200Y-130363496D02*
X85617819Y-130411115D01*
X85617819Y-130411115D02*
X85713057Y-130458734D01*
X85713057Y-130458734D02*
X85903533Y-130458734D01*
X85903533Y-130458734D02*
X85998771Y-130411115D01*
X85998771Y-130411115D02*
X86046390Y-130363496D01*
X86046390Y-130363496D02*
X86094009Y-130268258D01*
X82982580Y-120160312D02*
X83458771Y-119826979D01*
X82982580Y-119588884D02*
X83982580Y-119588884D01*
X83982580Y-119588884D02*
X83982580Y-119969836D01*
X83982580Y-119969836D02*
X83934961Y-120065074D01*
X83934961Y-120065074D02*
X83887342Y-120112693D01*
X83887342Y-120112693D02*
X83792104Y-120160312D01*
X83792104Y-120160312D02*
X83649247Y-120160312D01*
X83649247Y-120160312D02*
X83554009Y-120112693D01*
X83554009Y-120112693D02*
X83506390Y-120065074D01*
X83506390Y-120065074D02*
X83458771Y-119969836D01*
X83458771Y-119969836D02*
X83458771Y-119588884D01*
X83030200Y-120541265D02*
X82982580Y-120684122D01*
X82982580Y-120684122D02*
X82982580Y-120922217D01*
X82982580Y-120922217D02*
X83030200Y-121017455D01*
X83030200Y-121017455D02*
X83077819Y-121065074D01*
X83077819Y-121065074D02*
X83173057Y-121112693D01*
X83173057Y-121112693D02*
X83268295Y-121112693D01*
X83268295Y-121112693D02*
X83363533Y-121065074D01*
X83363533Y-121065074D02*
X83411152Y-121017455D01*
X83411152Y-121017455D02*
X83458771Y-120922217D01*
X83458771Y-120922217D02*
X83506390Y-120731741D01*
X83506390Y-120731741D02*
X83554009Y-120636503D01*
X83554009Y-120636503D02*
X83601628Y-120588884D01*
X83601628Y-120588884D02*
X83696866Y-120541265D01*
X83696866Y-120541265D02*
X83792104Y-120541265D01*
X83792104Y-120541265D02*
X83887342Y-120588884D01*
X83887342Y-120588884D02*
X83934961Y-120636503D01*
X83934961Y-120636503D02*
X83982580Y-120731741D01*
X83982580Y-120731741D02*
X83982580Y-120969836D01*
X83982580Y-120969836D02*
X83934961Y-121112693D01*
X83982580Y-121398408D02*
X83982580Y-121969836D01*
X82982580Y-121684122D02*
X83982580Y-121684122D01*
X116002580Y-119588884D02*
X117002580Y-119588884D01*
X117002580Y-119588884D02*
X117002580Y-119969836D01*
X117002580Y-119969836D02*
X116954961Y-120065074D01*
X116954961Y-120065074D02*
X116907342Y-120112693D01*
X116907342Y-120112693D02*
X116812104Y-120160312D01*
X116812104Y-120160312D02*
X116669247Y-120160312D01*
X116669247Y-120160312D02*
X116574009Y-120112693D01*
X116574009Y-120112693D02*
X116526390Y-120065074D01*
X116526390Y-120065074D02*
X116478771Y-119969836D01*
X116478771Y-119969836D02*
X116478771Y-119588884D01*
X116097819Y-121160312D02*
X116050200Y-121112693D01*
X116050200Y-121112693D02*
X116002580Y-120969836D01*
X116002580Y-120969836D02*
X116002580Y-120874598D01*
X116002580Y-120874598D02*
X116050200Y-120731741D01*
X116050200Y-120731741D02*
X116145438Y-120636503D01*
X116145438Y-120636503D02*
X116240676Y-120588884D01*
X116240676Y-120588884D02*
X116431152Y-120541265D01*
X116431152Y-120541265D02*
X116574009Y-120541265D01*
X116574009Y-120541265D02*
X116764485Y-120588884D01*
X116764485Y-120588884D02*
X116859723Y-120636503D01*
X116859723Y-120636503D02*
X116954961Y-120731741D01*
X116954961Y-120731741D02*
X117002580Y-120874598D01*
X117002580Y-120874598D02*
X117002580Y-120969836D01*
X117002580Y-120969836D02*
X116954961Y-121112693D01*
X116954961Y-121112693D02*
X116907342Y-121160312D01*
X116002580Y-122112693D02*
X116002580Y-121541265D01*
X116002580Y-121826979D02*
X117002580Y-121826979D01*
X117002580Y-121826979D02*
X116859723Y-121731741D01*
X116859723Y-121731741D02*
X116764485Y-121636503D01*
X116764485Y-121636503D02*
X116716866Y-121541265D01*
X117002580Y-123017455D02*
X117002580Y-122541265D01*
X117002580Y-122541265D02*
X116526390Y-122493646D01*
X116526390Y-122493646D02*
X116574009Y-122541265D01*
X116574009Y-122541265D02*
X116621628Y-122636503D01*
X116621628Y-122636503D02*
X116621628Y-122874598D01*
X116621628Y-122874598D02*
X116574009Y-122969836D01*
X116574009Y-122969836D02*
X116526390Y-123017455D01*
X116526390Y-123017455D02*
X116431152Y-123065074D01*
X116431152Y-123065074D02*
X116193057Y-123065074D01*
X116193057Y-123065074D02*
X116097819Y-123017455D01*
X116097819Y-123017455D02*
X116050200Y-122969836D01*
X116050200Y-122969836D02*
X116002580Y-122874598D01*
X116002580Y-122874598D02*
X116002580Y-122636503D01*
X116002580Y-122636503D02*
X116050200Y-122541265D01*
X116050200Y-122541265D02*
X116097819Y-122493646D01*
X100762580Y-119588884D02*
X101762580Y-119588884D01*
X101762580Y-119588884D02*
X101762580Y-119969836D01*
X101762580Y-119969836D02*
X101714961Y-120065074D01*
X101714961Y-120065074D02*
X101667342Y-120112693D01*
X101667342Y-120112693D02*
X101572104Y-120160312D01*
X101572104Y-120160312D02*
X101429247Y-120160312D01*
X101429247Y-120160312D02*
X101334009Y-120112693D01*
X101334009Y-120112693D02*
X101286390Y-120065074D01*
X101286390Y-120065074D02*
X101238771Y-119969836D01*
X101238771Y-119969836D02*
X101238771Y-119588884D01*
X101048295Y-120541265D02*
X101048295Y-121017455D01*
X100762580Y-120446027D02*
X101762580Y-120779360D01*
X101762580Y-120779360D02*
X100762580Y-121112693D01*
X101762580Y-121922217D02*
X101762580Y-121446027D01*
X101762580Y-121446027D02*
X101286390Y-121398408D01*
X101286390Y-121398408D02*
X101334009Y-121446027D01*
X101334009Y-121446027D02*
X101381628Y-121541265D01*
X101381628Y-121541265D02*
X101381628Y-121779360D01*
X101381628Y-121779360D02*
X101334009Y-121874598D01*
X101334009Y-121874598D02*
X101286390Y-121922217D01*
X101286390Y-121922217D02*
X101191152Y-121969836D01*
X101191152Y-121969836D02*
X100953057Y-121969836D01*
X100953057Y-121969836D02*
X100857819Y-121922217D01*
X100857819Y-121922217D02*
X100810200Y-121874598D01*
X100810200Y-121874598D02*
X100762580Y-121779360D01*
X100762580Y-121779360D02*
X100762580Y-121541265D01*
X100762580Y-121541265D02*
X100810200Y-121446027D01*
X100810200Y-121446027D02*
X100857819Y-121398408D01*
X122034961Y-128363496D02*
X122082580Y-128268258D01*
X122082580Y-128268258D02*
X122082580Y-128125401D01*
X122082580Y-128125401D02*
X122034961Y-127982544D01*
X122034961Y-127982544D02*
X121939723Y-127887306D01*
X121939723Y-127887306D02*
X121844485Y-127839687D01*
X121844485Y-127839687D02*
X121654009Y-127792068D01*
X121654009Y-127792068D02*
X121511152Y-127792068D01*
X121511152Y-127792068D02*
X121320676Y-127839687D01*
X121320676Y-127839687D02*
X121225438Y-127887306D01*
X121225438Y-127887306D02*
X121130200Y-127982544D01*
X121130200Y-127982544D02*
X121082580Y-128125401D01*
X121082580Y-128125401D02*
X121082580Y-128220639D01*
X121082580Y-128220639D02*
X121130200Y-128363496D01*
X121130200Y-128363496D02*
X121177819Y-128411115D01*
X121177819Y-128411115D02*
X121511152Y-128411115D01*
X121511152Y-128411115D02*
X121511152Y-128220639D01*
X121082580Y-128839687D02*
X122082580Y-128839687D01*
X122082580Y-128839687D02*
X121082580Y-129411115D01*
X121082580Y-129411115D02*
X122082580Y-129411115D01*
X121082580Y-129887306D02*
X122082580Y-129887306D01*
X122082580Y-129887306D02*
X122082580Y-130125401D01*
X122082580Y-130125401D02*
X122034961Y-130268258D01*
X122034961Y-130268258D02*
X121939723Y-130363496D01*
X121939723Y-130363496D02*
X121844485Y-130411115D01*
X121844485Y-130411115D02*
X121654009Y-130458734D01*
X121654009Y-130458734D02*
X121511152Y-130458734D01*
X121511152Y-130458734D02*
X121320676Y-130411115D01*
X121320676Y-130411115D02*
X121225438Y-130363496D01*
X121225438Y-130363496D02*
X121130200Y-130268258D01*
X121130200Y-130268258D02*
X121082580Y-130125401D01*
X121082580Y-130125401D02*
X121082580Y-129887306D01*
X121082580Y-119588884D02*
X122082580Y-119588884D01*
X122082580Y-119588884D02*
X122082580Y-119969836D01*
X122082580Y-119969836D02*
X122034961Y-120065074D01*
X122034961Y-120065074D02*
X121987342Y-120112693D01*
X121987342Y-120112693D02*
X121892104Y-120160312D01*
X121892104Y-120160312D02*
X121749247Y-120160312D01*
X121749247Y-120160312D02*
X121654009Y-120112693D01*
X121654009Y-120112693D02*
X121606390Y-120065074D01*
X121606390Y-120065074D02*
X121558771Y-119969836D01*
X121558771Y-119969836D02*
X121558771Y-119588884D01*
X121177819Y-121160312D02*
X121130200Y-121112693D01*
X121130200Y-121112693D02*
X121082580Y-120969836D01*
X121082580Y-120969836D02*
X121082580Y-120874598D01*
X121082580Y-120874598D02*
X121130200Y-120731741D01*
X121130200Y-120731741D02*
X121225438Y-120636503D01*
X121225438Y-120636503D02*
X121320676Y-120588884D01*
X121320676Y-120588884D02*
X121511152Y-120541265D01*
X121511152Y-120541265D02*
X121654009Y-120541265D01*
X121654009Y-120541265D02*
X121844485Y-120588884D01*
X121844485Y-120588884D02*
X121939723Y-120636503D01*
X121939723Y-120636503D02*
X122034961Y-120731741D01*
X122034961Y-120731741D02*
X122082580Y-120874598D01*
X122082580Y-120874598D02*
X122082580Y-120969836D01*
X122082580Y-120969836D02*
X122034961Y-121112693D01*
X122034961Y-121112693D02*
X121987342Y-121160312D01*
X121082580Y-122112693D02*
X121082580Y-121541265D01*
X121082580Y-121826979D02*
X122082580Y-121826979D01*
X122082580Y-121826979D02*
X121939723Y-121731741D01*
X121939723Y-121731741D02*
X121844485Y-121636503D01*
X121844485Y-121636503D02*
X121796866Y-121541265D01*
X122082580Y-122446027D02*
X122082580Y-123065074D01*
X122082580Y-123065074D02*
X121701628Y-122731741D01*
X121701628Y-122731741D02*
X121701628Y-122874598D01*
X121701628Y-122874598D02*
X121654009Y-122969836D01*
X121654009Y-122969836D02*
X121606390Y-123017455D01*
X121606390Y-123017455D02*
X121511152Y-123065074D01*
X121511152Y-123065074D02*
X121273057Y-123065074D01*
X121273057Y-123065074D02*
X121177819Y-123017455D01*
X121177819Y-123017455D02*
X121130200Y-122969836D01*
X121130200Y-122969836D02*
X121082580Y-122874598D01*
X121082580Y-122874598D02*
X121082580Y-122588884D01*
X121082580Y-122588884D02*
X121130200Y-122493646D01*
X121130200Y-122493646D02*
X121177819Y-122446027D01*
X108382580Y-119588884D02*
X109382580Y-119588884D01*
X109382580Y-119588884D02*
X109382580Y-119969836D01*
X109382580Y-119969836D02*
X109334961Y-120065074D01*
X109334961Y-120065074D02*
X109287342Y-120112693D01*
X109287342Y-120112693D02*
X109192104Y-120160312D01*
X109192104Y-120160312D02*
X109049247Y-120160312D01*
X109049247Y-120160312D02*
X108954009Y-120112693D01*
X108954009Y-120112693D02*
X108906390Y-120065074D01*
X108906390Y-120065074D02*
X108858771Y-119969836D01*
X108858771Y-119969836D02*
X108858771Y-119588884D01*
X108668295Y-120541265D02*
X108668295Y-121017455D01*
X108382580Y-120446027D02*
X109382580Y-120779360D01*
X109382580Y-120779360D02*
X108382580Y-121112693D01*
X109287342Y-121398408D02*
X109334961Y-121446027D01*
X109334961Y-121446027D02*
X109382580Y-121541265D01*
X109382580Y-121541265D02*
X109382580Y-121779360D01*
X109382580Y-121779360D02*
X109334961Y-121874598D01*
X109334961Y-121874598D02*
X109287342Y-121922217D01*
X109287342Y-121922217D02*
X109192104Y-121969836D01*
X109192104Y-121969836D02*
X109096866Y-121969836D01*
X109096866Y-121969836D02*
X108954009Y-121922217D01*
X108954009Y-121922217D02*
X108382580Y-121350789D01*
X108382580Y-121350789D02*
X108382580Y-121969836D01*
X108382580Y-127934925D02*
X109382580Y-127934925D01*
X109382580Y-127934925D02*
X109382580Y-128315877D01*
X109382580Y-128315877D02*
X109334961Y-128411115D01*
X109334961Y-128411115D02*
X109287342Y-128458734D01*
X109287342Y-128458734D02*
X109192104Y-128506353D01*
X109192104Y-128506353D02*
X109049247Y-128506353D01*
X109049247Y-128506353D02*
X108954009Y-128458734D01*
X108954009Y-128458734D02*
X108906390Y-128411115D01*
X108906390Y-128411115D02*
X108858771Y-128315877D01*
X108858771Y-128315877D02*
X108858771Y-127934925D01*
X108906390Y-129268258D02*
X108858771Y-129411115D01*
X108858771Y-129411115D02*
X108811152Y-129458734D01*
X108811152Y-129458734D02*
X108715914Y-129506353D01*
X108715914Y-129506353D02*
X108573057Y-129506353D01*
X108573057Y-129506353D02*
X108477819Y-129458734D01*
X108477819Y-129458734D02*
X108430200Y-129411115D01*
X108430200Y-129411115D02*
X108382580Y-129315877D01*
X108382580Y-129315877D02*
X108382580Y-128934925D01*
X108382580Y-128934925D02*
X109382580Y-128934925D01*
X109382580Y-128934925D02*
X109382580Y-129268258D01*
X109382580Y-129268258D02*
X109334961Y-129363496D01*
X109334961Y-129363496D02*
X109287342Y-129411115D01*
X109287342Y-129411115D02*
X109192104Y-129458734D01*
X109192104Y-129458734D02*
X109096866Y-129458734D01*
X109096866Y-129458734D02*
X109001628Y-129411115D01*
X109001628Y-129411115D02*
X108954009Y-129363496D01*
X108954009Y-129363496D02*
X108906390Y-129268258D01*
X108906390Y-129268258D02*
X108906390Y-128934925D01*
X109382580Y-130363496D02*
X109382580Y-130173020D01*
X109382580Y-130173020D02*
X109334961Y-130077782D01*
X109334961Y-130077782D02*
X109287342Y-130030163D01*
X109287342Y-130030163D02*
X109144485Y-129934925D01*
X109144485Y-129934925D02*
X108954009Y-129887306D01*
X108954009Y-129887306D02*
X108573057Y-129887306D01*
X108573057Y-129887306D02*
X108477819Y-129934925D01*
X108477819Y-129934925D02*
X108430200Y-129982544D01*
X108430200Y-129982544D02*
X108382580Y-130077782D01*
X108382580Y-130077782D02*
X108382580Y-130268258D01*
X108382580Y-130268258D02*
X108430200Y-130363496D01*
X108430200Y-130363496D02*
X108477819Y-130411115D01*
X108477819Y-130411115D02*
X108573057Y-130458734D01*
X108573057Y-130458734D02*
X108811152Y-130458734D01*
X108811152Y-130458734D02*
X108906390Y-130411115D01*
X108906390Y-130411115D02*
X108954009Y-130363496D01*
X108954009Y-130363496D02*
X109001628Y-130268258D01*
X109001628Y-130268258D02*
X109001628Y-130077782D01*
X109001628Y-130077782D02*
X108954009Y-129982544D01*
X108954009Y-129982544D02*
X108906390Y-129934925D01*
X108906390Y-129934925D02*
X108811152Y-129887306D01*
X116002580Y-127934925D02*
X117002580Y-127934925D01*
X117002580Y-127934925D02*
X117002580Y-128315877D01*
X117002580Y-128315877D02*
X116954961Y-128411115D01*
X116954961Y-128411115D02*
X116907342Y-128458734D01*
X116907342Y-128458734D02*
X116812104Y-128506353D01*
X116812104Y-128506353D02*
X116669247Y-128506353D01*
X116669247Y-128506353D02*
X116574009Y-128458734D01*
X116574009Y-128458734D02*
X116526390Y-128411115D01*
X116526390Y-128411115D02*
X116478771Y-128315877D01*
X116478771Y-128315877D02*
X116478771Y-127934925D01*
X116526390Y-129268258D02*
X116478771Y-129411115D01*
X116478771Y-129411115D02*
X116431152Y-129458734D01*
X116431152Y-129458734D02*
X116335914Y-129506353D01*
X116335914Y-129506353D02*
X116193057Y-129506353D01*
X116193057Y-129506353D02*
X116097819Y-129458734D01*
X116097819Y-129458734D02*
X116050200Y-129411115D01*
X116050200Y-129411115D02*
X116002580Y-129315877D01*
X116002580Y-129315877D02*
X116002580Y-128934925D01*
X116002580Y-128934925D02*
X117002580Y-128934925D01*
X117002580Y-128934925D02*
X117002580Y-129268258D01*
X117002580Y-129268258D02*
X116954961Y-129363496D01*
X116954961Y-129363496D02*
X116907342Y-129411115D01*
X116907342Y-129411115D02*
X116812104Y-129458734D01*
X116812104Y-129458734D02*
X116716866Y-129458734D01*
X116716866Y-129458734D02*
X116621628Y-129411115D01*
X116621628Y-129411115D02*
X116574009Y-129363496D01*
X116574009Y-129363496D02*
X116526390Y-129268258D01*
X116526390Y-129268258D02*
X116526390Y-128934925D01*
X116002580Y-129982544D02*
X116002580Y-130173020D01*
X116002580Y-130173020D02*
X116050200Y-130268258D01*
X116050200Y-130268258D02*
X116097819Y-130315877D01*
X116097819Y-130315877D02*
X116240676Y-130411115D01*
X116240676Y-130411115D02*
X116431152Y-130458734D01*
X116431152Y-130458734D02*
X116812104Y-130458734D01*
X116812104Y-130458734D02*
X116907342Y-130411115D01*
X116907342Y-130411115D02*
X116954961Y-130363496D01*
X116954961Y-130363496D02*
X117002580Y-130268258D01*
X117002580Y-130268258D02*
X117002580Y-130077782D01*
X117002580Y-130077782D02*
X116954961Y-129982544D01*
X116954961Y-129982544D02*
X116907342Y-129934925D01*
X116907342Y-129934925D02*
X116812104Y-129887306D01*
X116812104Y-129887306D02*
X116574009Y-129887306D01*
X116574009Y-129887306D02*
X116478771Y-129934925D01*
X116478771Y-129934925D02*
X116431152Y-129982544D01*
X116431152Y-129982544D02*
X116383533Y-130077782D01*
X116383533Y-130077782D02*
X116383533Y-130268258D01*
X116383533Y-130268258D02*
X116431152Y-130363496D01*
X116431152Y-130363496D02*
X116478771Y-130411115D01*
X116478771Y-130411115D02*
X116574009Y-130458734D01*
X85522580Y-119588884D02*
X86522580Y-119588884D01*
X86522580Y-119588884D02*
X86522580Y-119969836D01*
X86522580Y-119969836D02*
X86474961Y-120065074D01*
X86474961Y-120065074D02*
X86427342Y-120112693D01*
X86427342Y-120112693D02*
X86332104Y-120160312D01*
X86332104Y-120160312D02*
X86189247Y-120160312D01*
X86189247Y-120160312D02*
X86094009Y-120112693D01*
X86094009Y-120112693D02*
X86046390Y-120065074D01*
X86046390Y-120065074D02*
X85998771Y-119969836D01*
X85998771Y-119969836D02*
X85998771Y-119588884D01*
X86046390Y-120922217D02*
X85998771Y-121065074D01*
X85998771Y-121065074D02*
X85951152Y-121112693D01*
X85951152Y-121112693D02*
X85855914Y-121160312D01*
X85855914Y-121160312D02*
X85713057Y-121160312D01*
X85713057Y-121160312D02*
X85617819Y-121112693D01*
X85617819Y-121112693D02*
X85570200Y-121065074D01*
X85570200Y-121065074D02*
X85522580Y-120969836D01*
X85522580Y-120969836D02*
X85522580Y-120588884D01*
X85522580Y-120588884D02*
X86522580Y-120588884D01*
X86522580Y-120588884D02*
X86522580Y-120922217D01*
X86522580Y-120922217D02*
X86474961Y-121017455D01*
X86474961Y-121017455D02*
X86427342Y-121065074D01*
X86427342Y-121065074D02*
X86332104Y-121112693D01*
X86332104Y-121112693D02*
X86236866Y-121112693D01*
X86236866Y-121112693D02*
X86141628Y-121065074D01*
X86141628Y-121065074D02*
X86094009Y-121017455D01*
X86094009Y-121017455D02*
X86046390Y-120922217D01*
X86046390Y-120922217D02*
X86046390Y-120588884D01*
X85522580Y-122112693D02*
X85522580Y-121541265D01*
X85522580Y-121826979D02*
X86522580Y-121826979D01*
X86522580Y-121826979D02*
X86379723Y-121731741D01*
X86379723Y-121731741D02*
X86284485Y-121636503D01*
X86284485Y-121636503D02*
X86236866Y-121541265D01*
X85522580Y-123065074D02*
X85522580Y-122493646D01*
X85522580Y-122779360D02*
X86522580Y-122779360D01*
X86522580Y-122779360D02*
X86379723Y-122684122D01*
X86379723Y-122684122D02*
X86284485Y-122588884D01*
X86284485Y-122588884D02*
X86236866Y-122493646D01*
X95682580Y-119588884D02*
X96682580Y-119588884D01*
X96682580Y-119588884D02*
X96682580Y-119969836D01*
X96682580Y-119969836D02*
X96634961Y-120065074D01*
X96634961Y-120065074D02*
X96587342Y-120112693D01*
X96587342Y-120112693D02*
X96492104Y-120160312D01*
X96492104Y-120160312D02*
X96349247Y-120160312D01*
X96349247Y-120160312D02*
X96254009Y-120112693D01*
X96254009Y-120112693D02*
X96206390Y-120065074D01*
X96206390Y-120065074D02*
X96158771Y-119969836D01*
X96158771Y-119969836D02*
X96158771Y-119588884D01*
X95968295Y-120541265D02*
X95968295Y-121017455D01*
X95682580Y-120446027D02*
X96682580Y-120779360D01*
X96682580Y-120779360D02*
X95682580Y-121112693D01*
X96682580Y-121350789D02*
X96682580Y-122017455D01*
X96682580Y-122017455D02*
X95682580Y-121588884D01*
X105842580Y-119588884D02*
X106842580Y-119588884D01*
X106842580Y-119588884D02*
X106842580Y-119969836D01*
X106842580Y-119969836D02*
X106794961Y-120065074D01*
X106794961Y-120065074D02*
X106747342Y-120112693D01*
X106747342Y-120112693D02*
X106652104Y-120160312D01*
X106652104Y-120160312D02*
X106509247Y-120160312D01*
X106509247Y-120160312D02*
X106414009Y-120112693D01*
X106414009Y-120112693D02*
X106366390Y-120065074D01*
X106366390Y-120065074D02*
X106318771Y-119969836D01*
X106318771Y-119969836D02*
X106318771Y-119588884D01*
X106128295Y-120541265D02*
X106128295Y-121017455D01*
X105842580Y-120446027D02*
X106842580Y-120779360D01*
X106842580Y-120779360D02*
X105842580Y-121112693D01*
X106842580Y-121350789D02*
X106842580Y-121969836D01*
X106842580Y-121969836D02*
X106461628Y-121636503D01*
X106461628Y-121636503D02*
X106461628Y-121779360D01*
X106461628Y-121779360D02*
X106414009Y-121874598D01*
X106414009Y-121874598D02*
X106366390Y-121922217D01*
X106366390Y-121922217D02*
X106271152Y-121969836D01*
X106271152Y-121969836D02*
X106033057Y-121969836D01*
X106033057Y-121969836D02*
X105937819Y-121922217D01*
X105937819Y-121922217D02*
X105890200Y-121874598D01*
X105890200Y-121874598D02*
X105842580Y-121779360D01*
X105842580Y-121779360D02*
X105842580Y-121493646D01*
X105842580Y-121493646D02*
X105890200Y-121398408D01*
X105890200Y-121398408D02*
X105937819Y-121350789D01*
X88062580Y-119588884D02*
X89062580Y-119588884D01*
X89062580Y-119588884D02*
X89062580Y-119969836D01*
X89062580Y-119969836D02*
X89014961Y-120065074D01*
X89014961Y-120065074D02*
X88967342Y-120112693D01*
X88967342Y-120112693D02*
X88872104Y-120160312D01*
X88872104Y-120160312D02*
X88729247Y-120160312D01*
X88729247Y-120160312D02*
X88634009Y-120112693D01*
X88634009Y-120112693D02*
X88586390Y-120065074D01*
X88586390Y-120065074D02*
X88538771Y-119969836D01*
X88538771Y-119969836D02*
X88538771Y-119588884D01*
X88586390Y-120922217D02*
X88538771Y-121065074D01*
X88538771Y-121065074D02*
X88491152Y-121112693D01*
X88491152Y-121112693D02*
X88395914Y-121160312D01*
X88395914Y-121160312D02*
X88253057Y-121160312D01*
X88253057Y-121160312D02*
X88157819Y-121112693D01*
X88157819Y-121112693D02*
X88110200Y-121065074D01*
X88110200Y-121065074D02*
X88062580Y-120969836D01*
X88062580Y-120969836D02*
X88062580Y-120588884D01*
X88062580Y-120588884D02*
X89062580Y-120588884D01*
X89062580Y-120588884D02*
X89062580Y-120922217D01*
X89062580Y-120922217D02*
X89014961Y-121017455D01*
X89014961Y-121017455D02*
X88967342Y-121065074D01*
X88967342Y-121065074D02*
X88872104Y-121112693D01*
X88872104Y-121112693D02*
X88776866Y-121112693D01*
X88776866Y-121112693D02*
X88681628Y-121065074D01*
X88681628Y-121065074D02*
X88634009Y-121017455D01*
X88634009Y-121017455D02*
X88586390Y-120922217D01*
X88586390Y-120922217D02*
X88586390Y-120588884D01*
X88062580Y-122112693D02*
X88062580Y-121541265D01*
X88062580Y-121826979D02*
X89062580Y-121826979D01*
X89062580Y-121826979D02*
X88919723Y-121731741D01*
X88919723Y-121731741D02*
X88824485Y-121636503D01*
X88824485Y-121636503D02*
X88776866Y-121541265D01*
X89062580Y-122731741D02*
X89062580Y-122826979D01*
X89062580Y-122826979D02*
X89014961Y-122922217D01*
X89014961Y-122922217D02*
X88967342Y-122969836D01*
X88967342Y-122969836D02*
X88872104Y-123017455D01*
X88872104Y-123017455D02*
X88681628Y-123065074D01*
X88681628Y-123065074D02*
X88443533Y-123065074D01*
X88443533Y-123065074D02*
X88253057Y-123017455D01*
X88253057Y-123017455D02*
X88157819Y-122969836D01*
X88157819Y-122969836D02*
X88110200Y-122922217D01*
X88110200Y-122922217D02*
X88062580Y-122826979D01*
X88062580Y-122826979D02*
X88062580Y-122731741D01*
X88062580Y-122731741D02*
X88110200Y-122636503D01*
X88110200Y-122636503D02*
X88157819Y-122588884D01*
X88157819Y-122588884D02*
X88253057Y-122541265D01*
X88253057Y-122541265D02*
X88443533Y-122493646D01*
X88443533Y-122493646D02*
X88681628Y-122493646D01*
X88681628Y-122493646D02*
X88872104Y-122541265D01*
X88872104Y-122541265D02*
X88967342Y-122588884D01*
X88967342Y-122588884D02*
X89014961Y-122636503D01*
X89014961Y-122636503D02*
X89062580Y-122731741D01*
X110922580Y-119588884D02*
X111922580Y-119588884D01*
X111922580Y-119588884D02*
X111922580Y-119969836D01*
X111922580Y-119969836D02*
X111874961Y-120065074D01*
X111874961Y-120065074D02*
X111827342Y-120112693D01*
X111827342Y-120112693D02*
X111732104Y-120160312D01*
X111732104Y-120160312D02*
X111589247Y-120160312D01*
X111589247Y-120160312D02*
X111494009Y-120112693D01*
X111494009Y-120112693D02*
X111446390Y-120065074D01*
X111446390Y-120065074D02*
X111398771Y-119969836D01*
X111398771Y-119969836D02*
X111398771Y-119588884D01*
X111208295Y-120541265D02*
X111208295Y-121017455D01*
X110922580Y-120446027D02*
X111922580Y-120779360D01*
X111922580Y-120779360D02*
X110922580Y-121112693D01*
X110922580Y-121969836D02*
X110922580Y-121398408D01*
X110922580Y-121684122D02*
X111922580Y-121684122D01*
X111922580Y-121684122D02*
X111779723Y-121588884D01*
X111779723Y-121588884D02*
X111684485Y-121493646D01*
X111684485Y-121493646D02*
X111636866Y-121398408D01*
X119542580Y-129553972D02*
X119542580Y-129077782D01*
X119542580Y-129077782D02*
X119066390Y-129030163D01*
X119066390Y-129030163D02*
X119114009Y-129077782D01*
X119114009Y-129077782D02*
X119161628Y-129173020D01*
X119161628Y-129173020D02*
X119161628Y-129411115D01*
X119161628Y-129411115D02*
X119114009Y-129506353D01*
X119114009Y-129506353D02*
X119066390Y-129553972D01*
X119066390Y-129553972D02*
X118971152Y-129601591D01*
X118971152Y-129601591D02*
X118733057Y-129601591D01*
X118733057Y-129601591D02*
X118637819Y-129553972D01*
X118637819Y-129553972D02*
X118590200Y-129506353D01*
X118590200Y-129506353D02*
X118542580Y-129411115D01*
X118542580Y-129411115D02*
X118542580Y-129173020D01*
X118542580Y-129173020D02*
X118590200Y-129077782D01*
X118590200Y-129077782D02*
X118637819Y-129030163D01*
X119542580Y-129887306D02*
X118542580Y-130220639D01*
X118542580Y-130220639D02*
X119542580Y-130553972D01*
X95682580Y-127125401D02*
X96682580Y-127125401D01*
X96682580Y-127125401D02*
X96682580Y-127506353D01*
X96682580Y-127506353D02*
X96634961Y-127601591D01*
X96634961Y-127601591D02*
X96587342Y-127649210D01*
X96587342Y-127649210D02*
X96492104Y-127696829D01*
X96492104Y-127696829D02*
X96349247Y-127696829D01*
X96349247Y-127696829D02*
X96254009Y-127649210D01*
X96254009Y-127649210D02*
X96206390Y-127601591D01*
X96206390Y-127601591D02*
X96158771Y-127506353D01*
X96158771Y-127506353D02*
X96158771Y-127125401D01*
X95968295Y-128077782D02*
X95968295Y-128553972D01*
X95682580Y-127982544D02*
X96682580Y-128315877D01*
X96682580Y-128315877D02*
X95682580Y-128649210D01*
X95682580Y-129506353D02*
X95682580Y-128934925D01*
X95682580Y-129220639D02*
X96682580Y-129220639D01*
X96682580Y-129220639D02*
X96539723Y-129125401D01*
X96539723Y-129125401D02*
X96444485Y-129030163D01*
X96444485Y-129030163D02*
X96396866Y-128934925D01*
X96587342Y-129887306D02*
X96634961Y-129934925D01*
X96634961Y-129934925D02*
X96682580Y-130030163D01*
X96682580Y-130030163D02*
X96682580Y-130268258D01*
X96682580Y-130268258D02*
X96634961Y-130363496D01*
X96634961Y-130363496D02*
X96587342Y-130411115D01*
X96587342Y-130411115D02*
X96492104Y-130458734D01*
X96492104Y-130458734D02*
X96396866Y-130458734D01*
X96396866Y-130458734D02*
X96254009Y-130411115D01*
X96254009Y-130411115D02*
X95682580Y-129839687D01*
X95682580Y-129839687D02*
X95682580Y-130458734D01*
X90602580Y-127125401D02*
X91602580Y-127125401D01*
X91602580Y-127125401D02*
X91602580Y-127506353D01*
X91602580Y-127506353D02*
X91554961Y-127601591D01*
X91554961Y-127601591D02*
X91507342Y-127649210D01*
X91507342Y-127649210D02*
X91412104Y-127696829D01*
X91412104Y-127696829D02*
X91269247Y-127696829D01*
X91269247Y-127696829D02*
X91174009Y-127649210D01*
X91174009Y-127649210D02*
X91126390Y-127601591D01*
X91126390Y-127601591D02*
X91078771Y-127506353D01*
X91078771Y-127506353D02*
X91078771Y-127125401D01*
X90888295Y-128077782D02*
X90888295Y-128553972D01*
X90602580Y-127982544D02*
X91602580Y-128315877D01*
X91602580Y-128315877D02*
X90602580Y-128649210D01*
X90602580Y-129506353D02*
X90602580Y-128934925D01*
X90602580Y-129220639D02*
X91602580Y-129220639D01*
X91602580Y-129220639D02*
X91459723Y-129125401D01*
X91459723Y-129125401D02*
X91364485Y-129030163D01*
X91364485Y-129030163D02*
X91316866Y-128934925D01*
X91602580Y-130125401D02*
X91602580Y-130220639D01*
X91602580Y-130220639D02*
X91554961Y-130315877D01*
X91554961Y-130315877D02*
X91507342Y-130363496D01*
X91507342Y-130363496D02*
X91412104Y-130411115D01*
X91412104Y-130411115D02*
X91221628Y-130458734D01*
X91221628Y-130458734D02*
X90983533Y-130458734D01*
X90983533Y-130458734D02*
X90793057Y-130411115D01*
X90793057Y-130411115D02*
X90697819Y-130363496D01*
X90697819Y-130363496D02*
X90650200Y-130315877D01*
X90650200Y-130315877D02*
X90602580Y-130220639D01*
X90602580Y-130220639D02*
X90602580Y-130125401D01*
X90602580Y-130125401D02*
X90650200Y-130030163D01*
X90650200Y-130030163D02*
X90697819Y-129982544D01*
X90697819Y-129982544D02*
X90793057Y-129934925D01*
X90793057Y-129934925D02*
X90983533Y-129887306D01*
X90983533Y-129887306D02*
X91221628Y-129887306D01*
X91221628Y-129887306D02*
X91412104Y-129934925D01*
X91412104Y-129934925D02*
X91507342Y-129982544D01*
X91507342Y-129982544D02*
X91554961Y-130030163D01*
X91554961Y-130030163D02*
X91602580Y-130125401D01*
X103302580Y-127934925D02*
X104302580Y-127934925D01*
X104302580Y-127934925D02*
X104302580Y-128315877D01*
X104302580Y-128315877D02*
X104254961Y-128411115D01*
X104254961Y-128411115D02*
X104207342Y-128458734D01*
X104207342Y-128458734D02*
X104112104Y-128506353D01*
X104112104Y-128506353D02*
X103969247Y-128506353D01*
X103969247Y-128506353D02*
X103874009Y-128458734D01*
X103874009Y-128458734D02*
X103826390Y-128411115D01*
X103826390Y-128411115D02*
X103778771Y-128315877D01*
X103778771Y-128315877D02*
X103778771Y-127934925D01*
X103826390Y-129268258D02*
X103778771Y-129411115D01*
X103778771Y-129411115D02*
X103731152Y-129458734D01*
X103731152Y-129458734D02*
X103635914Y-129506353D01*
X103635914Y-129506353D02*
X103493057Y-129506353D01*
X103493057Y-129506353D02*
X103397819Y-129458734D01*
X103397819Y-129458734D02*
X103350200Y-129411115D01*
X103350200Y-129411115D02*
X103302580Y-129315877D01*
X103302580Y-129315877D02*
X103302580Y-128934925D01*
X103302580Y-128934925D02*
X104302580Y-128934925D01*
X104302580Y-128934925D02*
X104302580Y-129268258D01*
X104302580Y-129268258D02*
X104254961Y-129363496D01*
X104254961Y-129363496D02*
X104207342Y-129411115D01*
X104207342Y-129411115D02*
X104112104Y-129458734D01*
X104112104Y-129458734D02*
X104016866Y-129458734D01*
X104016866Y-129458734D02*
X103921628Y-129411115D01*
X103921628Y-129411115D02*
X103874009Y-129363496D01*
X103874009Y-129363496D02*
X103826390Y-129268258D01*
X103826390Y-129268258D02*
X103826390Y-128934925D01*
X103969247Y-130363496D02*
X103302580Y-130363496D01*
X104350200Y-130125401D02*
X103635914Y-129887306D01*
X103635914Y-129887306D02*
X103635914Y-130506353D01*
X90666667Y-139409800D02*
X90809524Y-139457419D01*
X90809524Y-139457419D02*
X91047619Y-139457419D01*
X91047619Y-139457419D02*
X91142857Y-139409800D01*
X91142857Y-139409800D02*
X91190476Y-139362180D01*
X91190476Y-139362180D02*
X91238095Y-139266942D01*
X91238095Y-139266942D02*
X91238095Y-139171704D01*
X91238095Y-139171704D02*
X91190476Y-139076466D01*
X91190476Y-139076466D02*
X91142857Y-139028847D01*
X91142857Y-139028847D02*
X91047619Y-138981228D01*
X91047619Y-138981228D02*
X90857143Y-138933609D01*
X90857143Y-138933609D02*
X90761905Y-138885990D01*
X90761905Y-138885990D02*
X90714286Y-138838371D01*
X90714286Y-138838371D02*
X90666667Y-138743133D01*
X90666667Y-138743133D02*
X90666667Y-138647895D01*
X90666667Y-138647895D02*
X90714286Y-138552657D01*
X90714286Y-138552657D02*
X90761905Y-138505038D01*
X90761905Y-138505038D02*
X90857143Y-138457419D01*
X90857143Y-138457419D02*
X91095238Y-138457419D01*
X91095238Y-138457419D02*
X91238095Y-138505038D01*
X91571429Y-138457419D02*
X91809524Y-139457419D01*
X91809524Y-139457419D02*
X92000000Y-138743133D01*
X92000000Y-138743133D02*
X92190476Y-139457419D01*
X92190476Y-139457419D02*
X92428572Y-138457419D01*
X92714286Y-138457419D02*
X93333333Y-138457419D01*
X93333333Y-138457419D02*
X93000000Y-138838371D01*
X93000000Y-138838371D02*
X93142857Y-138838371D01*
X93142857Y-138838371D02*
X93238095Y-138885990D01*
X93238095Y-138885990D02*
X93285714Y-138933609D01*
X93285714Y-138933609D02*
X93333333Y-139028847D01*
X93333333Y-139028847D02*
X93333333Y-139266942D01*
X93333333Y-139266942D02*
X93285714Y-139362180D01*
X93285714Y-139362180D02*
X93238095Y-139409800D01*
X93238095Y-139409800D02*
X93142857Y-139457419D01*
X93142857Y-139457419D02*
X92857143Y-139457419D01*
X92857143Y-139457419D02*
X92761905Y-139409800D01*
X92761905Y-139409800D02*
X92714286Y-139362180D01*
X106666667Y-139409800D02*
X106809524Y-139457419D01*
X106809524Y-139457419D02*
X107047619Y-139457419D01*
X107047619Y-139457419D02*
X107142857Y-139409800D01*
X107142857Y-139409800D02*
X107190476Y-139362180D01*
X107190476Y-139362180D02*
X107238095Y-139266942D01*
X107238095Y-139266942D02*
X107238095Y-139171704D01*
X107238095Y-139171704D02*
X107190476Y-139076466D01*
X107190476Y-139076466D02*
X107142857Y-139028847D01*
X107142857Y-139028847D02*
X107047619Y-138981228D01*
X107047619Y-138981228D02*
X106857143Y-138933609D01*
X106857143Y-138933609D02*
X106761905Y-138885990D01*
X106761905Y-138885990D02*
X106714286Y-138838371D01*
X106714286Y-138838371D02*
X106666667Y-138743133D01*
X106666667Y-138743133D02*
X106666667Y-138647895D01*
X106666667Y-138647895D02*
X106714286Y-138552657D01*
X106714286Y-138552657D02*
X106761905Y-138505038D01*
X106761905Y-138505038D02*
X106857143Y-138457419D01*
X106857143Y-138457419D02*
X107095238Y-138457419D01*
X107095238Y-138457419D02*
X107238095Y-138505038D01*
X107571429Y-138457419D02*
X107809524Y-139457419D01*
X107809524Y-139457419D02*
X108000000Y-138743133D01*
X108000000Y-138743133D02*
X108190476Y-139457419D01*
X108190476Y-139457419D02*
X108428572Y-138457419D01*
X109238095Y-138790752D02*
X109238095Y-139457419D01*
X109000000Y-138409800D02*
X108761905Y-139124085D01*
X108761905Y-139124085D02*
X109380952Y-139124085D01*
D12*
X118841666Y-52519819D02*
X118841666Y-53234104D01*
X118841666Y-53234104D02*
X118794047Y-53376961D01*
X118794047Y-53376961D02*
X118698809Y-53472200D01*
X118698809Y-53472200D02*
X118555952Y-53519819D01*
X118555952Y-53519819D02*
X118460714Y-53519819D01*
X119841666Y-53519819D02*
X119270238Y-53519819D01*
X119555952Y-53519819D02*
X119555952Y-52519819D01*
X119555952Y-52519819D02*
X119460714Y-52662676D01*
X119460714Y-52662676D02*
X119365476Y-52757914D01*
X119365476Y-52757914D02*
X119270238Y-52805533D01*
X144420833Y-121804819D02*
X144087500Y-121328628D01*
X143849405Y-121804819D02*
X143849405Y-120804819D01*
X143849405Y-120804819D02*
X144230357Y-120804819D01*
X144230357Y-120804819D02*
X144325595Y-120852438D01*
X144325595Y-120852438D02*
X144373214Y-120900057D01*
X144373214Y-120900057D02*
X144420833Y-120995295D01*
X144420833Y-120995295D02*
X144420833Y-121138152D01*
X144420833Y-121138152D02*
X144373214Y-121233390D01*
X144373214Y-121233390D02*
X144325595Y-121281009D01*
X144325595Y-121281009D02*
X144230357Y-121328628D01*
X144230357Y-121328628D02*
X143849405Y-121328628D01*
X145277976Y-120804819D02*
X145087500Y-120804819D01*
X145087500Y-120804819D02*
X144992262Y-120852438D01*
X144992262Y-120852438D02*
X144944643Y-120900057D01*
X144944643Y-120900057D02*
X144849405Y-121042914D01*
X144849405Y-121042914D02*
X144801786Y-121233390D01*
X144801786Y-121233390D02*
X144801786Y-121614342D01*
X144801786Y-121614342D02*
X144849405Y-121709580D01*
X144849405Y-121709580D02*
X144897024Y-121757200D01*
X144897024Y-121757200D02*
X144992262Y-121804819D01*
X144992262Y-121804819D02*
X145182738Y-121804819D01*
X145182738Y-121804819D02*
X145277976Y-121757200D01*
X145277976Y-121757200D02*
X145325595Y-121709580D01*
X145325595Y-121709580D02*
X145373214Y-121614342D01*
X145373214Y-121614342D02*
X145373214Y-121376247D01*
X145373214Y-121376247D02*
X145325595Y-121281009D01*
X145325595Y-121281009D02*
X145277976Y-121233390D01*
X145277976Y-121233390D02*
X145182738Y-121185771D01*
X145182738Y-121185771D02*
X144992262Y-121185771D01*
X144992262Y-121185771D02*
X144897024Y-121233390D01*
X144897024Y-121233390D02*
X144849405Y-121281009D01*
X144849405Y-121281009D02*
X144801786Y-121376247D01*
D11*
X97238095Y-85267419D02*
X97238095Y-86076942D01*
X97238095Y-86076942D02*
X97285714Y-86172180D01*
X97285714Y-86172180D02*
X97333333Y-86219800D01*
X97333333Y-86219800D02*
X97428571Y-86267419D01*
X97428571Y-86267419D02*
X97619047Y-86267419D01*
X97619047Y-86267419D02*
X97714285Y-86219800D01*
X97714285Y-86219800D02*
X97761904Y-86172180D01*
X97761904Y-86172180D02*
X97809523Y-86076942D01*
X97809523Y-86076942D02*
X97809523Y-85267419D01*
X98190476Y-85267419D02*
X98809523Y-85267419D01*
X98809523Y-85267419D02*
X98476190Y-85648371D01*
X98476190Y-85648371D02*
X98619047Y-85648371D01*
X98619047Y-85648371D02*
X98714285Y-85695990D01*
X98714285Y-85695990D02*
X98761904Y-85743609D01*
X98761904Y-85743609D02*
X98809523Y-85838847D01*
X98809523Y-85838847D02*
X98809523Y-86076942D01*
X98809523Y-86076942D02*
X98761904Y-86172180D01*
X98761904Y-86172180D02*
X98714285Y-86219800D01*
X98714285Y-86219800D02*
X98619047Y-86267419D01*
X98619047Y-86267419D02*
X98333333Y-86267419D01*
X98333333Y-86267419D02*
X98238095Y-86219800D01*
X98238095Y-86219800D02*
X98190476Y-86172180D01*
D13*
%TO.C,R4*%
X144360436Y-114265000D02*
X144814564Y-114265000D01*
X144360436Y-115735000D02*
X144814564Y-115735000D01*
%TO.C,D5*%
X139087500Y-119960000D02*
X141772500Y-119960000D01*
X141772500Y-118040000D02*
X139087500Y-118040000D01*
X141772500Y-119960000D02*
X141772500Y-118040000D01*
%TO.C,SW2*%
D11*
X73000000Y-140000000D02*
X79000000Y-140000000D01*
X79000000Y-146000000D01*
X73000000Y-146000000D01*
X73000000Y-140000000D01*
D13*
%TO.C,J6*%
X75640000Y-55840000D02*
X75640000Y-57090000D01*
X75940000Y-56140000D02*
X75940000Y-60860000D01*
X75940000Y-57450000D02*
X76550000Y-57450000D01*
X75940000Y-58750000D02*
X76550000Y-58750000D01*
X75940000Y-60860000D02*
X90060000Y-60860000D01*
X76550000Y-56750000D02*
X76550000Y-60250000D01*
X76550000Y-60250000D02*
X89450000Y-60250000D01*
X76890000Y-55840000D02*
X75640000Y-55840000D01*
X77400000Y-55940000D02*
X77400000Y-56140000D01*
X77700000Y-55940000D02*
X77400000Y-55940000D01*
X77700000Y-56040000D02*
X77400000Y-56040000D01*
X77700000Y-56140000D02*
X77700000Y-55940000D01*
X78500000Y-56140000D02*
X78500000Y-56750000D01*
X78500000Y-56750000D02*
X76550000Y-56750000D01*
X78900000Y-59750000D02*
X79100000Y-59750000D01*
X78900000Y-60250000D02*
X78900000Y-59750000D01*
X79000000Y-60250000D02*
X79000000Y-59750000D01*
X79100000Y-59750000D02*
X79100000Y-60250000D01*
X80900000Y-59750000D02*
X81100000Y-59750000D01*
X80900000Y-60250000D02*
X80900000Y-59750000D01*
X81000000Y-60250000D02*
X81000000Y-59750000D01*
X81100000Y-59750000D02*
X81100000Y-60250000D01*
X82900000Y-59750000D02*
X83100000Y-59750000D01*
X82900000Y-60250000D02*
X82900000Y-59750000D01*
X83000000Y-60250000D02*
X83000000Y-59750000D01*
X83100000Y-59750000D02*
X83100000Y-60250000D01*
X84900000Y-59750000D02*
X85100000Y-59750000D01*
X84900000Y-60250000D02*
X84900000Y-59750000D01*
X85000000Y-60250000D02*
X85000000Y-59750000D01*
X85100000Y-59750000D02*
X85100000Y-60250000D01*
X86900000Y-59750000D02*
X87100000Y-59750000D01*
X86900000Y-60250000D02*
X86900000Y-59750000D01*
X87000000Y-60250000D02*
X87000000Y-59750000D01*
X87100000Y-59750000D02*
X87100000Y-60250000D01*
X87500000Y-56750000D02*
X87500000Y-56140000D01*
X89450000Y-56750000D02*
X87500000Y-56750000D01*
X89450000Y-60250000D02*
X89450000Y-56750000D01*
X90060000Y-56140000D02*
X75940000Y-56140000D01*
X90060000Y-57450000D02*
X89450000Y-57450000D01*
X90060000Y-58750000D02*
X89450000Y-58750000D01*
X90060000Y-60860000D02*
X90060000Y-56140000D01*
%TO.C,J10*%
X76890000Y-76110000D02*
X76890000Y-77360000D01*
X76890000Y-77360000D02*
X78140000Y-77360000D01*
X76990000Y-75300000D02*
X76990000Y-75600000D01*
X76990000Y-75600000D02*
X77190000Y-75600000D01*
X77090000Y-75300000D02*
X77090000Y-75600000D01*
X77190000Y-66940000D02*
X77190000Y-77060000D01*
X77190000Y-74500000D02*
X77800000Y-74500000D01*
X77190000Y-75300000D02*
X76990000Y-75300000D01*
X77190000Y-77060000D02*
X81910000Y-77060000D01*
X77800000Y-67550000D02*
X77800000Y-69500000D01*
X77800000Y-69500000D02*
X77190000Y-69500000D01*
X77800000Y-74500000D02*
X77800000Y-76450000D01*
X77800000Y-76450000D02*
X81300000Y-76450000D01*
X78500000Y-66940000D02*
X78500000Y-67550000D01*
X78500000Y-77060000D02*
X78500000Y-76450000D01*
X79800000Y-66940000D02*
X79800000Y-67550000D01*
X79800000Y-77060000D02*
X79800000Y-76450000D01*
X80800000Y-69900000D02*
X81300000Y-69900000D01*
X80800000Y-70100000D02*
X80800000Y-69900000D01*
X80800000Y-71900000D02*
X81300000Y-71900000D01*
X80800000Y-72100000D02*
X80800000Y-71900000D01*
X80800000Y-73900000D02*
X81300000Y-73900000D01*
X80800000Y-74100000D02*
X80800000Y-73900000D01*
X81300000Y-67550000D02*
X77800000Y-67550000D01*
X81300000Y-70000000D02*
X80800000Y-70000000D01*
X81300000Y-70100000D02*
X80800000Y-70100000D01*
X81300000Y-72000000D02*
X80800000Y-72000000D01*
X81300000Y-72100000D02*
X80800000Y-72100000D01*
X81300000Y-74000000D02*
X80800000Y-74000000D01*
X81300000Y-74100000D02*
X80800000Y-74100000D01*
X81300000Y-76450000D02*
X81300000Y-67550000D01*
X81910000Y-66940000D02*
X77190000Y-66940000D01*
X81910000Y-77060000D02*
X81910000Y-66940000D01*
%TO.C,R7*%
X144360436Y-126265000D02*
X144814564Y-126265000D01*
X144360436Y-127735000D02*
X144814564Y-127735000D01*
%TO.C,D2*%
X139087500Y-107960000D02*
X141772500Y-107960000D01*
X141772500Y-106040000D02*
X139087500Y-106040000D01*
X141772500Y-107960000D02*
X141772500Y-106040000D01*
%TO.C,J4*%
D11*
X51730000Y-110620000D02*
X57730000Y-110620000D01*
X57730000Y-95380000D01*
X51730000Y-95380000D01*
X51730000Y-110620000D01*
X57730000Y-110620000D02*
X60270000Y-110620000D01*
X60270000Y-95380000D01*
X57730000Y-95380000D01*
X57730000Y-110620000D01*
%TO.C,S1*%
X145350000Y-67650000D02*
X138650000Y-67650000D01*
X138650000Y-80350000D01*
X145350000Y-80350000D01*
X145350000Y-67650000D01*
D13*
%TO.C,R3*%
X144360436Y-110265000D02*
X144814564Y-110265000D01*
X144360436Y-111735000D02*
X144814564Y-111735000D01*
%TO.C,D1*%
X139087500Y-103960000D02*
X141772500Y-103960000D01*
X141772500Y-102040000D02*
X139087500Y-102040000D01*
X141772500Y-103960000D02*
X141772500Y-102040000D01*
%TO.C,SW5*%
D11*
X121000000Y-140000000D02*
X127000000Y-140000000D01*
X127000000Y-146000000D01*
X121000000Y-146000000D01*
X121000000Y-140000000D01*
D13*
%TO.C,D7*%
X139087500Y-127960000D02*
X141772500Y-127960000D01*
X141772500Y-126040000D02*
X139087500Y-126040000D01*
X141772500Y-127960000D02*
X141772500Y-126040000D01*
%TO.C,F1*%
X113880000Y-68380000D02*
X113880000Y-74620000D01*
X113880000Y-68380000D02*
X134120000Y-68380000D01*
X114400000Y-69000000D02*
X133600000Y-69000000D01*
X114400000Y-74000000D02*
X114400000Y-69000000D01*
X133600000Y-69000000D02*
X133600000Y-74000000D01*
X133600000Y-74000000D02*
X114400000Y-74000000D01*
X134120000Y-74620000D02*
X113880000Y-74620000D01*
X134120000Y-74620000D02*
X134120000Y-68380000D01*
%TO.C,D4*%
X139087500Y-115960000D02*
X141772500Y-115960000D01*
X141772500Y-114040000D02*
X139087500Y-114040000D01*
X141772500Y-115960000D02*
X141772500Y-114040000D01*
%TO.C,R2*%
X144360436Y-106265000D02*
X144814564Y-106265000D01*
X144360436Y-107735000D02*
X144814564Y-107735000D01*
%TO.C,R5*%
X144360436Y-118265000D02*
X144814564Y-118265000D01*
X144360436Y-119735000D02*
X144814564Y-119735000D01*
%TO.C,R1*%
X144360436Y-102265000D02*
X144814564Y-102265000D01*
X144360436Y-103735000D02*
X144814564Y-103735000D01*
%TO.C,J2*%
X54890000Y-91110000D02*
X54890000Y-92360000D01*
X54890000Y-92360000D02*
X56140000Y-92360000D01*
X54990000Y-90300000D02*
X54990000Y-90600000D01*
X54990000Y-90600000D02*
X55190000Y-90600000D01*
X55090000Y-90300000D02*
X55090000Y-90600000D01*
X55190000Y-81940000D02*
X55190000Y-92060000D01*
X55190000Y-89500000D02*
X55800000Y-89500000D01*
X55190000Y-90300000D02*
X54990000Y-90300000D01*
X55190000Y-92060000D02*
X59910000Y-92060000D01*
X55800000Y-82550000D02*
X55800000Y-84500000D01*
X55800000Y-84500000D02*
X55190000Y-84500000D01*
X55800000Y-89500000D02*
X55800000Y-91450000D01*
X55800000Y-91450000D02*
X59300000Y-91450000D01*
X56500000Y-81940000D02*
X56500000Y-82550000D01*
X56500000Y-92060000D02*
X56500000Y-91450000D01*
X57800000Y-81940000D02*
X57800000Y-82550000D01*
X57800000Y-92060000D02*
X57800000Y-91450000D01*
X58800000Y-84900000D02*
X59300000Y-84900000D01*
X58800000Y-85100000D02*
X58800000Y-84900000D01*
X58800000Y-86900000D02*
X59300000Y-86900000D01*
X58800000Y-87100000D02*
X58800000Y-86900000D01*
X58800000Y-88900000D02*
X59300000Y-88900000D01*
X58800000Y-89100000D02*
X58800000Y-88900000D01*
X59300000Y-82550000D02*
X55800000Y-82550000D01*
X59300000Y-85000000D02*
X58800000Y-85000000D01*
X59300000Y-85100000D02*
X58800000Y-85100000D01*
X59300000Y-87000000D02*
X58800000Y-87000000D01*
X59300000Y-87100000D02*
X58800000Y-87100000D01*
X59300000Y-89000000D02*
X58800000Y-89000000D01*
X59300000Y-89100000D02*
X58800000Y-89100000D01*
X59300000Y-91450000D02*
X59300000Y-82550000D01*
X59910000Y-81940000D02*
X55190000Y-81940000D01*
X59910000Y-92060000D02*
X59910000Y-81940000D01*
%TO.C,J3*%
D11*
X36470000Y-128990000D02*
X65070000Y-128990000D01*
X65070000Y-113690000D01*
X36470000Y-113690000D01*
X36470000Y-128990000D01*
X59460000Y-128080000D02*
X64540000Y-128080000D01*
X64540000Y-117920000D01*
X59460000Y-117920000D01*
X59460000Y-128080000D01*
%TO.C,U6*%
X88745000Y-74540000D02*
X86205000Y-74540000D01*
X86205000Y-69460000D01*
X88745000Y-69460000D01*
X88745000Y-74540000D01*
X108205000Y-77080000D02*
X105665000Y-77080000D01*
X105665000Y-66920000D01*
X108205000Y-66920000D01*
X108205000Y-77080000D01*
X108205000Y-77750000D02*
X86205000Y-77750000D01*
X86205000Y-66250000D01*
X108205000Y-66250000D01*
X108205000Y-77750000D01*
%TO.C,U5*%
X145310000Y-93730000D02*
X137690000Y-93730000D01*
X137690000Y-87730000D01*
X145310000Y-87730000D01*
X145310000Y-93730000D01*
X145310000Y-96270000D02*
X137690000Y-96270000D01*
X137690000Y-93730000D01*
X145310000Y-93730000D01*
X145310000Y-96270000D01*
%TO.C,U4*%
X81000000Y-86840000D02*
X65250000Y-86840000D01*
X65250000Y-107160000D01*
X81000000Y-107160000D01*
X81000000Y-86840000D01*
D13*
%TO.C,D6*%
X139087500Y-123960000D02*
X141772500Y-123960000D01*
X141772500Y-122040000D02*
X139087500Y-122040000D01*
X141772500Y-123960000D02*
X141772500Y-122040000D01*
%TO.C,D3*%
X139087500Y-111960000D02*
X141772500Y-111960000D01*
X141772500Y-110040000D02*
X139087500Y-110040000D01*
X141772500Y-111960000D02*
X141772500Y-110040000D01*
%TO.C,J7*%
X93640000Y-55840000D02*
X93640000Y-57090000D01*
X93940000Y-56140000D02*
X93940000Y-60860000D01*
X93940000Y-57450000D02*
X94550000Y-57450000D01*
X93940000Y-58750000D02*
X94550000Y-58750000D01*
X93940000Y-60860000D02*
X108060000Y-60860000D01*
X94550000Y-56750000D02*
X94550000Y-60250000D01*
X94550000Y-60250000D02*
X107450000Y-60250000D01*
X94890000Y-55840000D02*
X93640000Y-55840000D01*
X95400000Y-55940000D02*
X95400000Y-56140000D01*
X95700000Y-55940000D02*
X95400000Y-55940000D01*
X95700000Y-56040000D02*
X95400000Y-56040000D01*
X95700000Y-56140000D02*
X95700000Y-55940000D01*
X96500000Y-56140000D02*
X96500000Y-56750000D01*
X96500000Y-56750000D02*
X94550000Y-56750000D01*
X96900000Y-59750000D02*
X97100000Y-59750000D01*
X96900000Y-60250000D02*
X96900000Y-59750000D01*
X97000000Y-60250000D02*
X97000000Y-59750000D01*
X97100000Y-59750000D02*
X97100000Y-60250000D01*
X98900000Y-59750000D02*
X99100000Y-59750000D01*
X98900000Y-60250000D02*
X98900000Y-59750000D01*
X99000000Y-60250000D02*
X99000000Y-59750000D01*
X99100000Y-59750000D02*
X99100000Y-60250000D01*
X100900000Y-59750000D02*
X101100000Y-59750000D01*
X100900000Y-60250000D02*
X100900000Y-59750000D01*
X101000000Y-60250000D02*
X101000000Y-59750000D01*
X101100000Y-59750000D02*
X101100000Y-60250000D01*
X102900000Y-59750000D02*
X103100000Y-59750000D01*
X102900000Y-60250000D02*
X102900000Y-59750000D01*
X103000000Y-60250000D02*
X103000000Y-59750000D01*
X103100000Y-59750000D02*
X103100000Y-60250000D01*
X104900000Y-59750000D02*
X105100000Y-59750000D01*
X104900000Y-60250000D02*
X104900000Y-59750000D01*
X105000000Y-60250000D02*
X105000000Y-59750000D01*
X105100000Y-59750000D02*
X105100000Y-60250000D01*
X105500000Y-56750000D02*
X105500000Y-56140000D01*
X107450000Y-56750000D02*
X105500000Y-56750000D01*
X107450000Y-60250000D02*
X107450000Y-56750000D01*
X108060000Y-56140000D02*
X93940000Y-56140000D01*
X108060000Y-57450000D02*
X107450000Y-57450000D01*
X108060000Y-58750000D02*
X107450000Y-58750000D01*
X108060000Y-60860000D02*
X108060000Y-56140000D01*
%TO.C,J5*%
X67390000Y-76110000D02*
X67390000Y-77360000D01*
X67390000Y-77360000D02*
X68640000Y-77360000D01*
X67490000Y-75300000D02*
X67490000Y-75600000D01*
X67490000Y-75600000D02*
X67690000Y-75600000D01*
X67590000Y-75300000D02*
X67590000Y-75600000D01*
X67690000Y-66940000D02*
X67690000Y-77060000D01*
X67690000Y-74500000D02*
X68300000Y-74500000D01*
X67690000Y-75300000D02*
X67490000Y-75300000D01*
X67690000Y-77060000D02*
X72410000Y-77060000D01*
X68300000Y-67550000D02*
X68300000Y-69500000D01*
X68300000Y-69500000D02*
X67690000Y-69500000D01*
X68300000Y-74500000D02*
X68300000Y-76450000D01*
X68300000Y-76450000D02*
X71800000Y-76450000D01*
X69000000Y-66940000D02*
X69000000Y-67550000D01*
X69000000Y-77060000D02*
X69000000Y-76450000D01*
X70300000Y-66940000D02*
X70300000Y-67550000D01*
X70300000Y-77060000D02*
X70300000Y-76450000D01*
X71300000Y-69900000D02*
X71800000Y-69900000D01*
X71300000Y-70100000D02*
X71300000Y-69900000D01*
X71300000Y-71900000D02*
X71800000Y-71900000D01*
X71300000Y-72100000D02*
X71300000Y-71900000D01*
X71300000Y-73900000D02*
X71800000Y-73900000D01*
X71300000Y-74100000D02*
X71300000Y-73900000D01*
X71800000Y-67550000D02*
X68300000Y-67550000D01*
X71800000Y-70000000D02*
X71300000Y-70000000D01*
X71800000Y-70100000D02*
X71300000Y-70100000D01*
X71800000Y-72000000D02*
X71300000Y-72000000D01*
X71800000Y-72100000D02*
X71300000Y-72100000D01*
X71800000Y-74000000D02*
X71300000Y-74000000D01*
X71800000Y-74100000D02*
X71300000Y-74100000D01*
X71800000Y-76450000D02*
X71800000Y-67550000D01*
X72410000Y-66940000D02*
X67690000Y-66940000D01*
X72410000Y-77060000D02*
X72410000Y-66940000D01*
%TO.C,U1*%
D11*
X115500000Y-105500000D02*
X132500000Y-105500000D01*
X132500000Y-81500000D01*
X115500000Y-81500000D01*
X115500000Y-105500000D01*
X115830000Y-84590000D02*
X118370000Y-84590000D01*
X118370000Y-79510000D01*
X115830000Y-79510000D01*
X115830000Y-84590000D01*
X115830000Y-107490000D02*
X118370000Y-107490000D01*
X118370000Y-102410000D01*
X115830000Y-102410000D01*
X115830000Y-107490000D01*
X129630000Y-84590000D02*
X132170000Y-84590000D01*
X132170000Y-79510000D01*
X129630000Y-79510000D01*
X129630000Y-84590000D01*
X129630000Y-107490000D02*
X132170000Y-107490000D01*
X132170000Y-102410000D01*
X129630000Y-102410000D01*
X129630000Y-107490000D01*
%TO.C,U2*%
X125400000Y-116110000D02*
X74600000Y-116110000D01*
X74600000Y-118650000D01*
X125400000Y-118650000D01*
X125400000Y-116110000D01*
X125400000Y-131350000D02*
X74600000Y-131350000D01*
X74600000Y-133890000D01*
X125400000Y-133890000D01*
X125400000Y-131350000D01*
X126670000Y-113570000D02*
X73330000Y-113570000D01*
X73330000Y-136430000D01*
X126670000Y-136430000D01*
X126670000Y-113570000D01*
%TO.C,SW3*%
X89000000Y-140000000D02*
X95000000Y-140000000D01*
X95000000Y-146000000D01*
X89000000Y-146000000D01*
X89000000Y-140000000D01*
%TO.C,SW4*%
X105000000Y-140000000D02*
X111000000Y-140000000D01*
X111000000Y-146000000D01*
X105000000Y-146000000D01*
X105000000Y-140000000D01*
D14*
%TO.C,J1*%
X114500000Y-59000000D02*
X115500000Y-59000000D01*
X115000000Y-58500000D02*
X115000000Y-59500000D01*
X116250000Y-54950000D02*
X128950000Y-54950000D01*
X116250000Y-63050000D02*
X116250000Y-54950000D01*
X128950000Y-54950000D02*
X131750000Y-57400000D01*
X128950000Y-63050000D02*
X116250000Y-63050000D01*
X131750000Y-57400000D02*
X131750000Y-60600000D01*
X131750000Y-60600000D02*
X128950000Y-63050000D01*
X132500000Y-59000000D02*
X133500000Y-59000000D01*
D13*
%TO.C,R6*%
X144360436Y-122265000D02*
X144814564Y-122265000D01*
X144360436Y-123735000D02*
X144814564Y-123735000D01*
%TO.C,U3*%
D11*
X84350000Y-82000000D02*
X111650000Y-82000000D01*
X111650000Y-109800000D01*
X84350000Y-109800000D01*
X84350000Y-82000000D01*
X92920000Y-82000000D02*
X103080000Y-82000000D01*
X103080000Y-84540000D01*
X92920000Y-84540000D01*
X92920000Y-82000000D01*
%TD*%
M02*
