%TF.GenerationSoftware,KiCad,Pcbnew,9.0.5*%
%TF.CreationDate,2025-10-26T23:43:19+08:00*%
%TF.ProjectId,Self_Balancing_Car,53656c66-5f42-4616-9c61-6e63696e675f,rev?*%
%TF.SameCoordinates,Original*%
%TF.FileFunction,Paste,Top*%
%TF.FilePolarity,Positive*%
%FSLAX46Y46*%
G04 Gerber Fmt 4.6, Leading zero omitted, Abs format (unit mm)*
G04 Created by KiCad (PCBNEW 9.0.5) date 2025-10-26 23:43:19*
%MOMM*%
%LPD*%
G01*
G04 APERTURE LIST*
G04 Aperture macros list*
%AMRoundRect*
0 Rectangle with rounded corners*
0 $1 Rounding radius*
0 $2 $3 $4 $5 $6 $7 $8 $9 X,Y pos of 4 corners*
0 Add a 4 corners polygon primitive as box body*
4,1,4,$2,$3,$4,$5,$6,$7,$8,$9,$2,$3,0*
0 Add four circle primitives for the rounded corners*
1,1,$1+$1,$2,$3*
1,1,$1+$1,$4,$5*
1,1,$1+$1,$6,$7*
1,1,$1+$1,$8,$9*
0 Add four rect primitives between the rounded corners*
20,1,$1+$1,$2,$3,$4,$5,0*
20,1,$1+$1,$4,$5,$6,$7,0*
20,1,$1+$1,$6,$7,$8,$9,0*
20,1,$1+$1,$8,$9,$2,$3,0*%
G04 Aperture macros list end*
%ADD10RoundRect,0.250000X-0.262500X-0.450000X0.262500X-0.450000X0.262500X0.450000X-0.262500X0.450000X0*%
%ADD11RoundRect,0.243750X0.243750X0.456250X-0.243750X0.456250X-0.243750X-0.456250X0.243750X-0.456250X0*%
%ADD12RoundRect,0.375000X-0.625000X-0.375000X0.625000X-0.375000X0.625000X0.375000X-0.625000X0.375000X0*%
G04 APERTURE END LIST*
D10*
%TO.C,R4*%
X143675000Y-115000000D03*
X145500000Y-115000000D03*
%TD*%
D11*
%TO.C,D5*%
X141025000Y-119000000D03*
X139150000Y-119000000D03*
%TD*%
D12*
%TO.C,SW2*%
X71500000Y-140750000D03*
X80500000Y-140750000D03*
X71500000Y-145250000D03*
X80500000Y-145250000D03*
%TD*%
D10*
%TO.C,R7*%
X143675000Y-127000000D03*
X145500000Y-127000000D03*
%TD*%
D11*
%TO.C,D2*%
X141025000Y-107000000D03*
X139150000Y-107000000D03*
%TD*%
D10*
%TO.C,R3*%
X143675000Y-111000000D03*
X145500000Y-111000000D03*
%TD*%
D11*
%TO.C,D1*%
X141025000Y-103000000D03*
X139150000Y-103000000D03*
%TD*%
D12*
%TO.C,SW5*%
X119500000Y-140750000D03*
X128500000Y-140750000D03*
X119500000Y-145250000D03*
X128500000Y-145250000D03*
%TD*%
D11*
%TO.C,D7*%
X141025000Y-127000000D03*
X139150000Y-127000000D03*
%TD*%
%TO.C,D4*%
X141025000Y-115000000D03*
X139150000Y-115000000D03*
%TD*%
D10*
%TO.C,R2*%
X143675000Y-107000000D03*
X145500000Y-107000000D03*
%TD*%
%TO.C,R5*%
X143675000Y-119000000D03*
X145500000Y-119000000D03*
%TD*%
%TO.C,R1*%
X143675000Y-103000000D03*
X145500000Y-103000000D03*
%TD*%
D11*
%TO.C,D6*%
X141025000Y-123000000D03*
X139150000Y-123000000D03*
%TD*%
%TO.C,D3*%
X141025000Y-111000000D03*
X139150000Y-111000000D03*
%TD*%
D12*
%TO.C,SW3*%
X87500000Y-140750000D03*
X96500000Y-140750000D03*
X87500000Y-145250000D03*
X96500000Y-145250000D03*
%TD*%
%TO.C,SW4*%
X103500000Y-140750000D03*
X112500000Y-140750000D03*
X103500000Y-145250000D03*
X112500000Y-145250000D03*
%TD*%
D10*
%TO.C,R6*%
X143675000Y-123000000D03*
X145500000Y-123000000D03*
%TD*%
M02*
